<?xml version="1.0" encoding="utf-8"?>
<!-- Generator: Adobe Illustrator 16.0.0, SVG Export Plug-In . SVG Version: 6.00 Build 0)  -->
<!DOCTYPE svg PUBLIC "-//W3C//DTD SVG 1.1//EN" "http://www.w3.org/Graphics/SVG/1.1/DTD/svg11.dtd">
<svg version="1.1" id="Layer_4" xmlns="http://www.w3.org/2000/svg" xmlns:xlink="http://www.w3.org/1999/xlink" x="0px" y="0px"
	 width="1000px" height="368.504px" viewBox="0 0 1000 368.504" enable-background="new 0 0 1000 368.504" xml:space="preserve">
<rect x="548.552" y="43.44" fill="#5EB4E7" width="17.809" height="17.809"/>
<g>
	<g>
		<rect x="584.817" y="47.028" fill="#282D33" width="4" height="4"/>
	</g>
	<g>
		<path fill="#282D33" d="M580.134,51.028h-4.683v-4h4.683V51.028z M570.769,51.028h-4.684v-4h4.684V51.028z"/>
	</g>
	<g>
		<rect x="557.403" y="47.028" fill="#282D33" width="4" height="4"/>
	</g>
	<g>
		<path fill="#282D33" d="M561.403,42.346h-4v-4.683h4V42.346z M561.403,32.98h-4v-4.684h4V32.98z"/>
	</g>
	<g>
		<rect x="557.403" y="19.614" fill="#282D33" width="4" height="4"/>
	</g>
	<g>
		<path fill="#282D33" d="M580.134,23.614h-4.684v-4h4.684V23.614z M570.768,23.614h-4.683v-4h4.683V23.614z"/>
	</g>
	<g>
		<rect x="584.817" y="19.614" fill="#282D33" width="4" height="4"/>
	</g>
	<g>
		<path fill="#282D33" d="M588.817,42.346h-4v-4.684h4V42.346z M588.817,32.979h-4v-4.683h4V32.979z"/>
	</g>
</g>
<g>
	<g>
		<g>
			<path fill="#F8C44F" d="M631.156,237.489h-67.182c-53.169,0-96.426-43.266-96.426-96.445v-26.016h40v26.016
				c0,31.124,25.312,56.445,56.426,56.445h67.182V237.489z"/>
		</g>
	</g>
</g>
<g>
	<path fill="#F8C44F" d="M680.874,368.504V209.187c0-8.617-9.011-15.6-20.127-15.6h-28.645c0.04-0.393,0.07-0.787,0.07-1.185
		v-33.948c0-7.32-6.776-13.248-15.131-13.248h-0.945c-8.357,0-15.132,5.928-15.132,13.248v33.948c0,0.397,0.03,0.792,0.07,1.185
		h-28.641c-11.115,0-20.131,6.982-20.131,15.6v159.317"/>
	<path fill="#F8C44F" d="M635.339,199.854c0,1.828-1.484,3.312-3.312,3.312h-30.913c-1.829,0-3.312-1.484-3.312-3.312V184.95
		c0-1.83,1.482-3.312,3.312-3.312h30.913c1.828,0,3.312,1.482,3.312,3.312V199.854z"/>
	<g>
		<path fill="#FFFFFF" d="M655.463,143.53c0,21.752-17.63,39.383-39.383,39.383l0,0c-21.752,0-39.383-17.631-39.383-39.383v-21.567
			c0-21.752,17.631-39.383,39.383-39.383l0,0c21.753,0,39.383,17.631,39.383,39.383V143.53z"/>
		<path fill="#282D33" d="M616.08,184.913c-22.818,0-41.383-18.564-41.383-41.383v-21.567c0-22.818,18.564-41.383,41.383-41.383
			c22.819,0,41.383,18.564,41.383,41.383v21.567C657.463,166.349,638.899,184.913,616.08,184.913z M616.08,84.58
			c-20.612,0-37.383,16.77-37.383,37.383v21.567c0,20.613,16.771,37.383,37.383,37.383c20.615,0,37.383-16.77,37.383-37.383v-21.567
			C653.463,101.35,636.695,84.58,616.08,84.58z"/>
	</g>
	<g>
		<path fill="#FFFFFF" d="M581.638,131.779c-4.182,0.437-11.004,3.933-11.004,8.231v9.934c0,4.302,6.822,7.798,11.004,8.231V131.779
			z"/>
		<path fill="#282D33" d="M583.638,160.394l-2.206-0.229c-4.593-0.477-12.798-4.299-12.798-10.221v-9.934
			c0-5.916,8.204-9.741,12.796-10.221l2.208-0.23V160.394z M579.638,134.236c-3.45,1.061-7.004,3.583-7.004,5.774v9.934
			c0,2.194,3.554,4.717,7.004,5.776V134.236z"/>
	</g>
	<g>
		<rect x="595.804" y="131.06" fill="#282D33" width="7.177" height="4"/>
	</g>
	<g>
		<rect x="625.613" y="131.06" fill="#282D33" width="7.177" height="4"/>
	</g>
	<g>
		<path fill="#FFFFFF" d="M607.606,164.156c1.889,3.279,4.982,5.427,8.484,5.427c3.506,0,6.598-2.147,8.485-5.427"/>
		<path fill="#282D33" d="M616.091,171.583c-4.079,0-7.899-2.403-10.218-6.429l3.467-1.996c1.596,2.771,4.119,4.425,6.751,4.425
			c2.633,0,5.157-1.654,6.753-4.425l3.467,1.996C623.992,169.18,620.172,171.583,616.091,171.583z"/>
	</g>
	<g>
		<path fill="#5EB4E7" d="M653.762,92.487h-4.577c1.53-2.662,2.004-5.401,1.068-7.814c-2.316-5.968-12.257-7.679-22.206-3.82
			c-1.121,0.434-2.184,0.929-3.204,1.459c0.625-2.125,0.646-4.218-0.102-6.139c-2.749-7.084-14.549-9.115-26.355-4.535
			c-11.66,4.522-18.951,13.795-16.489,20.85h-3.484c-4.573,0-8.281,3.707-8.281,8.28v34.55c0.142,0.354,0.275,0.709,0.423,1.055
			h11.117V106.23c0-0.424,0.049-0.835,0.064-1.255c10.394,2.187,22.049,3.416,34.352,3.416c12.301,0,23.955-1.229,34.35-3.416
			c0.018,0.42,0.066,0.831,0.066,1.255v30.142h11.115c0.15-0.35,0.281-0.705,0.424-1.058v-34.547
			C662.042,96.194,658.335,92.487,653.762,92.487z"/>
		<path fill="#282D33" d="M662.935,138.372h-14.432v-30.966c-10.235,1.981-21.128,2.985-32.416,2.985
			c-11.29,0-22.181-1.004-32.416-2.985v30.966h-14.435l-0.521-1.211c-0.111-0.26-0.216-0.525-0.319-0.792l-0.266-0.669v-34.933
			c0-5.669,4.613-10.28,10.281-10.28h1.042c-0.593-7.621,6.812-16.294,18.208-20.714c4.358-1.691,8.891-2.585,13.108-2.585
			c7.909,0,13.829,3.089,15.835,8.261c0.439,1.13,0.674,2.314,0.701,3.546c0.007-0.003,0.014-0.006,0.014-0.006
			c3.713-1.439,7.571-2.2,11.163-2.2c6.798,0,11.894,2.677,13.634,7.16c0.789,2.032,0.824,4.252,0.124,6.538h1.521
			c5.668,0,10.28,4.611,10.28,10.28v34.936l-0.294,0.732c-0.094,0.243-0.189,0.486-0.293,0.727L662.935,138.372z M652.503,134.372
			h7.539v-33.604c0-3.463-2.816-6.28-6.28-6.28h-8.035l1.725-2.997c0.899-1.563,1.792-3.89,0.937-6.095
			c-1.103-2.841-4.897-4.606-9.904-4.606c-3.103,0-6.461,0.667-9.713,1.928c-0.981,0.38-1.964,0.828-3.005,1.369l-4.168,2.167
			l1.326-4.506c0.525-1.785,0.51-3.417-0.047-4.85c-1.387-3.575-5.912-5.709-12.106-5.709c-3.728,0-7.761,0.801-11.661,2.313
			c-10.549,4.092-17.423,12.312-15.323,18.326l0.927,2.659h-6.301c-3.463,0-6.281,2.817-6.281,6.28v33.604h7.54V106.23
			c0-0.299,0.019-0.593,0.038-0.887c0.012-0.147,0.021-0.294,0.027-0.442l0.089-2.371l2.321,0.488
			c10.642,2.238,22.061,3.373,33.94,3.373c11.878,0,23.297-1.135,33.938-3.373l2.312-0.486l0.099,2.359
			c0.006,0.145,0.017,0.288,0.026,0.431c0.022,0.301,0.042,0.602,0.042,0.908V134.372z"/>
	</g>
	<g>
		<path fill="#FFFFFF" d="M610.087,124.362v24.773c0,1.598,1.297,2.897,2.898,2.897h5.314c1.6,0,2.897-1.3,2.897-2.897v-1.453"/>
		<path fill="#282D33" d="M618.3,154.033h-5.314c-2.701,0-4.898-2.197-4.898-4.897v-24.773h4v24.773
			c0,0.495,0.403,0.897,0.898,0.897h5.314c0.495,0,0.897-0.402,0.897-0.897v-1.453h4v1.453
			C623.197,151.836,621.001,154.033,618.3,154.033z"/>
	</g>
	<g>
		<rect x="607.606" y="189.365" fill="#282D33" width="4" height="12.695"/>
	</g>
	<g>
		<path fill="#FFFFFF" d="M650.447,139.555c0-4.292,3.479-7.775,7.776-7.775h0.648c4.292,0,7.777,3.483,7.777,7.775v9.444
			c0,4.296-3.485,7.776-7.777,7.776h-0.648c-3.18,0-5.91-1.905-7.117-4.636"/>
		<path fill="#282D33" d="M658.872,158.775h-0.648c-3.87,0-7.382-2.287-8.946-5.827l3.658-1.617
			c0.925,2.093,3.001,3.444,5.288,3.444h0.648c3.186,0,5.777-2.591,5.777-5.776v-9.444c0-3.185-2.592-5.775-5.777-5.775h-0.648
			c-3.186,0-5.776,2.591-5.776,5.775h-4c0-5.391,4.385-9.775,9.776-9.775h0.648c5.392,0,9.777,4.385,9.777,9.775v9.444
			C668.649,154.39,664.264,158.775,658.872,158.775z"/>
	</g>
</g>
<g>
	<g>
		<path fill="#FFFFFF" d="M301.054,368.504V223.51c0-9.799,8.978-17.743,20.049-17.743h87.974c11.072,0,20.043,7.944,20.043,17.743
			v144.994"/>
		<path fill="#282D33" d="M431.119,368.504h-4V223.51c0-8.681-8.094-15.743-18.043-15.743h-87.974
			c-9.952,0-18.049,7.062-18.049,15.743v144.994h-4V223.51c0-10.887,9.891-19.743,22.049-19.743h87.974
			c12.154,0,22.043,8.856,22.043,19.743V368.504z"/>
	</g>
	<g>
		<polygon fill="#FFFFFF" points="381.535,205.951 364.693,215.676 347.851,205.951 347.851,169.179 364.693,169.179 
			381.535,169.179 		"/>
		<path fill="#282D33" d="M364.693,217.985l-18.843-10.88v-39.927h37.685v39.927L364.693,217.985z M349.851,204.797l14.843,8.569
			l14.842-8.569v-33.618h-29.685V204.797z"/>
	</g>
	<polygon fill="#5EB4E7" points="344.961,231.493 364.622,218.497 346.512,208.04 	"/>
	<polygon fill="#5EB4E7" points="384.391,231.495 364.729,218.497 382.837,208.04 	"/>
	<g>
		<path fill="#FFFFFF" d="M413.594,156.811c0,4.295-3.481,7.778-7.775,7.778h-0.649c-4.297,0-7.774-3.483-7.774-7.778v-14.255
			c0-4.295,3.478-7.775,7.774-7.775h0.649c4.294,0,7.775,3.48,7.775,7.775V156.811z"/>
		<path fill="#282D33" d="M405.818,166.589h-0.649c-5.389,0-9.774-4.387-9.774-9.778v-14.255c0-5.391,4.385-9.775,9.774-9.775h0.649
			c5.391,0,9.775,4.385,9.775,9.775v14.255C415.594,162.202,411.209,166.589,405.818,166.589z M405.169,136.78
			c-3.184,0-5.774,2.591-5.774,5.775v14.255c0,3.187,2.591,5.778,5.774,5.778h0.649c3.185,0,5.775-2.592,5.775-5.778v-14.255
			c0-3.185-2.591-5.775-5.775-5.775H405.169z"/>
	</g>
	<g>
		<path fill="#FFFFFF" d="M404.47,158.12c0,21.752-17.633,39.383-39.382,39.383l0,0c-21.752,0-39.385-17.631-39.385-39.383v-31.503
			c0-21.749,17.633-39.38,39.385-39.38l0,0c21.749,0,39.382,17.631,39.382,39.38V158.12z"/>
		<path fill="#282D33" d="M365.088,199.503c-22.819,0-41.385-18.564-41.385-41.383v-31.503c0-22.817,18.565-41.38,41.385-41.38
			c22.818,0,41.382,18.562,41.382,41.38v31.503C406.47,180.938,387.906,199.503,365.088,199.503z M365.088,89.237
			c-20.614,0-37.385,16.769-37.385,37.38v31.503c0,20.613,16.771,37.383,37.385,37.383c20.612,0,37.382-16.77,37.382-37.383v-31.503
			C402.47,106.006,385.7,89.237,365.088,89.237z"/>
	</g>
	<g>
		<path fill="#5EB4E7" d="M351.025,85.1c-6.373,0-11.975,3.28-15.232,8.238h-6.255c-7.794,0-14.118,6.319-14.118,14.118v67.897
			h9.935v-47.197c0-5.488,4.451-9.937,9.938-9.937h5.795h48.854h9.107c10.064,0,18.217-8.156,18.217-18.216V85.1H351.025z"/>
		<path fill="#282D33" d="M327.354,177.354H313.42v-69.897c0-8.888,7.23-16.118,16.118-16.118h5.211
			c3.813-5.179,9.818-8.238,16.276-8.238h68.24v16.904c0,11.147-9.069,20.216-20.217,20.216h-63.756
			c-4.377,0-7.938,3.561-7.938,7.937V177.354z M317.42,173.354h5.935v-45.197c0-6.582,5.355-11.937,11.938-11.937h63.756
			c8.942,0,16.217-7.274,16.217-16.216V87.1h-64.24c-5.473,0-10.542,2.742-13.561,7.337l-0.593,0.901h-7.334
			c-6.682,0-12.118,5.437-12.118,12.118V173.354z"/>
	</g>
	<g>
		<path fill="#FFFFFF" d="M325.703,134.861c-3.908,0.406-10.283,3.675-10.283,7.694v14.255c0,4.021,6.375,7.29,10.283,7.696V134.861
			z"/>
		<path fill="#282D33" d="M327.703,166.726l-2.207-0.229c-4.334-0.45-12.076-4.072-12.076-9.686v-14.255
			c0-5.612,7.742-9.233,12.076-9.684l2.207-0.229V166.726z M323.703,137.343c-3.095,1.013-6.283,3.291-6.283,5.213v14.255
			c0,1.923,3.188,4.201,6.283,5.215V137.343z"/>
	</g>
	<g>
		<path fill="#FFFFFF" d="M356.76,173.138c1.893,3.28,4.984,5.428,8.486,5.428c3.504,0,6.596-2.147,8.486-5.428"/>
		<path fill="#282D33" d="M365.246,180.565c-4.077,0-7.896-2.403-10.219-6.429l3.465-1.998c1.6,2.771,4.124,4.427,6.754,4.427
			c2.631,0,5.156-1.654,6.754-4.427l3.465,1.998C373.145,178.162,369.325,180.565,365.246,180.565z"/>
	</g>
	<g>
		<path fill="#282D33" d="M342.902,159.587c-10.09,0-18.298-8.209-18.298-18.299v-8.318h36.597v8.318
			C361.201,151.378,352.992,159.587,342.902,159.587z M328.604,136.97v4.318c0,7.885,6.414,14.299,14.298,14.299
			c7.885,0,14.299-6.414,14.299-14.299v-4.318H328.604z"/>
	</g>
	<g>
		<path fill="#282D33" d="M388.141,159.587c-10.089,0-18.297-8.209-18.297-18.299v-8.318h36.594v8.318
			C406.438,151.378,398.229,159.587,388.141,159.587z M373.844,136.97v4.318c0,7.885,6.413,14.299,14.297,14.299
			s14.297-6.414,14.297-14.299v-4.318H373.844z"/>
	</g>
	<g>
		<rect x="342.331" y="141.788" fill="#282D33" width="6.02" height="4"/>
	</g>
	<g>
		<rect x="382.009" y="141.788" fill="#282D33" width="5.744" height="4"/>
	</g>
	<g>
		<rect x="359.172" y="132.97" fill="#282D33" width="14.904" height="4"/>
	</g>
</g>
<g>
	<path fill="#5EB4E7" d="M418.997,368.504v-80.69c0-7.315,6.885-13.248,15.38-13.248h84.601c8.494,0,15.383,5.933,15.383,13.248
		v80.69"/>
	<g>
		<path fill="#FFFFFF" d="M440.877,369.504v-75.868c0-6.4,4.274-11.586,9.546-11.586h52.51c5.273,0,9.546,5.186,9.546,11.586v75.868
			H440.877z"/>
		<path fill="#282D33" d="M514.479,368.504h-4v-74.868c0-5.286-3.385-9.586-7.546-9.586h-52.51c-4.161,0-7.546,4.3-7.546,9.586
			v74.868h-4v-74.868c0-7.491,5.179-13.586,11.546-13.586h52.51c6.367,0,11.546,6.095,11.546,13.586V368.504z"/>
	</g>
	<g>
		<path fill="#FFFFFF" d="M476.678,302.361c11.948,0,21.667-9.72,21.667-21.667v-6.129h-43.334v6.129
			C455.012,292.642,464.731,302.361,476.678,302.361z"/>
		<path fill="#282D33" d="M476.678,304.361c-13.049,0-23.667-10.617-23.667-23.667v-8.129h47.334v8.129
			C500.346,293.744,489.729,304.361,476.678,304.361z M457.012,276.565v4.129c0,10.845,8.822,19.667,19.667,19.667
			c10.845,0,19.667-8.822,19.667-19.667v-4.129H457.012z"/>
	</g>
	<g>
		<path fill="#FFFFFF" d="M488.346,280.694c0,6.443-5.224,11.667-11.667,11.667l0,0c-6.443,0-11.667-5.224-11.667-11.667v-37.333
			c0-6.443,5.224-11.667,11.667-11.667l0,0c6.444,0,11.667,5.224,11.667,11.667V280.694z"/>
		<path fill="#282D33" d="M476.678,294.361c-7.536,0-13.667-6.131-13.667-13.667v-37.333c0-7.536,6.131-13.667,13.667-13.667
			c7.537,0,13.667,6.131,13.667,13.667v37.333C490.346,288.23,484.215,294.361,476.678,294.361z M476.678,233.694
			c-5.33,0-9.667,4.337-9.667,9.667v37.333c0,5.33,4.336,9.667,9.667,9.667c5.331,0,9.667-4.337,9.667-9.667v-37.333
			C486.346,238.031,482.009,233.694,476.678,233.694z"/>
	</g>
	<g>
		<ellipse fill="#5EB4E7" cx="441.652" cy="187.345" rx="27.601" ry="28.703"/>
		<path fill="#282D33" d="M441.653,218.048c-16.323,0-29.602-13.773-29.602-30.703c0-16.931,13.279-30.705,29.602-30.705
			c16.321,0,29.6,13.774,29.6,30.705C471.253,204.274,457.975,218.048,441.653,218.048z M441.653,160.64
			c-14.117,0-25.602,11.979-25.602,26.705c0,14.725,11.484,26.703,25.602,26.703c14.115,0,25.6-11.979,25.6-26.703
			C467.253,172.619,455.769,160.64,441.653,160.64z"/>
	</g>
	<g>
		<ellipse fill="#5EB4E7" cx="435.028" cy="218.655" rx="17.664" ry="18.371"/>
		<path fill="#282D33" d="M435.029,239.026c-10.843,0-19.665-9.139-19.665-20.371c0-11.233,8.822-20.372,19.665-20.372
			c10.842,0,19.664,9.139,19.664,20.372C454.692,229.888,445.871,239.026,435.029,239.026z M435.029,202.283
			c-8.637,0-15.665,7.345-15.665,16.372s7.028,16.371,15.665,16.371c8.636,0,15.664-7.344,15.664-16.371
			S443.665,202.283,435.029,202.283z"/>
	</g>
	<g>
		<ellipse fill="#FFFFFF" cx="438.341" cy="204.304" rx="17.664" ry="18.37"/>
		<path fill="#282D33" d="M438.341,224.674c-10.843,0-19.664-9.138-19.664-20.37s8.821-20.371,19.664-20.371
			s19.664,9.139,19.664,20.371S449.184,224.674,438.341,224.674z M438.341,187.933c-8.637,0-15.664,7.344-15.664,16.371
			c0,9.026,7.027,16.37,15.664,16.37s15.664-7.344,15.664-16.37C454.005,195.276,446.978,187.933,438.341,187.933z"/>
	</g>
	<g>
		<ellipse fill="#5EB4E7" cx="507.894" cy="218.655" rx="17.664" ry="18.371"/>
		<path fill="#282D33" d="M507.894,239.026c-10.843,0-19.664-9.139-19.664-20.371c0-11.233,8.821-20.372,19.664-20.372
			s19.664,9.139,19.664,20.372C527.558,229.888,518.736,239.026,507.894,239.026z M507.894,202.283
			c-8.637,0-15.664,7.345-15.664,16.372s7.027,16.371,15.664,16.371c8.638,0,15.664-7.344,15.664-16.371
			S516.531,202.283,507.894,202.283z"/>
	</g>
	<g>
		<path fill="#FFFFFF" d="M509.998,221.414c0,21.749-17.63,39.383-39.38,39.383l0,0c-21.75,0-39.38-17.634-39.38-39.383v-31.507
			c0-21.748,17.63-39.379,39.38-39.379l0,0c21.75,0,39.38,17.631,39.38,39.379V221.414z"/>
		<path fill="#282D33" d="M470.618,262.797c-22.817,0-41.38-18.564-41.38-41.383v-31.507c0-22.816,18.563-41.379,41.38-41.379
			c22.816,0,41.38,18.562,41.38,41.379v31.507C511.998,244.232,493.435,262.797,470.618,262.797z M470.618,152.528
			c-20.613,0-37.38,16.769-37.38,37.379v31.507c0,20.613,16.768,37.383,37.38,37.383c20.612,0,37.38-16.77,37.38-37.383v-31.507
			C507.998,169.297,491.23,152.528,470.618,152.528z"/>
	</g>
	<g>
		<path fill="#5EB4E7" d="M506.209,161.082l28.058,28.056l-5.076,5.074c-15.523,15.522-40.686,15.522-56.205,0l-35.073-35.07
			C457.448,141.682,487.452,142.325,506.209,161.082z"/>
		<path fill="#282D33" d="M501.087,207.854c-11.15,0-21.632-4.343-29.515-12.228l-36.569-36.565l1.577-1.41
			c9.479-8.472,21.716-13.137,34.458-13.137c13.819,0,26.812,5.382,36.586,15.154l29.472,29.47l-6.491,6.488
			C522.719,203.512,512.236,207.854,501.087,207.854z M440.856,159.257l33.543,33.541c7.129,7.13,16.606,11.056,26.688,11.056
			c10.081,0,19.56-3.926,26.689-11.056l3.661-3.66l-26.642-26.642c-9.017-9.017-21.007-13.982-33.758-13.982
			C459.99,148.514,449.354,152.313,440.856,159.257z"/>
	</g>
	<g>
		<path fill="#282D33" d="M464.917,206.956h-4c0-4.231-3.441-7.674-7.673-7.674c-4.23,0-7.671,3.442-7.671,7.674h-4
			c0-6.437,5.236-11.674,11.671-11.674C459.68,195.282,464.917,200.52,464.917,206.956z"/>
	</g>
	<g>
		<rect x="462.076" y="232.817" fill="#282D33" width="14.905" height="4"/>
	</g>
</g>
<g>
	<g>
		<g>
			<path fill="#F8C44F" d="M220.342,306.65c-41.089,0-74.517-33.435-74.517-74.53v-67.858h40v67.858
				c0,19.04,15.484,34.53,34.517,34.53c19.004,0,34.467-15.49,34.467-34.53v-1.165h40v1.165
				C294.809,273.216,261.403,306.65,220.342,306.65z"/>
		</g>
	</g>
</g>
<g>
	<g>
		<g>
			<path fill="#F8C44F" d="M344.81,368.504h-40v-54.167c0-12.973-10.55-23.526-23.517-23.526v-40
				c35.023,0,63.517,28.498,63.517,63.526V368.504z"/>
		</g>
	</g>
</g>
<g>
	<g>
		<path fill="#282D33" d="M181.089,159.827h-4v-3.9l1.525-0.373c1.285-0.313,2.473-0.952,3.445-1.85l9.991-11.624v-7.149
			l-0.275-0.109l0.275-1.447v-4.772c-1.896,0.078-3.416,1.645-3.416,3.56v9.319h-4v-9.319c0-4.17,3.393-7.562,7.563-7.562h3.724
			l0.012,0.152l0.117,0.009l0.02,1.707l0.124,1.866l-0.144,0.02v15.21l-11.17,12.979c-1.099,1.041-2.39,1.86-3.791,2.413V159.827z"
			/>
	</g>
	<g>
		<path fill="#FFFFFF" d="M208.725,133.228h2.8c0.346,0,0.623,0.282,0.623,0.636v4.517c0,0.354-0.277,0.639-0.623,0.639h-2.8"/>
		<path fill="#282D33" d="M211.524,141.019h-2.8v-4h1.422v-1.791h-1.422v-4h2.8c1.446,0,2.623,1.183,2.623,2.636v4.517
			C214.147,139.835,212.97,141.019,211.524,141.019z"/>
	</g>
	<g>
		<polygon fill="#282D33" points="141.094,141.01 139.446,141.01 128.655,136.118 139.447,131.228 141.094,131.228 141.094,135.228 
			140.31,135.228 138.344,136.118 140.311,137.01 141.094,137.01 		"/>
	</g>
	<rect x="143.327" y="131.607" fill="#5EB4E7" width="13.899" height="9.031"/>
	<rect x="188.31" y="131.607" fill="#5EB4E7" width="18.151" height="9.031"/>
	<g>
		<path fill="#FFFFFF" d="M194.05,141.093c-0.009,0,0.013,0.002,0,0.006v1.723l-10.545,12.269c-1.219,1.154-2.732,1.996-4.416,2.407
			v2.33"/>
		<path fill="#282D33" d="M181.089,159.827h-4v-3.9l1.525-0.373c1.285-0.313,2.473-0.952,3.445-1.85l9.805-11.407l0.187-1.356
			v-1.351l0.194-0.056l0.062-0.441h1.744v1.999l0.543-1.923l1.461,1.924l-0.004,0.007v2.463l-11.17,12.979
			c-1.099,1.041-2.39,1.86-3.791,2.413V159.827z"/>
	</g>
	<g>
		<path fill="#282D33" d="M162.876,159.827h-4v-3.047c-2.516-2.238-3.939-5.386-3.939-8.784v-16.997l0.186-3.852
			c-0.002-3.014,2.529-5.545,5.64-5.545c1.097,0,2.007,0.17,2.754,0.462c1.028-1.385,2.677-2.283,4.53-2.283
			c0.946,0,1.836,0.233,2.619,0.646c1.017-1.488,2.728-2.467,4.663-2.467c2.075,0,3.893,1.126,4.873,2.799
			c0.784-0.39,1.662-0.612,2.57-0.612c3.181,0,5.768,2.587,5.768,5.767v15.566h-4v-15.566c0-0.974-0.793-1.767-1.768-1.767
			c-0.994,0-1.801,0.911-1.801,1.506h-4v-2.051c0-0.905-0.737-1.642-1.643-1.642c-0.906,0-1.643,0.736-1.643,1.642v1.822h-4
			c0-0.906-0.735-1.644-1.639-1.644c-0.905,0-1.642,0.737-1.642,1.644v0.909l-4-0.002c0-0.274-0.005-0.729-1.642-0.729
			c-0.905,0-1.642,0.737-1.642,1.643l-0.186,3.852l0.002,16.899c0,2.472,1.144,4.744,3.138,6.235l0.802,0.6V159.827z"/>
	</g>
</g>
<g>
	<g>
		<path fill="#F8C44F" d="M308.721,245.354c0,15.761-12.776,28.539-28.539,28.539h-12.017c-15.759,0-28.538-12.778-28.538-28.539
			v-51.821c0-15.762,12.779-28.538,28.538-28.538h12.017c15.763,0,28.539,12.776,28.539,28.538V245.354z"/>
		<path fill="#F8C44F" d="M280.182,275.893h-12.017c-16.838,0-30.538-13.7-30.538-30.539v-51.821
			c0-16.839,13.699-30.538,30.538-30.538h12.017c16.839,0,30.539,13.699,30.539,30.538v51.821
			C310.721,262.192,297.021,275.893,280.182,275.893z M268.165,166.994c-14.632,0-26.538,11.905-26.538,26.538v51.821
			c0,14.634,11.905,26.539,26.538,26.539h12.017c14.633,0,26.539-11.905,26.539-26.539v-51.821
			c0-14.633-11.906-26.538-26.539-26.538H268.165z"/>
	</g>
	<g>
		<path fill="#FFFFFF" d="M313.845,368.504v-70.636c0-22.29-18.072-40.361-40.362-40.361c-22.291,0-40.362,18.071-40.362,40.361
			v70.636"/>
		<path fill="#282D33" d="M315.845,368.504h-4v-70.636c0-21.152-17.209-38.361-38.362-38.361c-21.154,0-38.362,17.209-38.362,38.361
			v70.636h-4v-70.636c0-23.358,19.004-42.361,42.362-42.361s42.362,19.003,42.362,42.361V368.504z"/>
	</g>
	<g>
		<path fill="#FFFFFF" d="M319.113,217.565c0,6.75-5.475,12.222-12.227,12.222H241.46c-6.749,0-12.221-5.472-12.221-12.222l0,0
			c0-6.751,5.472-12.224,12.221-12.224h65.426C313.638,205.342,319.113,210.814,319.113,217.565L319.113,217.565z"/>
		<path fill="#282D33" d="M306.886,231.787H241.46c-7.842,0-14.221-6.38-14.221-14.222c0-7.843,6.379-14.224,14.221-14.224h65.426
			c7.845,0,14.227,6.381,14.227,14.224C321.113,225.407,314.73,231.787,306.886,231.787z M241.46,207.342
			c-5.636,0-10.221,4.586-10.221,10.224c0,5.637,4.585,10.222,10.221,10.222h65.426c5.639,0,10.227-4.585,10.227-10.222
			c0-5.638-4.588-10.224-10.227-10.224H241.46z"/>
	</g>
	<g>
		<path fill="#FFFFFF" d="M273.309,275.018c-7.051,0-12.768-5.716-12.768-12.767v-68.344c0-7.05,5.717-12.767,12.768-12.767l0,0
			c7.05,0,12.767,5.717,12.767,12.767v68.344C286.075,269.302,280.358,275.018,273.309,275.018L273.309,275.018z"/>
		<path fill="#282D33" d="M273.309,277.018c-8.143,0-14.768-6.624-14.768-14.767v-68.344c0-8.143,6.625-14.767,14.768-14.767
			s14.767,6.624,14.767,14.767v68.344C288.075,270.394,281.451,277.018,273.309,277.018z M273.309,183.141
			c-5.938,0-10.768,4.83-10.768,10.767v68.344c0,5.937,4.83,10.767,10.768,10.767c5.936,0,10.767-4.83,10.767-10.767v-68.344
			C284.075,187.971,279.244,183.141,273.309,183.141z"/>
	</g>
	<g>
		<path fill="#FFFFFF" d="M308.721,171.001v51.821c0,15.761-12.776,28.539-28.539,28.539h-12.017
			c-15.759,0-28.538-12.778-28.538-28.539v-51.821"/>
		<path fill="#282D33" d="M280.182,253.361h-12.017c-16.838,0-30.538-13.7-30.538-30.539v-51.821h4v51.821
			c0,14.634,11.905,26.539,26.538,26.539h12.017c14.633,0,26.539-11.905,26.539-26.539v-51.821h4v51.821
			C310.721,239.661,297.021,253.361,280.182,253.361z"/>
	</g>
	<g>
		<path fill="#F8C44F" d="M280.182,142.463h-12.017c-15.759,0-28.538,12.777-28.538,28.538v34.175
			c14.25-1.294,27.814-14.592,34.546-33.626c6.733,19.034,20.296,32.332,34.548,33.627v-34.176
			C308.721,155.24,295.944,142.463,280.182,142.463z"/>
		<path fill="#F8C44F" d="M310.721,207.367l-2.181-0.198c-13.756-1.25-26.868-12.9-34.367-30.157
			c-7.498,17.257-20.61,28.907-34.365,30.156l-2.181,0.197v-36.364c0-16.839,13.699-30.538,30.538-30.538h12.017
			c16.839,0,30.539,13.699,30.539,30.538V207.367z M274.173,165.552l1.886,5.331c6.155,17.404,18.021,29.689,30.662,32.003v-31.885
			c0-14.633-11.906-26.538-26.539-26.538h-12.017c-14.632,0-26.538,11.905-26.538,26.538v31.885
			c12.642-2.313,24.504-14.599,30.66-32.003L274.173,165.552z"/>
	</g>
	<g>
		<path fill="#282D33" d="M267.844,212.82h-4c0-1.546-2.26-3.269-5.503-3.269c-3.245,0-5.507,1.723-5.507,3.269h-4
			c0-4.076,4.176-7.269,9.507-7.269C263.669,205.552,267.844,208.744,267.844,212.82z"/>
	</g>
	<g>
		<path fill="#282D33" d="M296.253,212.82h-4c0-1.546-2.26-3.269-5.503-3.269c-3.245,0-5.506,1.723-5.506,3.269h-4
			c0-4.076,4.176-7.269,9.506-7.269C292.079,205.552,296.253,208.744,296.253,212.82z"/>
	</g>
	<g>
		<path fill="#FFFFFF" d="M261.928,223.573v5.257c0,4.148,3.362,7.511,7.511,7.511h5.258c4.147,0,7.509-3.362,7.509-7.511v-5.257
			H261.928z"/>
		<path fill="#282D33" d="M274.697,238.341h-5.258c-5.244,0-9.511-4.267-9.511-9.511v-7.257h24.278v7.257
			C284.206,234.074,279.94,238.341,274.697,238.341z M263.928,225.573v3.257c0,3.039,2.472,5.511,5.511,5.511h5.258
			c3.038,0,5.509-2.472,5.509-5.511v-3.257H263.928z"/>
	</g>
</g>
<g>
	<g>
		<rect x="361.403" y="226.028" fill="#282D33" width="4" height="2"/>
	</g>
	<g>
		<path fill="#282D33" d="M365.403,344.278h-4v-3.875h4V344.278z M365.403,332.653h-4v-3.875h4V332.653z M365.403,321.028h-4v-3.875
			h4V321.028z M365.403,309.403h-4v-3.875h4V309.403z M365.403,297.778h-4v-3.875h4V297.778z M365.403,286.153h-4v-3.875h4V286.153z
			 M365.403,274.528h-4v-3.875h4V274.528z M365.403,262.903h-4v-3.875h4V262.903z M365.403,251.278h-4v-3.875h4V251.278z
			 M365.403,239.653h-4v-3.875h4V239.653z"/>
	</g>
	<g>
		<rect x="361.403" y="352.028" fill="#282D33" width="4" height="2"/>
	</g>
</g>
<g>
	<rect x="396.403" y="274.028" fill="#282D33" width="4" height="94.476"/>
</g>
<g>
	<g>
		<path fill="#282D33" d="M478.73,118.616h-4v-10.231c-3.078-2.661-4.823-6.454-4.823-10.558V70.62h4v27.207
			c0,3.174,1.465,6.09,4.021,8l0.803,0.6V118.616z"/>
	</g>
	<g>
		<path fill="#282D33" d="M501.047,118.616h-4v-10.718l1.528-0.372c1.657-0.403,3.188-1.229,4.438-2.391l12.368-14.392v-9.122
			l-0.104-0.033l0.104-1.543v-6.438h-0.268c-2.658,0-4.82,2.16-4.82,4.816v9.223l-0.094,2.28l-3.998-0.081l-0.023-19.225l4-0.005
			v0.503c1.409-0.954,3.108-1.512,4.936-1.512h4.155l0.013,0.167l0.1,0.009l0.027,1.709l0.109,1.884l-0.137,0.016v5.301l0.066,0.021
			l-0.066,1.622v11.891l-13.544,15.745c-1.379,1.308-3.013,2.32-4.79,2.976V118.616z"/>
	</g>
	<g>
		<path fill="#282D33" d="M482.853,70.778h-4V54.581c0-1.363-1.11-2.473-2.476-2.473c-1.361,0-2.47,1.109-2.47,2.473v16.197h-4
			V54.581c0-3.569,2.902-6.473,6.47-6.473c3.571,0,6.476,2.903,6.476,6.473V70.778z"/>
	</g>
	<g>
		<path fill="#282D33" d="M491.954,70.778h-4v-25.91c0-1.363-1.11-2.473-2.475-2.473c-1.362,0-2.47,1.109-2.47,2.473v25.91h-4
			v-25.91c0-3.569,2.902-6.473,6.47-6.473c3.571,0,6.475,2.903,6.475,6.473V70.778z"/>
	</g>
	<g>
		<path fill="#282D33" d="M501.054,70.778h-4v-30.49c0-1.363-1.108-2.473-2.472-2.473c-1.364,0-2.475,1.109-2.475,2.473v30.49h-4
			v-30.49c0-3.569,2.904-6.473,6.475-6.473c3.568,0,6.472,2.903,6.472,6.473V70.778z"/>
	</g>
	<g>
		<path fill="#282D33" d="M510.156,70.778h-4v-22.75c0-1.363-1.111-2.473-2.477-2.473c-1.361,0-2.471,1.109-2.471,2.473v22.75h-4
			v-22.75c0-3.569,2.903-6.473,6.47-6.473c3.571,0,6.477,2.903,6.477,6.473V70.778z"/>
	</g>
</g>
<g>
	<rect x="561.166" y="206.6" fill="#282D33" width="109.572" height="4"/>
</g>
<g>
	<rect x="561.166" y="229.933" fill="#282D33" width="109.572" height="4"/>
</g>
<g>
	<rect x="613.952" y="200.479" fill="#282D33" width="4" height="168.024"/>
</g>
<g>
	<path fill="#5EB4E7" d="M659.001,368.504V234.04c0-8.772,9.478-15.883,21.174-15.883h92.919c11.694,0,21.17,7.11,21.17,15.883
		v134.464"/>
	<g>
		<g>
			<g>
				<path fill="#5EB4E7" d="M807.313,361.704h-15.952v-40h15.952c17.55,0,31.828-14.271,31.828-31.814
					c0-17.517-14.278-31.768-31.828-31.768h-63.168v-40h63.168c39.606,0,71.828,32.194,71.828,71.768
					C879.142,329.488,846.92,361.704,807.313,361.704z"/>
			</g>
		</g>
	</g>
	<g>
		<g>
			<g>
				<path fill="#282D33" d="M805.143,323.888h-14.171v-4h14.171c16.542,0,29.999-13.453,29.999-29.988
					c0-16.521-13.457-29.961-29.999-29.961h-38.997v-4h38.997c18.748,0,33.999,15.234,33.999,33.961
					C839.142,308.641,823.891,323.888,805.143,323.888z"/>
			</g>
		</g>
	</g>
	<g>
		<g>
			<path fill="#FFFFFF" d="M677.562,148.365v18.279c0,2.969,2.378,5.376,5.312,5.376c2.935,0,5.312-2.407,5.312-5.376v-18.279
				H677.562z"/>
			<path fill="#282D33" d="M682.874,174.021c-4.031,0-7.312-3.309-7.312-7.376v-20.279h14.624v20.279
				C690.187,170.712,686.906,174.021,682.874,174.021z M679.562,150.365v16.279c0,1.861,1.484,3.376,3.312,3.376
				c1.826,0,3.312-1.515,3.312-3.376v-16.279H679.562z"/>
		</g>
		<g>
			<path fill="#FFFFFF" d="M765.744,148.365v18.279c0,2.969,2.378,5.376,5.312,5.376s5.312-2.407,5.312-5.376v-18.279H765.744z"/>
			<path fill="#282D33" d="M771.056,174.021c-4.031,0-7.312-3.309-7.312-7.376v-20.279h14.624v20.279
				C778.368,170.712,775.088,174.021,771.056,174.021z M767.744,150.365v16.279c0,1.861,1.486,3.376,3.312,3.376
				s3.312-1.515,3.312-3.376v-16.279H767.744z"/>
		</g>
		<g>
			<polygon fill="#FFFFFF" points="753.965,233.44 753.965,219.75 699.241,219.75 699.241,233.44 726.603,249.429 			"/>
			<path fill="#282D33" d="M726.603,251.745l-29.361-17.157V217.75h58.724v16.838L726.603,251.745z M701.241,232.293l25.361,14.819
				l25.362-14.819V221.75h-50.724V232.293z"/>
		</g>
		<g>
			<polygon fill="#FFFFFF" points="742.808,226.922 726.603,236.393 710.396,226.922 710.396,191.106 726.603,191.106 
				742.808,191.106 			"/>
			<path fill="#282D33" d="M726.603,238.709l-18.206-10.64v-38.963h36.411v38.963L726.603,238.709z M712.396,225.774l14.206,8.302
				l14.205-8.302v-32.668h-28.411V225.774z"/>
		</g>
		<g>
			<path fill="#FFFFFF" d="M765.076,124.106c0-12.583-10.078-22.786-22.515-22.786H710.29c-12.434,0-22.515,10.203-22.515,22.786
				l-0.069,64.051l21.337,24.828h34.767l21.336-24.828L765.076,124.106z"/>
			<path fill="#282D33" d="M744.727,214.985h-36.602l-22.42-26.088l0.07-64.793c0-13.665,10.997-24.784,24.515-24.784h32.271
				c13.518,0,24.515,11.119,24.515,24.786l0.07,64.791L744.727,214.985z M709.961,210.985h32.931l20.253-23.568l-0.068-63.309
				c0-11.464-9.202-20.788-20.515-20.788H710.29c-11.312,0-20.515,9.324-20.515,20.786l-0.068,63.311L709.961,210.985z"/>
		</g>
		<g>
			<path fill="#5EB4E7" d="M726.354,171.482c-14.759,0-27.573,8.868-34.04,21.885l16.86,19.618h34.768l16.594-19.313
				C754.12,180.493,741.226,171.482,726.354,171.482z"/>
			<path fill="#282D33" d="M744.861,214.985h-36.604l-18.322-21.32l0.59-1.188c7.048-14.184,20.775-22.995,35.83-22.995
				c15.192,0,28.979,8.934,35.979,23.314l0.576,1.182L744.861,214.985z M710.093,210.985h32.932l15.122-17.603
				c-6.486-12.31-18.556-19.9-31.792-19.9c-13.108,0-25.118,7.479-31.643,19.604L710.093,210.985z"/>
		</g>
		<g>
			<path fill="#FFFFFF" d="M717.187,187.765c-0.035,0.323-0.058,0.649-0.058,0.98c0,4.875,3.902,8.821,8.716,8.821h1.16
				c4.815,0,8.717-3.946,8.717-8.821c0-0.331-0.02-0.657-0.055-0.98H717.187z"/>
			<path fill="#282D33" d="M727.005,199.566h-1.16c-5.908,0-10.716-4.854-10.716-10.821c0-0.404,0.027-0.802,0.068-1.196
				l0.195-1.784h22.068l0.195,1.784c0.041,0.395,0.065,0.792,0.065,1.196C737.722,194.712,732.914,199.566,727.005,199.566z
				 M719.205,189.765c0.485,3.279,3.278,5.802,6.64,5.802h1.16c3.362,0,6.155-2.522,6.642-5.802H719.205z"/>
		</g>
		<g>
			<g>
				<rect x="702.255" y="146.9" fill="#282D33" width="4.737" height="4"/>
			</g>
			<g>
				<rect x="742.001" y="146.9" fill="#282D33" width="4.737" height="4"/>
			</g>
		</g>
		<g>
			<polygon fill="#282D33" points="735.863,163.805 716.989,163.805 716.989,140.686 701.467,140.686 701.467,136.686 
				720.989,136.686 720.989,159.805 731.863,159.805 731.863,138.686 735.863,138.686 			"/>
		</g>
	</g>
	<g>
		<rect x="685.738" y="274.028" fill="#282D33" width="4" height="94.476"/>
	</g>
</g>
<path fill="#F8C44F" d="M58.486,118.567l-11.237,4.679l12.476,29.985l29.982-12.478l-4.84-11.643
	c-0.057-0.056-0.108-0.103-0.169-0.146c-0.005-0.005-0.011-0.011-0.023-0.016c-0.056-0.041-0.115-0.082-0.176-0.112
	c-0.004-0.005-0.01-0.007-0.014-0.008c-0.114-0.063-0.235-0.105-0.358-0.135c-0.024-0.006-0.043-0.014-0.062-0.019
	c-0.043-0.009-0.086-0.012-0.131-0.017c-0.047-0.005-0.094-0.013-0.142-0.013c-0.038-0.003-0.075-0.001-0.113,0.004
	c-0.056,0.001-0.115,0.007-0.173,0.017c-0.03,0.005-0.06,0.008-0.091,0.015c-0.087,0.019-0.178,0.045-0.265,0.08
	c-0.465,0.194-0.777,0.581-0.907,1.029c-0.412,1.536-1.505,2.872-3.089,3.533c-2.715,1.13-5.833-0.158-6.963-2.871
	c-1.128-2.715,0.158-5.833,2.872-6.963c1.584-0.658,3.302-0.494,4.684,0.298c0.408,0.222,0.908,0.275,1.369,0.084
	c0.086-0.038,0.165-0.084,0.241-0.132c0.027-0.018,0.053-0.036,0.076-0.055c0.046-0.035,0.092-0.073,0.137-0.108
	c0.027-0.029,0.054-0.054,0.079-0.081c0.032-0.035,0.063-0.072,0.093-0.11c0.023-0.033,0.053-0.067,0.079-0.103
	c0.013-0.017,0.019-0.036,0.029-0.057c0.069-0.108,0.119-0.223,0.156-0.35c0.002-0.006,0.005-0.011,0.006-0.016
	c0.021-0.065,0.034-0.135,0.046-0.203c0.001-0.011,0.003-0.021,0.004-0.03c0.011-0.071,0.013-0.143,0.016-0.215l-4.847-11.646
	l-11.243,4.679c-0.763,0.225-1.591-0.147-1.902-0.9c-0.193-0.462-0.143-0.956,0.079-1.365c0.792-1.383,0.96-3.103,0.3-4.688
	c-1.13-2.714-4.248-3.999-6.961-2.868c-2.717,1.129-4.004,4.246-2.874,6.96c0.661,1.587,1.997,2.676,3.535,3.092
	c0.444,0.128,0.834,0.444,1.026,0.908C59.507,117.337,59.186,118.184,58.486,118.567z"/>
<g>
	<g>
		<g>
			<rect x="759.279" y="279.255" fill="#282D33" width="4" height="6.734"/>
		</g>
		<g>
			
				<rect x="767.264" y="281.888" transform="matrix(0.8661 0.4999 -0.4999 0.8661 245.6303 -346.3669)" fill="#282D33" width="4.001" height="6.732"/>
		</g>
		<g>
			
				<rect x="772.866" y="288.16" transform="matrix(0.5001 0.8659 -0.8659 0.5001 639.7784 -525.2698)" fill="#282D33" width="3.999" height="6.733"/>
		</g>
		<g>
			<rect x="773.213" y="297.761" fill="#282D33" width="6.734" height="4"/>
		</g>
		<g>
			
				<rect x="770.581" y="305.746" transform="matrix(0.8659 0.5002 -0.5002 0.8659 257.7318 -345.8777)" fill="#282D33" width="6.735" height="4"/>
		</g>
		<g>
			
				<rect x="743.854" y="302.79" transform="matrix(0.4999 0.8661 -0.8661 0.4999 638.1403 -492.8604)" fill="#282D33" width="4.001" height="6.732"/>
		</g>
		<g>
			<rect x="740.772" y="295.925" fill="#282D33" width="6.734" height="4"/>
		</g>
		<g>
			
				<rect x="743.405" y="287.937" transform="matrix(0.8659 0.5001 -0.5001 0.8659 245.1123 -334.6184)" fill="#282D33" width="6.733" height="3.999"/>
		</g>
		<g>
			
				<rect x="749.676" y="282.336" transform="matrix(0.4997 0.8662 -0.8662 0.4997 623.0724 -510.0377)" fill="#282D33" width="6.735" height="4"/>
		</g>
	</g>
	<g>
		<path fill="#FFFFFF" d="M788.892,350.401h-13.528c-1.992,2.672-5.166,4.406-8.75,4.406h-7.305h-10.454h-0.537l-0.003-0.023h-4.352
			c-2.738,0-4.959-2.221-4.959-4.957c0-2.74,2.221-4.959,4.959-4.959h-3.968c-2.74,0-4.959-2.223-4.959-4.959
			c0-2.738,2.219-4.959,4.959-4.959h-1.322c-2.738,0-4.958-2.221-4.958-4.959c0-2.736,2.22-4.957,4.958-4.957h-2.644
			c-2.738,0-4.957-2.221-4.957-4.959s2.219-4.957,4.957-4.957h13.883c0.285,0,0.563,0.027,0.836,0.074h5.556l-1.745-6.164v-6.988
			c0-3.43,2.78-6.211,6.214-6.211h2.066c0.084,0,0.17,0.01,0.258,0.014v9.506l2.407,3.393l9.027,9.863
			c1.292,1.361,2.23,3.049,2.69,4.93h11.67"/>
		<path fill="#282D33" d="M766.613,356.808l-22.65-0.023c-3.837,0-6.959-3.121-6.959-6.957c0-1.193,0.302-2.318,0.834-3.301
			c-2.784-0.91-4.802-3.533-4.802-6.617c0-1.631,0.564-3.133,1.508-4.32c-1.716-1.269-2.829-3.306-2.829-5.598
			c0-1.378,0.403-2.664,1.098-3.746c-2.222-1.163-3.74-3.492-3.74-6.17c0-3.836,3.12-6.957,6.957-6.957h13.883
			c0.329,0,0.655,0.024,0.994,0.074h2.753l-1.101-3.887v-7.266c0-4.527,3.685-8.211,8.214-8.211h2.066
			c0.098,0,0.197,0.005,0.299,0.013l1.858,0.131l0.101,1.87v8.868l1.966,2.771l8.945,9.771c1.162,1.225,2.077,2.688,2.683,4.28
			h10.201v4h-13.24l-0.372-1.525c-0.368-1.507-1.128-2.899-2.199-4.028l-9.207-10.082l-2.776-3.912v-8.157h-0.324
			c-2.323,0-4.214,1.889-4.214,4.211v6.711l2.389,8.441l-8.538-0.029c-0.179-0.03-0.339-0.045-0.497-0.045h-13.883
			c-1.633,0-2.957,1.326-2.957,2.957c0,1.632,1.324,2.959,2.957,2.959h2.644v4c-1.631,0-2.958,1.326-2.958,2.957
			c0,1.632,1.327,2.959,2.958,2.959h1.322v4c-1.632,0-2.959,1.327-2.959,2.959s1.327,2.959,2.959,2.959h3.968v4
			c-1.633,0-2.959,1.327-2.959,2.959c0,1.631,1.326,2.957,2.959,2.957l22.65,0.023c2.834,0,5.44-1.312,7.147-3.603l0.601-0.804
			h14.53v4h-12.573C773.861,355.214,770.377,356.808,766.613,356.808z"/>
	</g>
</g>
<g>
	<g>
		<g>
			<rect x="817.173" y="179.117" fill="#282D33" width="18.04" height="4"/>
		</g>
		<g>
			<rect x="838.648" y="179.117" fill="#282D33" width="6.014" height="4"/>
		</g>
	</g>
	<g>
		<rect x="833.432" y="170.068" fill="#282D33" width="27.633" height="4"/>
	</g>
</g>
<g>
	<polygon fill="#F8C44F" points="691.917,48.832 695.222,55.525 702.609,56.6 697.264,61.811 698.525,69.17 691.917,65.695 
		685.311,69.17 686.572,61.811 681.225,56.6 688.613,55.525 	"/>
	<path fill="#F8C44F" d="M682.656,72.826l1.767-10.317l-7.497-7.306l10.359-1.506l4.632-9.384l4.633,9.384l10.357,1.506
		l-7.495,7.306l1.77,10.317l-9.265-4.871L682.656,72.826z M691.917,63.436l3.952,2.078l-0.754-4.401l3.195-3.116l-4.417-0.643
		l-1.977-4.003l-1.976,4.003l-4.419,0.643l3.197,3.116l-0.755,4.401L691.917,63.436z"/>
</g>
<g>
	<g>
		<g>
			<rect x="208.337" y="53.339" fill="#282D33" width="21.849" height="4"/>
		</g>
		<g>
			<rect x="216.66" y="45.291" fill="#282D33" width="21.848" height="4"/>
		</g>
		<g>
			<rect x="205.218" y="45.291" fill="#282D33" width="7.28" height="4"/>
		</g>
		<g>
			<rect x="196.894" y="53.339" fill="#282D33" width="7.282" height="4"/>
		</g>
	</g>
</g>
<g>
	<g>
		<g>
			<rect x="885.188" y="134.743" fill="#282D33" width="19.848" height="4"/>
		</g>
		<g>
			<rect x="871.746" y="134.743" fill="#282D33" width="7.283" height="4"/>
		</g>
	</g>
	<g>
		<g>
			<rect x="885.188" y="122.367" fill="#282D33" width="19.848" height="4"/>
		</g>
		<g>
			<rect x="871.746" y="122.367" fill="#282D33" width="7.283" height="4"/>
		</g>
	</g>
</g>
<g>
	<path fill="#282D33" d="M912.881,269.364c-2.818,0-4.088-2.339-5.013-4.046c-0.474-0.871-1.06-1.954-1.497-1.954
		s-1.025,1.083-1.497,1.954c-0.927,1.707-2.194,4.046-5.011,4.046c-2.82,0-4.09-2.339-5.018-4.047
		c-0.496-0.915-1.06-1.953-1.498-1.953c-0.436,0-1.022,1.083-1.495,1.953c-0.927,1.708-2.194,4.047-5.012,4.047
		c-2.819,0-4.089-2.339-5.016-4.046c-0.497-0.916-1.062-1.954-1.499-1.954c-0.439,0-1.004,1.038-1.501,1.954
		c-0.929,1.708-2.198,4.046-5.018,4.046s-4.09-2.338-5.018-4.045c-0.497-0.917-1.062-1.955-1.502-1.955v-4
		c2.819,0,4.089,2.338,5.018,4.045c0.497,0.917,1.062,1.955,1.502,1.955s1.005-1.039,1.502-1.955
		c0.929-1.707,2.197-4.045,5.017-4.045c2.818,0,4.088,2.338,5.015,4.046c0.497,0.916,1.061,1.954,1.5,1.954
		c0.437,0,1.022-1.083,1.496-1.953c0.925-1.708,2.194-4.047,5.011-4.047c2.818,0,4.088,2.338,5.016,4.045
		c0.496,0.917,1.06,1.955,1.5,1.955c0.436,0,1.022-1.083,1.495-1.953c0.926-1.708,2.194-4.047,5.013-4.047
		c2.817,0,4.087,2.339,5.013,4.046c0.473,0.871,1.06,1.954,1.497,1.954V269.364z"/>
</g>
<g>
	<path fill="#F8C44F" d="M453.894,43.216c0,1.018-0.824,1.842-1.843,1.842h-3.57v6.914l-8.747-6.914h-11.646
		c-1.02,0-1.844-0.824-1.844-1.842V27.108c0-1.018,0.824-1.846,1.844-1.846h23.963c1.019,0,1.843,0.828,1.843,1.846V43.216z"/>
</g>
<g>
	<g>
		<path fill="#282D33" d="M414.323,66.436v-9.043h-1.57c-2.119,0-3.842-1.724-3.842-3.843V37.442c0-2.12,1.723-3.845,3.842-3.845
			h23.964c2.119,0,3.843,1.725,3.843,3.845V53.55c0,2.119-1.724,3.843-3.843,3.843h-10.95L414.323,66.436z M412.911,53.393h5.412
			v4.783l6.053-4.783h12.184V37.598h-23.648V53.393z"/>
	</g>
</g>
<g>
	<g>
		<path fill="#282D33" d="M797.376,87.039c-3.936,0-7.137-3.201-7.137-7.136s3.201-7.135,7.137-7.135c3.935,0,7.134,3.2,7.134,7.135
			S801.311,87.039,797.376,87.039z M797.376,76.769c-1.729,0-3.137,1.406-3.137,3.135c0,1.729,1.407,3.136,3.137,3.136
			c1.729,0,3.134-1.406,3.134-3.136C800.51,78.175,799.104,76.769,797.376,76.769z"/>
	</g>
	<g>
		<g>
			<path fill="#282D33" d="M825.802,71.784c-3.934,0-7.134-3.2-7.134-7.135s3.2-7.135,7.134-7.135c3.935,0,7.136,3.2,7.136,7.135
				S829.736,71.784,825.802,71.784z M825.802,61.515c-1.728,0-3.134,1.406-3.134,3.135s1.406,3.135,3.134,3.135
				c1.729,0,3.136-1.406,3.136-3.135S827.531,61.515,825.802,61.515z"/>
		</g>
		<g>
			<path fill="#282D33" d="M825.802,102.296c-3.934,0-7.134-3.201-7.134-7.137c0-3.933,3.2-7.133,7.134-7.133
				c3.935,0,7.136,3.2,7.136,7.133C832.938,99.095,829.736,102.296,825.802,102.296z M825.802,92.026
				c-1.728,0-3.134,1.405-3.134,3.133c0,1.729,1.406,3.137,3.134,3.137c1.729,0,3.136-1.407,3.136-3.137
				C828.938,93.432,827.531,92.026,825.802,92.026z"/>
		</g>
	</g>
	<g>
		<g>
			
				<rect x="800.878" y="85.184" transform="matrix(0.866 0.5001 -0.5001 0.866 152.3304 -394.0634)" fill="#282D33" width="21.05" height="4.001"/>
		</g>
		<g>
			
				<rect x="809.403" y="62.096" transform="matrix(0.4999 0.8661 -0.8661 0.4999 468.6621 -666.4164)" fill="#282D33" width="4.001" height="21.05"/>
		</g>
	</g>
</g>
<path fill="#5EB4E7" d="M295.554,77.008h-2.311c-0.537,0-1.114-0.414-1.28-0.923l-0.432-1.043c-0.238-0.479-0.125-1.182,0.25-1.56
	l1.632-1.633c0.382-0.376,0.382-0.997,0-1.374l-2.519-2.527c-0.381-0.377-1-0.377-1.378,0l-1.633,1.632
	c-0.382,0.38-1.081,0.494-1.558,0.257l-1.044-0.432c-0.509-0.17-0.923-0.747-0.923-1.283v-2.308c0-0.536-0.438-0.976-0.975-0.976
	h-3.569c-0.538,0-0.976,0.439-0.976,0.976v2.308c0,0.536-0.414,1.113-0.922,1.283l-1.045,0.432
	c-0.476,0.237-1.181,0.123-1.558-0.257l-1.631-1.632c-0.379-0.377-0.997-0.377-1.375,0l-2.524,2.527
	c-0.382,0.377-0.382,0.998,0,1.374l1.633,1.633c0.374,0.378,0.489,1.08,0.251,1.56l-0.429,1.043
	c-0.17,0.509-0.748,0.923-1.281,0.923h-2.312c-0.534,0-0.974,0.438-0.974,0.975v3.571c0,0.531,0.44,0.971,0.974,0.971h2.312
	c0.533,0,1.111,0.414,1.281,0.922l0.429,1.045c0.238,0.48,0.123,1.182-0.251,1.56l-1.633,1.632c-0.382,0.377-0.382,0.998,0,1.375
	l2.524,2.527c0.378,0.375,0.996,0.375,1.375,0l1.631-1.633c0.377-0.379,1.082-0.494,1.558-0.254l1.045,0.43
	c0.508,0.173,0.922,0.746,0.922,1.283v2.309c0,0.535,0.438,0.973,0.976,0.973h3.569c0.536,0,0.975-0.438,0.975-0.973v-2.309
	c0-0.537,0.414-1.11,0.923-1.283l1.044-0.43c0.477-0.24,1.176-0.125,1.558,0.254l1.633,1.633c0.378,0.375,0.997,0.375,1.378,0
	l2.519-2.527c0.382-0.377,0.382-0.998,0-1.375l-1.632-1.632c-0.375-0.378-0.488-1.079-0.25-1.56l0.432-1.045
	c0.167-0.508,0.743-0.922,1.28-0.922h2.311c0.535,0,0.972-0.439,0.972-0.971v-3.571C296.525,77.446,296.089,77.008,295.554,77.008z
	 M281.598,84.472c-2.597,0-4.703-2.109-4.703-4.706c0-2.599,2.106-4.704,4.703-4.704c2.599,0,4.707,2.105,4.707,4.704
	C286.305,82.362,284.197,84.472,281.598,84.472z"/>
<g>
	<g>
		<path fill="#282D33" d="M919.74,132.221c-1.689,0-2.915-1.334-2.915-3.173V113.55c0-1.841,1.226-3.178,2.915-3.178
			c0.584,0,1.167,0.166,1.731,0.492l13.422,7.753c1.066,0.612,1.68,1.589,1.681,2.677c0.002,1.089-0.611,2.068-1.68,2.687
			l-13.423,7.75C920.906,132.056,920.324,132.221,919.74,132.221z M920.825,115.109v12.375l10.715-6.186L920.825,115.109z"/>
	</g>
</g>
<g>
	<g>
		<g>
			<rect x="111.546" y="193.021" fill="#282D33" width="29.157" height="4"/>
		</g>
		<g>
			<rect x="146.255" y="193.021" fill="#282D33" width="9.719" height="4"/>
		</g>
	</g>
	<g>
		<rect x="161.056" y="193.021" fill="#282D33" width="5.076" height="4"/>
	</g>
</g>
<g>
	<g>
		<rect x="342.744" y="25.029" fill="#282D33" width="5.768" height="4"/>
	</g>
	<g>
		
			<rect x="338.659" y="16.218" transform="matrix(0.8661 0.4999 -0.4999 0.8661 55.1731 -167.744)" fill="#282D33" width="4.001" height="5.766"/>
	</g>
	<g>
		
			<rect x="328.426" y="17.441" transform="matrix(0.4999 0.8661 -0.8661 0.4999 182.541 -277.2271)" fill="#282D33" width="5.767" height="4.001"/>
	</g>
	<g>
		<rect x="324.044" y="25.709" fill="#282D33" width="5.769" height="4"/>
	</g>
	<g>
		
			<rect x="329.896" y="32.752" transform="matrix(0.8661 0.4999 -0.4999 0.8661 62.2653 -161.149)" fill="#282D33" width="4.001" height="5.767"/>
	</g>
	<g>
		
			<rect x="338.362" y="33.297" transform="matrix(0.5 0.866 -0.866 0.5 201.2013 -277.8839)" fill="#282D33" width="5.769" height="4.001"/>
	</g>
</g>
<g>
	<g>
		<rect x="899.122" y="197.349" fill="#282D33" width="4" height="6.317"/>
	</g>
	<g>
		
			<rect x="890.402" y="202.874" transform="matrix(0.8659 0.5001 -0.5001 0.8659 222.2566 -419.4456)" fill="#282D33" width="6.317" height="3.999"/>
	</g>
	<g>
		
			<rect x="891.56" y="210.448" transform="matrix(0.4999 0.8661 -0.8661 0.4999 631.8503 -667.0668)" fill="#282D33" width="4.001" height="6.316"/>
	</g>
	<g>
		<rect x="899.122" y="214.813" fill="#282D33" width="4" height="6.316"/>
	</g>
	<g>
		
			<rect x="905.526" y="211.606" transform="matrix(0.866 0.5 -0.5 0.866 228.5168 -425.6957)" fill="#282D33" width="6.317" height="4.001"/>
	</g>
	<g>
		
			<rect x="906.684" y="201.715" transform="matrix(0.4999 0.8661 -0.8661 0.4999 631.8505 -684.5328)" fill="#282D33" width="4.001" height="6.317"/>
	</g>
</g>
<g>
	<path fill="#F8C44F" d="M955.164,223.551c-2.115,0.028-3.951,1.214-4.949,2.968c-1.046-1.729-2.909-2.871-5.026-2.848
		c-3.219,0.013-5.792,2.873-5.745,6.391c0.007,0.684,0.117,1.334,0.31,1.93c0.451,1.983,3.716,4.88,6.735,7.228
		c1.464,1.133,3.933,2.815,3.933,2.825c1.044-0.662,2.425-1.727,3.854-2.904c2.951-2.417,6.132-5.412,6.533-7.41
		c0.18-0.603,0.271-1.256,0.264-1.939C961.029,226.267,958.381,223.483,955.164,223.551z"/>
	<path fill="#F8C44F" d="M948.421,245.681v-2.594c-0.87-0.607-2.204-1.549-3.157-2.286c-5.862-4.56-7.082-6.822-7.439-8.275
		c-0.244-0.784-0.372-1.605-0.381-2.444c-0.031-2.305,0.846-4.54,2.404-6.127c1.44-1.464,3.334-2.275,5.332-2.283h0.002
		c1.881,0,3.622,0.641,5,1.782c1.371-1.184,3.122-1.878,4.956-1.902l0.142-0.001c4.241,0,7.736,3.686,7.793,8.216
		c0.01,0.841-0.099,1.665-0.322,2.451c-0.303,1.373-1.433,3.74-7.207,8.47c-1.669,1.375-3.033,2.4-4.051,3.046L948.421,245.681z
		 M945.252,225.671c-0.979,0.004-1.865,0.39-2.551,1.087c-0.816,0.831-1.275,2.025-1.258,3.277c0.004,0.469,0.076,0.918,0.213,1.342
		l0.047,0.171c0.065,0.287,0.662,1.932,6.012,6.092c0.787,0.609,1.891,1.394,2.715,1.972c0.728-0.53,1.598-1.211,2.574-2.016
		c5.225-4.279,5.784-5.966,5.844-6.26l0.044-0.175c0.125-0.424,0.185-0.877,0.181-1.346c-0.029-2.353-1.731-4.266-3.793-4.266
		c-1.429,0.019-2.639,0.75-3.326,1.958l-1.686,2.962l-1.764-2.916C947.79,226.375,946.574,225.671,945.252,225.671z"/>
</g>
<g>
	<g>
		<rect x="96.788" y="297.674" fill="#282D33" width="19.384" height="4"/>
	</g>
	<g>
		<rect x="86.638" y="297.674" fill="#282D33" width="6.46" height="4"/>
	</g>
</g>
<g>
	<g>
		<rect x="35.081" y="286.666" fill="#282D33" width="2" height="4"/>
	</g>
	<g>
		<path fill="#282D33" d="M91.215,290.666h-3.867v-4h3.867V290.666z M83.481,290.666h-3.866v-4h3.866V290.666z M75.748,290.666
			h-3.867v-4h3.867V290.666z M68.014,290.666h-3.866v-4h3.866V290.666z M60.281,290.666h-3.867v-4h3.867V290.666z M52.547,290.666
			h-3.866v-4h3.866V290.666z M44.814,290.666h-3.867v-4h3.867V290.666z"/>
	</g>
	<g>
		<rect x="95.081" y="286.666" fill="#282D33" width="2" height="4"/>
	</g>
</g>
<polygon fill="#5EB4E7" points="176.272,334.512 166.513,340.148 156.751,345.783 156.751,334.512 156.751,323.241 166.513,328.875 
	"/>
<rect x="129.236" y="307.115" fill="#F8C44F" width="17.809" height="17.809"/>
<g>
	<g>
		<rect x="165.501" y="310.703" fill="#282D33" width="4" height="4"/>
	</g>
	<g>
		<path fill="#282D33" d="M160.818,314.703h-4.683v-4h4.683V314.703z M151.452,314.703h-4.683v-4h4.683V314.703z"/>
	</g>
	<g>
		<rect x="138.088" y="310.703" fill="#282D33" width="4" height="4"/>
	</g>
	<g>
		<path fill="#282D33" d="M142.088,306.021h-4v-4.683h4V306.021z M142.088,296.655h-4v-4.684h4V296.655z"/>
	</g>
	<g>
		<rect x="138.088" y="283.289" fill="#282D33" width="4" height="4"/>
	</g>
	<g>
		<path fill="#282D33" d="M160.818,287.289h-4.684v-4h4.684V287.289z M151.452,287.289h-4.683v-4h4.683V287.289z"/>
	</g>
	<g>
		<rect x="165.501" y="283.289" fill="#282D33" width="4" height="4"/>
	</g>
	<g>
		<path fill="#282D33" d="M169.501,306.021h-4v-4.684h4V306.021z M169.501,296.654h-4v-4.683h4V296.654z"/>
	</g>
</g>
<circle fill="#F8C44F" cx="225.748" cy="97.523" r="3.75"/>
<g>
	<g>
		
			<rect x="741.654" y="-1.242" transform="matrix(0.7071 0.7071 -0.7071 0.7071 221.3421 -524.3797)" fill="#282D33" width="4" height="12.472"/>
	</g>
	<g>
		
			<rect x="737.418" y="2.993" transform="matrix(0.7071 0.7071 -0.7071 0.7071 221.3417 -524.3798)" fill="#282D33" width="12.471" height="4"/>
	</g>
</g>
<g>
	<g>
		
			<rect x="109.843" y="227.69" transform="matrix(0.7072 0.707 -0.707 0.7072 198.1263 -10.5844)" fill="#282D33" width="4" height="12.471"/>
	</g>
	<g>
		
			<rect x="105.607" y="231.925" transform="matrix(0.7072 0.707 -0.707 0.7072 198.1478 -10.5768)" fill="#282D33" width="12.471" height="4"/>
	</g>
</g>
<g>
	<g>
		
			<rect x="600.233" y="9.012" transform="matrix(0.7071 0.7071 -0.7071 0.7071 186.683 -421.5794)" fill="#282D33" width="4" height="11.089"/>
	</g>
	<g>
		
			<rect x="596.689" y="12.556" transform="matrix(0.7072 0.7071 -0.7071 0.7072 186.6552 -421.5539)" fill="#282D33" width="11.088" height="4"/>
	</g>
</g>
<g>
	<rect x="756.374" y="40.474" fill="#282D33" width="4.058" height="4"/>
</g>
<g>
	<rect x="81.753" y="256.016" fill="#282D33" width="4.058" height="4"/>
</g>
<g>
	<g>
		<line fill="#FFFFFF" x1="808.643" y1="21.477" x2="798.143" y2="31.979"/>
		
			<rect x="801.393" y="19.302" transform="matrix(0.7071 0.7071 -0.7071 0.7071 254.208 -560.2562)" fill="#282D33" width="4" height="14.852"/>
	</g>
	<g>
		<line fill="#FFFFFF" x1="808.646" y1="31.979" x2="798.143" y2="21.477"/>
		
			<rect x="795.967" y="24.728" transform="matrix(0.7071 0.7071 -0.7071 0.7071 254.2354 -560.2821)" fill="#282D33" width="14.853" height="4"/>
	</g>
</g>
<g>
	<g>
		<path fill="#282D33" d="M926.211,334.911c-2.589,0-4.444-1.318-4.843-3.442c-0.629-3.364,2.803-6.954,6.352-8.623
			c1.572-0.741,3.155-1.133,4.577-1.133c2.589,0,4.445,1.317,4.846,3.438c0.625,3.369-2.808,6.958-6.354,8.627
			C929.215,334.52,927.633,334.911,926.211,334.911z M932.297,325.713c-0.824,0-1.845,0.267-2.873,0.752
			c-2.807,1.32-4.265,3.514-4.124,4.268c0.036,0.037,0.313,0.179,0.911,0.179c0.824,0,1.845-0.267,2.874-0.752
			c2.806-1.32,4.266-3.517,4.124-4.272C933.176,325.855,932.898,325.713,932.297,325.713z"/>
	</g>
	<g>
		<polygon fill="#282D33" points="937.215,325.513 933.215,325.513 933.215,290.73 945.967,295.748 945.967,305.086 
			941.967,305.086 941.967,298.473 937.215,296.604 		"/>
	</g>
	<g>
		<rect x="905.367" y="291.255" fill="#282D33" width="22.594" height="4"/>
	</g>
	<g>
		<rect x="905.367" y="312.634" fill="#282D33" width="20.875" height="4"/>
	</g>
	<g>
		<rect x="905.367" y="323.326" fill="#282D33" width="11.115" height="4"/>
	</g>
	<g>
		<rect x="905.367" y="301.946" fill="#282D33" width="22.594" height="4"/>
	</g>
</g>
<rect x="266.071" y="311.028" transform="matrix(0.7071 0.7071 -0.7071 0.7071 305.8518 -100.3575)" fill="#F8C44F" width="16.001" height="16.001"/>
<g>
	<path fill="#282D33" d="M286.738,333.171l-14.144-14.143l14.144-14.143l14.141,14.143L286.738,333.171z M278.251,319.028
		l8.487,8.486l8.484-8.486l-8.484-8.486L278.251,319.028z"/>
</g>
<g>
	<path fill="#282D33" d="M262.072,333.171l-14.146-14.143l14.146-14.143l14.14,14.143L262.072,333.171z M253.584,319.028
		l8.488,8.486l8.484-8.486l-8.484-8.486L253.584,319.028z"/>
</g>
</svg>
