<?xml version="1.0" encoding="utf-8"?>
<!-- Generator: Adobe Illustrator 25.3.1, SVG Export Plug-In . SVG Version: 6.00 Build 0)  -->
<svg version="1.1" id="close" xmlns="http://www.w3.org/2000/svg" xmlns:xlink="http://www.w3.org/1999/xlink" x="0px" y="0px"
	 viewBox="0 0 32 32" style="enable-background:new 0 0 32 32;" xml:space="preserve">
<style type="text/css">
	.st0{fill:#FFFFFF;}
</style>
<g>
	<rect x="0" y="13.3" class="st0" width="16.7" height="16.7"/>
	<path class="st0" d="M14.1,2h3.7c5.1,0,9.2,4.1,9.2,9.2v4.2l1.8-1.8c0.7-0.7,1.9-0.7,2.7,0c0.7,0.8,0.6,1.9,0,2.6l-4.9,4.9
		c-0.3,0.3-0.8,0.5-1.3,0.5c-0.4,0-0.9-0.2-1.3-0.5l-4.9-4.9c-0.7-0.7-0.7-1.9,0-2.6c0.7-0.7,1.9-0.7,2.7,0l1.6,1.7v-4.1
		c0-3.1-2.5-5.6-5.6-5.6h-3.7c-1,0-1.8-0.8-1.8-1.8C12.3,2.9,13.2,2,14.1,2z"/>
</g>
</svg>
