<?xml version="1.0" encoding="utf-8"?>
<!-- Generator: Adobe Illustrator 25.3.1, SVG Export Plug-In . SVG Version: 6.00 Build 0)  -->
<svg version="1.1" id="close" xmlns="http://www.w3.org/2000/svg" xmlns:xlink="http://www.w3.org/1999/xlink" x="0px" y="0px"
	 viewBox="0 0 32 32" style="enable-background:new 0 0 32 32;" xml:space="preserve">
<style type="text/css">
	.st0{fill:#FFFFFF;}
</style>
<g>
	<rect x="15.3" y="13.3" class="st0" width="16.7" height="16.7"/>
	<path class="st0" d="M17.9,2h-3.7C9.1,2,5,6.2,5,11.2v4.2l-1.8-1.8c-0.7-0.7-1.9-0.7-2.7,0c-0.7,0.8-0.6,1.9,0,2.6l4.9,4.9
		c0.3,0.3,0.8,0.5,1.3,0.5c0.4,0,0.9-0.2,1.3-0.5l4.9-4.9c0.7-0.7,0.7-1.9,0-2.6c-0.7-0.7-1.9-0.7-2.7,0l-1.6,1.7v-4.1
		c0-3.1,2.5-5.6,5.6-5.6h3.7c1,0,1.8-0.8,1.8-1.8C19.7,2.9,18.8,2,17.9,2z"/>
</g>
</svg>
