<?xml version="1.0" encoding="utf-8"?>
<!-- Generator: Adobe Illustrator 25.3.1, SVG Export Plug-In . SVG Version: 6.00 Build 0)  -->
<svg version="1.1" id="close" xmlns="http://www.w3.org/2000/svg" xmlns:xlink="http://www.w3.org/1999/xlink" x="0px" y="0px"
	 viewBox="0 0 32 32" style="enable-background:new 0 0 32 32;" xml:space="preserve">
<style type="text/css">
	.st0{fill:#FFFFFF;}
</style>
<path class="st0" d="M15.5,0.5c0.6,0.6,0.6,1.6,0,2.3l-2.1,2.1H16c7.4,0,13.6,6.2,13.6,13.6C29.6,25.8,23.4,32,16,32
	C8.6,32,2.4,25.8,2.4,18.4c0-0.9,0.7-1.6,1.6-1.6s1.6,0.7,1.6,1.6c0,5.7,4.7,10.4,10.4,10.4c5.7,0,10.4-4.7,10.4-10.4
	C26.4,12.7,21.7,8,16,8h-2.5l2.1,2.1c0.6,0.6,0.6,1.6,0,2.3c-0.6,0.6-1.6,0.6-2.3,0L8.5,7.5c-0.6-0.6-0.6-1.6,0-2.3l4.8-4.8
	C13.9-0.2,14.9-0.2,15.5,0.5z"/>
</svg>
