<?xml version="1.0" encoding="utf-8"?>
<!-- Generator: Adobe Illustrator 25.3.1, SVG Export Plug-In . SVG Version: 6.00 Build 0)  -->
<svg version="1.1" id="close" xmlns="http://www.w3.org/2000/svg" xmlns:xlink="http://www.w3.org/1999/xlink" x="0px" y="0px"
	 viewBox="0 0 32 32" style="enable-background:new 0 0 32 32;" xml:space="preserve">
<g>
	<path d="M4.2,27.2v-7.3H0v11.3C0,31.7,0.3,32,0.8,32h11.3v-4.2H4.8C4.5,27.8,4.2,27.5,4.2,27.2z"/>
	<path d="M31.2,0H19.9v4.2h7.3c0.3,0,0.6,0.3,0.6,0.6v7.3H32V0.8C32,0.3,31.7,0,31.2,0z"/>
	<path d="M0,0.8v11.3h4.2V4.8c0-0.3,0.3-0.6,0.6-0.6h7.3V0H0.8C0.3,0,0,0.3,0,0.8z"/>
	<path d="M27.8,27.2c0,0.3-0.3,0.6-0.6,0.6h-7.3V32h11.3c0.4,0,0.8-0.3,0.8-0.8V19.9h-4.2C27.8,19.9,27.8,27.2,27.8,27.2z"/>
</g>
</svg>
