<?xml version="1.0" encoding="utf-8"?>
<!-- Generator: Adobe Illustrator 25.3.1, SVG Export Plug-In . SVG Version: 6.00 Build 0)  -->
<svg version="1.1" id="close" xmlns="http://www.w3.org/2000/svg" xmlns:xlink="http://www.w3.org/1999/xlink" x="0px" y="0px"
	 viewBox="0 0 32 32" style="enable-background:new 0 0 32 32;" xml:space="preserve">
<path d="M18.7,0.5l4.8,4.8c0.6,0.6,0.6,1.6,0,2.3l-4.8,4.8c-0.6,0.6-1.6,0.6-2.3,0c-0.6-0.6-0.6-1.6,0-2.3L18.5,8H16
	C10.3,8,5.6,12.7,5.6,18.4c0,5.7,4.7,10.4,10.4,10.4c5.7,0,10.4-4.7,10.4-10.4c0-0.9,0.7-1.6,1.6-1.6s1.6,0.7,1.6,1.6
	C29.6,25.8,23.4,32,16,32C8.6,32,2.4,25.8,2.4,18.4C2.4,11,8.6,4.8,16,4.8h2.5l-2.1-2.1c-0.6-0.6-0.6-1.6,0-2.3
	C17.1-0.2,18.1-0.2,18.7,0.5z"/>
</svg>
