<?xml version="1.0" encoding="utf-8"?>
<!-- Generator: Adobe Illustrator 25.3.1, SVG Export Plug-In . SVG Version: 6.00 Build 0)  -->
<svg version="1.1" id="圖層_2_1_" xmlns="http://www.w3.org/2000/svg" xmlns:xlink="http://www.w3.org/1999/xlink" x="0px"
	 y="0px" viewBox="0 0 640 280" style="enable-background:new 0 0 640 280;" xml:space="preserve">
<style type="text/css">
	.st0{clip-path:url(#SVGID_2_);}
	.st1{fill:#EC705F;}
	.st2{fill:#312837;}
	.st3{fill:#E6DDD6;}
	.st4{fill:#E6A889;}
	.st5{fill:#9D585D;}
	.st6{fill:#D4C2CC;}
	.st7{fill:#CE8957;}
	.st8{fill:#BD524E;}
	.st9{fill:none;stroke:#BCA3BC;stroke-width:0.9266;stroke-miterlimit:10;}
	.st10{fill:#71C3E7;}
	.st11{fill:#69606F;}
	.st12{fill:#564D58;}
	.st13{fill:#5D92B1;}
	.st14{fill:#BD4D49;}
	.st15{opacity:0.3;fill:#9D585D;enable-background:new    ;}
	.st16{opacity:0.3;fill:none;stroke:#9D585D;stroke-width:0.8339;stroke-miterlimit:10;enable-background:new    ;}
	.st17{fill:#FBE7DE;}
	.st18{fill:#E06858;}
	.st19{fill:#A63243;}
	.st20{fill:#645A6A;}
	.st21{opacity:0.4;fill:#805252;enable-background:new    ;}
	.st22{fill:#A35A5F;}
	.st23{fill:#6B6170;}
	.st24{fill:#332938;}
	.st25{fill:#72CDF5;}
	.st26{fill:#EEAD8D;}
	.st27{fill:#F3ECF1;}
	.st28{fill:#FFFFFF;}
	.st29{fill:#C74E4A;}
	.st30{fill:#FFC1A3;}
	.st31{opacity:0.45;fill:#F97C07;enable-background:new    ;}
	.st32{fill:#F16C59;}
	.st33{fill:#ED6B5A;}
	.st34{fill:#665B6B;}
	.st35{fill:#FFE9E0;}
	.st36{fill:#0E7DB5;}
	.st37{fill:#FF7361;}
	.st38{fill:#E8DFD8;}
	.st39{fill:#BE645D;}
	.st40{fill:#C1A6C1;}
	.st41{fill:#484053;}
	.st42{fill:#2C2334;}
	.st43{clip-path:url(#SVGID_4_);}
	.st44{fill:#283753;}
	.st45{fill:#39567F;}
	.st46{fill:#E20514;}
	.st47{fill:#152946;}
	.st48{fill:#EE8779;}
	.st49{fill:#1B304B;}
	.st50{fill:#EB6F63;}
	.st51{fill:#E55452;}
	.st52{fill:none;stroke:#39567F;stroke-width:1.25;stroke-linecap:round;stroke-miterlimit:10;}
	.st53{fill:#FFFFFF;stroke:#374A6F;stroke-miterlimit:10;}
	.st54{fill:#374A6F;}
	.st55{fill:#D7E7E5;}
</style>
<g>
	<defs>
		<rect id="SVGID_1_" x="-0.6" y="44.4" width="630.4" height="190.9"/>
	</defs>
	<clipPath id="SVGID_2_">
		<use xlink:href="#SVGID_1_"  style="overflow:visible;"/>
	</clipPath>
	<g class="st0">
		<g>
			<g>
				<g>
					<g>
						<g>
							<path class="st1" d="M176.1,216.6c0,0,1.6,14.6-0.2,14c-1.8-0.4-3.3-13.4-3.3-13.4L176.1,216.6z"/>
						</g>
						<g>
							<path class="st1" d="M167.4,216c0,0,3.7,14.1,1.9,13.9c-1.9-0.2-5.4-12.7-5.4-12.7L167.4,216z"/>
						</g>
						<g>
							<path class="st1" d="M164.3,217.5c-1.4-3.2,0.3-6.8,3.5-8.3c3.1-1.5,6.9-0.1,8.3,3.1s0.1,7.1-3.1,8.7
								C169.8,222.6,165.7,220.7,164.3,217.5z"/>
						</g>
						<g>
							<path class="st1" d="M172.7,217.5c0,0,1.7,14.9-0.3,14.6c-1.9-0.3-3.7-13.5-3.7-13.5L172.7,217.5z"/>
						</g>
						<g>
							<path class="st1" d="M174.6,210.4c0,0,1.4,1.5,3,4.7c1.5,3.1,2.6,7.9,1.8,8.6c-0.8,0.8-7-9.4-7-9.4L174.6,210.4z"/>
						</g>
						<g>
							<g>
								<path class="st2" d="M168.7,215.4c0.1,0.2,0.3,1.5,1.5,2.9c1.3,1.3,3.7,0.6,4.4,0.3l1.9,2.7l0.5-0.4l-2.3-3.1l-0.3,0.1
									c-0.1,0-2.8,1.1-4-0.2c-1.3-1.3-1.4-2.6-1.4-2.6L168.7,215.4C168.7,215.2,168.7,215.2,168.7,215.4z"/>
							</g>
						</g>
						<g>
							<g>
								<path class="st2" d="M168.6,221.3c0.1,0,1.2,0.2,2.6,0.2c0.9,0,2.6-0.4,2.6-0.4l-0.2-0.6c0,0-1.7,0.4-2.5,0.4
									c-1.4,0-2.5-0.2-2.6-0.2L168.6,221.3z"/>
							</g>
						</g>
					</g>
					<path class="st1" d="M160,146.3c0,0,9.2,6.8,9.8,19.6l4.5,44l-11.4,1.6L160,146.3z"/>
				</g>
				<g>
					<path class="st1" d="M79.4,172.4c0.3-0.9,17.5-41.1,31.1-32.2c12.5,8.2-16.6,43.5-16.6,43.5L79.4,172.4z"/>
				</g>
				<g>
					<path class="st1" d="M98.1,213.3l2.5-35.3c-0.1-7.8-3.1-14.1-11.2-12.8l0,0c-7.7,1.3-12.5,7.9-11.6,15.1l11.1,34.9L98.1,213.3z
						"/>
				</g>
				<g>
					<polygon class="st2" points="82.8,155.6 101.6,137.8 107.2,162.2 99.8,173.5 					"/>
				</g>
				<g>
					<path class="st3" d="M103.8,313.6h28v-31.4h-18.3v11.5c0,5-1.8,6.3-5.4,8.8c-0.1,0.1-0.2,0.2-0.3,0.2c-0.3,0.3-0.6,0.5-0.9,0.9
						c-1.9,1.9-2.7,4.6-3.1,6.6c-0.1,0.3-0.1,0.5-0.1,0.9C103.8,312.5,103.8,313.6,103.8,313.6z"/>
				</g>
				<g>
					<g>
						<g>
							<path class="st4" d="M112.2,229.6h2.2c9.7,0,17.7,7.9,17.7,17.7v38.5H94.6v-38.5C94.5,237.5,102.4,229.6,112.2,229.6z"/>
						</g>
					</g>
				</g>
				<g>
					<rect x="113.6" y="285.7" class="st5" width="18.3" height="8.1"/>
				</g>
				<g>
					<path class="st6" d="M103.9,311h28v-0.9h-28C104,310.5,103.9,310.8,103.9,311z"/>
				</g>
				<g>
					<g>
						<rect x="94.5" y="278.4" class="st7" width="37.5" height="0.9"/>
					</g>
				</g>
				<g>
					<g>
						<g>
							<path class="st4" d="M132,246.5l-37.5-0.1c0,0,1.8-45.7,7.4-66.8h30L132,246.5L132,246.5z"/>
						</g>
					</g>
				</g>
				<g>
					<g>
						<polygon class="st7" points="130.5,278.8 129.9,278.8 130.3,216.3 130.9,216.3 						"/>
					</g>
				</g>
				<g>
					<path class="st3" d="M157.6,282.3l3.8,28l0.1,0.9l0.3,2.6h28c0,0-0.1-1-0.4-2.6c-0.1-0.3-0.2-0.5-0.2-0.9
						c-0.8-2.5-2.2-5.5-5.2-7.7c-4-2.7-5.9-3.9-6.7-8.8l-1.5-11.5L157.6,282.3L157.6,282.3z"/>
				</g>
				<g>
					<g>
						<g>
							<path class="st4" d="M155,229.5h-3.6c-9.4,0-15.7,8.3-14.5,18.4l5.2,37.6h37.5l-5.2-37.6C173.1,237.8,164.5,229.5,155,229.5z
								"/>
						</g>
					</g>
				</g>
				<g>
					<polygon class="st5" points="177.5,293.8 159.2,293.8 158.1,285.6 176.5,285.6 					"/>
				</g>
				<g>
					<polygon class="st2" points="176.5,285.6 158.1,285.6 158.6,289.3 					"/>
				</g>
				<g>
					<path class="st6" d="M161.6,310.3l0.1,0.9h28c-0.1-0.3-0.2-0.5-0.2-0.9H161.6z"/>
				</g>
				<g>
					<g>
						<rect x="141.3" y="278.3" class="st7" width="37.5" height="0.9"/>
					</g>
				</g>
				<g>
					<g>
						<g>
							<path class="st4" d="M136.9,246.5l37.5-0.1c0,0-4.2-45.6-16.6-66.6h-30.1L136.9,246.5z"/>
						</g>
					</g>
				</g>
				<g>
					<g>
						<polygon class="st7" points="143.3,278.9 133.2,216.4 134,216.2 144,278.7 						"/>
					</g>
				</g>
				<g>
					<polygon class="st2" points="96.3,217.6 170.1,217.6 161.6,143.5 155.7,137.9 150.8,133.3 137.4,120.6 125.9,120.6 
						113.5,129.4 108.7,132.9 101.6,137.8 					"/>
				</g>
				<g>
					<polygon class="st2" points="99.2,173 104.6,166 98.5,186.1 					"/>
				</g>
				<g>
					<g>
						<g>
							<rect x="111.7" y="300.2" class="st6" width="7.7" height="0.9"/>
						</g>
					</g>
					<g>
						<g>
							<rect x="113.3" y="298.4" class="st6" width="7.7" height="0.9"/>
						</g>
					</g>
					<g>
						<g>
							<rect x="114.7" y="296.7" class="st6" width="7.7" height="0.9"/>
						</g>
					</g>
				</g>
				<g>
					<g>
						<g>
							<rect x="172.2" y="300.1" class="st6" width="7.7" height="0.9"/>
						</g>
					</g>
					<g>
						<g>
							<rect x="170.7" y="298.3" class="st6" width="7.7" height="0.9"/>
						</g>
					</g>
					<g>
						<g>
							<rect x="169.3" y="296.5" class="st6" width="7.7" height="0.9"/>
						</g>
					</g>
				</g>
				<g>
					<g>
						<path class="st6" d="M128,310.3l-0.6,0.3c-0.1-0.1-3.3-7.1-7.9-7.1H107c0.3-0.3,0.5-0.5,0.9-0.9h11.6
							C124.5,302.9,127.8,310,128,310.3z"/>
					</g>
				</g>
				<g>
					<g>
						<path class="st6" d="M165,310.5l0.6,0.3c-0.1,0.2,3.1-6.9,7.8-6.9h12.5c-0.3-0.3-0.5-0.5-0.9-0.9h-11.6
							C168.4,303.2,165,310.4,165,310.5z"/>
					</g>
				</g>
				<g>
					<g>
						<path class="st7" d="M163,258c-5.3,0-9.9-5.4-10.9-12.5c-1-7.7,2.9-14.7,8.5-15.5c0.3-0.1,0.8-0.1,1.1-0.1
							c5.3,0,9.9,5.4,10.9,12.5c0.4,3.7-0.2,7.3-1.7,10.2c-1.6,2.9-4,4.9-6.8,5.2C163.7,258,163.3,258,163,258z M161.8,230.6
							c-0.3,0-0.8,0.1-1,0.1c-5.3,0.9-8.8,7.3-7.9,14.7c0.9,6.8,5.2,11.9,10.1,11.9c0.3,0,0.8-0.1,1-0.1c2.6-0.3,4.9-2,6.3-4.9
							c1.5-2.8,2.2-6.3,1.6-9.8C171.2,235.7,166.7,230.6,161.8,230.6z"/>
					</g>
				</g>
				<g>
					<g>
						<path class="st7" d="M106.7,258L106.7,258c-0.3,0-0.8-0.1-1.1-0.1c-2.7-0.4-5.2-2.3-6.8-5.2c-1.5-2.9-2.3-6.6-1.7-10.2
							c0.9-7.1,5.5-12.5,10.9-12.5c0.3,0,0.8,0.1,1.1,0.1c5.6,0.9,9.4,7.8,8.5,15.5C116.7,252.5,112,258,106.7,258z M107.9,230.6
							c-5,0-9.4,5.1-10.1,11.9c-0.4,3.6,0.2,7.1,1.6,9.8c1.4,2.7,3.7,4.4,6.3,4.9c0.3,0.1,0.8,0.1,1,0.1c5,0,9.4-5.1,10.1-11.9
							c0.9-7.2-2.6-13.9-7.9-14.7C108.6,230.7,108.3,230.6,107.9,230.6z"/>
					</g>
				</g>
				<g>
					<polygon class="st2" points="113.6,285.7 132,288.4 132,285.7 					"/>
				</g>
				<g>
					<path class="st1" d="M125.9,120.6h11.4c0,0-1.2,4-4.2,4C130.3,124.7,125.9,120.6,125.9,120.6z"/>
				</g>
				<g>
					<g>
						<g>
							<g>
								<polygon class="st4" points="146,151.8 152,151.6 155.7,137.9 150.8,133.3 								"/>
							</g>
						</g>
					</g>
				</g>
				<g>
					<g>
						<g>
							<g>
								<polygon class="st4" points="108.7,132.9 122.4,151.3 127.6,148.6 113.5,129.4 								"/>
							</g>
						</g>
					</g>
				</g>
				<g>
					<g>
						<g>
							<path class="st4" d="M96.3,217.6h73.5l-2.6-23l-0.1-0.9l-0.9-8.3l-5.3-3l-6.1-28.3l-0.2-0.9l-0.9-4.1
								c-0.3-1.3-1.4-2.3-2.8-2.3h-29.2c-1.7,0-3.2,1.2-3.7,2.9l-0.8,3.3l-0.2,0.9l-5.9,27.5l-13,6l-0.3,5.9l-0.1,0.9L96.3,217.6z"
								/>
						</g>
					</g>
				</g>
				<g>
					<g>
						<path class="st7" d="M149,150.9c0,0.4,0.3,0.9,0.9,0.9s0.9-0.3,0.9-0.9c0-0.4-0.3-0.9-0.9-0.9S149,150.4,149,150.9z"/>
					</g>
				</g>
				<g>
					<g>
						<path class="st7" d="M123.4,150.9c0,0.4,0.3,0.9,0.9,0.9c0.4,0,0.9-0.3,0.9-0.9c0-0.4-0.3-0.9-0.9-0.9
							C123.7,150.1,123.4,150.4,123.4,150.9z"/>
					</g>
				</g>
				<g>
					<polygon class="st7" points="97.9,194.6 167.4,194.6 167.3,194 98.1,194 					"/>
				</g>
				<g>
					<polygon class="st2" points="134.2,217.6 130.3,217.6 122.4,213.6 142.7,213.6 					"/>
				</g>
				<g>
					<polygon class="st7" points="117.4,154.3 155,154.3 154.8,153.6 117.5,153.6 					"/>
				</g>
				<g>
					<path class="st7" d="M134.3,188.4h6.3c7.1,0,13-5.8,13-13V159h-32.2v16.4C121.2,182.7,127.1,188.4,134.3,188.4z M152.7,159.8
						v15.6c0,6.8-5.5,12.2-12.2,12.2h-6.3c-6.8,0-12.2-5.5-12.2-12.2v-15.6H152.7L152.7,159.8z"/>
				</g>
				<g>
					<rect x="133.9" y="194.3" class="st7" width="0.9" height="19.3"/>
				</g>
				<g>
					<path class="st7" d="M134.4,210.5h-0.2v-0.9h0.2c2.9,0,5.3-2.4,5.3-5.3v-10.1h0.9v10.1C140.4,207.8,137.7,210.5,134.4,210.5z"
						/>
				</g>
				<g>
					<ellipse class="st2" cx="133.3" cy="93" rx="15.7" ry="15"/>
					<ellipse class="st2" cx="131.9" cy="95.2" rx="18.9" ry="17.9"/>
					<g>
						<rect x="126.1" y="104" class="st1" width="11.2" height="16.7"/>
					</g>
					<g>
						<polygon class="st2" points="137.3,114.5 132.5,113.8 137.3,118.7 						"/>
					</g>
					<g>
						<path class="st1" d="M137.2,115.6l-10.5-2.5V98c0-5.5,4.7-9.9,10.5-9.9l0,0c5.8,0,10.5,4.4,10.5,9.9v11.9
							C147.6,114,141,116.2,137.2,115.6z"/>
					</g>
					<g>
						<g>
							<path class="st2" d="M142.3,104.6c-0.1,0-0.1,0-0.2,0h-1.6v-0.8l1.9-0.1l0,0l0.1-0.1v-1.9h0.8v1.9c0.1,0.3-0.1,0.4-0.3,0.6
								C142.7,104.5,142.5,104.6,142.3,104.6z"/>
						</g>
					</g>
					<g>
						<circle class="st8" cx="134.5" cy="103.5" r="3"/>
					</g>
					<g>
						<rect x="126" y="86.2" class="st2" width="5.1" height="14.5"/>
					</g>
					<g>
						<path class="st8" d="M147.6,100.7v5.4c-0.2,0.1-0.4,0.1-0.6,0.1c-1.4,0-2.6-1.3-2.6-2.8c0-1.5,1.1-2.8,2.6-2.8
							C147.1,100.6,147.4,100.6,147.6,100.7z"/>
					</g>
					<g>
						<ellipse class="st1" cx="124.7" cy="102.1" rx="4.9" ry="4.9"/>
					</g>
					<g>
						<g>
							<circle class="st2" cx="136.6" cy="100.9" r="0.9"/>
						</g>
						<g>
							<circle class="st2" cx="144.7" cy="100.9" r="0.9"/>
						</g>
					</g>
					<g>
						<path class="st2" d="M141.6,110.6c-1,0.2-2.4-0.1-3.8-1.4l0.3-0.8c2.8,2.8,5.4,0.3,5.4,0.3l0.3,0.8
							C143.7,109.7,142.9,110.5,141.6,110.6z"/>
					</g>
				</g>
				<g>
					<g>
						<path class="st1" d="M98.4,225.1c0,0-4.6,10-6.3,8.4c-1.6-1.7,1.9-9.9,1.9-9.9L98.4,225.1z"/>
					</g>
					<g>
						<path class="st1" d="M90,219.6c0,0-0.4,9.5-2.4,8.1s-2.2-9.1-2.2-9.1L90,219.6z"/>
					</g>
					<g>
						<path class="st1" d="M84.8,218.2c0.5-4.5,4.9-7.1,9.2-6.8c4.4,0.4,7.5,4.4,7,8.8c-0.5,4.5-4.6,7.8-9,7.3
							C87.5,227.3,84.2,222.7,84.8,218.2z"/>
					</g>
					<g>
						<path class="st1" d="M94,224.5c0,0-1.9,8.3-3.9,6.7c-1.9-1.6-1-8.1-1-8.1L94,224.5z"/>
					</g>
					<g>
						<path class="st1" d="M100.6,217.3c0,0,0.5,2.6,0.2,7c-0.3,4.4-2.2,8.6-3.3,8.8c-1.3,0.3-1.7-12.9-1.7-12.9L100.6,217.3z"/>
					</g>
				</g>
				<polygon class="st1" points="98.4,183.9 98.6,214.1 92.6,213.3 				"/>
				<polygon class="st2" points="160,142.1 162.8,144.8 175.3,169.3 163.2,177.5 				"/>
			</g>
			<line class="st9" x1="99.2" y1="173" x2="107" y2="154.5"/>
			<line class="st9" x1="161.9" y1="155.5" x2="165.3" y2="175.3"/>
			<path class="st2" d="M134.4,95.9L134.4,95.9c-1.9,0-3.7-1.6-3.7-3.7v-5.9c0-1.9,1.6-3.7,3.7-3.7l0,0c1.9,0,3.7,1.6,3.7,3.7v5.9
				C138,94.2,136.3,95.9,134.4,95.9z"/>
			<path class="st2" d="M140.9,94.1L140.9,94.1c-1.9,0-3.7-1.6-3.7-3.7v-5.9c0-1.9,1.6-3.7,3.7-3.7l0,0c1.9,0,3.7,1.6,3.7,3.7v5.9
				C144.5,92.5,142.9,94.1,140.9,94.1z"/>
			<path class="st2" d="M145.8,96.4L145.8,96.4c-1.4,0-2.7-1.2-2.7-2.7v-4.6c0-1.4,1.2-2.7,2.7-2.7l0,0c1.4,0,2.7,1.2,2.7,2.7v4.6
				C148.5,95.1,147.3,96.4,145.8,96.4z"/>
		</g>
		<g>
			<g>
				<g>
					<path class="st1" d="M109.3,192.5c0,0,1.7,15-0.2,14.6c-1.9-0.4-3.6-13.9-3.6-13.9L109.3,192.5z"/>
				</g>
				<g>
					<path class="st1" d="M100.3,191.8c0,0,3.9,14.6,1.9,14.5c-1.9-0.3-5.4-13.3-5.4-13.3L100.3,191.8z"/>
				</g>
				<g>
					<path class="st1" d="M96.9,193.5c-1.4-3.3,0.3-7.1,3.6-8.6c3.2-1.5,7.1-0.1,8.6,3.2c1.4,3.3,0.1,7.4-3.1,9
						C102.6,198.6,98.5,196.8,96.9,193.5z"/>
				</g>
				<g>
					<path class="st1" d="M105.9,193.5c0,0,1.8,15.4-0.3,15.1c-2-0.3-3.8-13.9-3.8-13.9L105.9,193.5z"/>
				</g>
				<g>
					<path class="st1" d="M107.6,186c0,0,1.4,1.6,3.1,4.9c1.6,3.1,2.6,8.2,1.9,9c-0.8,0.8-7.2-9.6-7.2-9.6L107.6,186z"/>
				</g>
				<g>
					<g>
						<path class="st2" d="M101.6,191.2c0.1,0.2,0.3,1.6,1.6,3c1.3,1.3,3.8,0.6,4.6,0.3l1.9,2.8l0.5-0.4l-2.4-3.2l-0.2,0.3
							c-0.1,0-2.9,1.1-4.2-0.2c-1.3-1.3-1.4-2.6-1.4-2.6L101.6,191.2L101.6,191.2z"/>
					</g>
				</g>
				<g>
					<g>
						<path class="st2" d="M101.5,197.3c0.1,0,1.2,0.2,2.7,0.2c0.9,0,2.6-0.4,2.7-0.4l-0.2-0.8c0,0-1.7,0.4-2.6,0.4
							c-1.4,0-2.6-0.2-2.6-0.2L101.5,197.3z"/>
					</g>
				</g>
			</g>
			<path class="st10" d="M92.4,119.8c0,0,9.4,7,10,20.2l4.7,45.5l-11.8,1.6L92.4,119.8z"/>
			<g>
				<g>
					<g>
						<g>
							<path class="st2" d="M68.5,313.4h33.2c0,0,0.2-1.1,0-2.6c-0.1-0.3-0.1-0.5-0.1-0.9c-0.3-2.2-1.2-5-3.5-7.1
								c-0.3-0.3-0.9-0.6-1.2-1c-4.2-2.8-6.4-4.1-6.1-9.4l0.3-12.1H69.4L68.5,313.4z"/>
						</g>
					</g>
					<path class="st1" d="M90.8,293.6c0,0-11.4-1.9-14.7,3.8c-2.2,4-7.3,4.6-7.3,4.6l0.3-15.5l21.9-1.2L90.8,293.6z"/>
					<g>
						<g>
							<path class="st11" d="M101.7,309.9c0.1,0.3,0.1,0.5,0.1,0.9H68.6l0.1-0.9H101.7z"/>
						</g>
					</g>
					<g>
						<g>
							<g>
								<path class="st11" d="M72.7,310.3l0.8,0.3c-0.2,0.2,5.2-7.2,10.5-7.2h14.8c-0.3-0.3-0.5-0.5-0.9-0.9H84.1
									C78.2,302.5,72.8,310.1,72.7,310.3z"/>
							</g>
						</g>
					</g>
				</g>
				<g>
					<g>
						<path class="st12" d="M72.2,222.8h4.2c11.1,0,19.5,9,19.7,20.1l-2,49.8L65.9,293l-4.2-50.1C61.4,231.7,61.1,222.8,72.2,222.8z
							"/>
					</g>
				</g>
				<g>
					<polygon class="st12" points="96.3,242.2 61.7,241 60.8,198.3 96.3,198.3 					"/>
				</g>
				<g>
					<rect x="87.5" y="210.7" class="st2" width="0.9" height="82"/>
				</g>
			</g>
			<g>
				<g>
					<g>
						<path class="st2" d="M42.5,313.4h33.2c0,0,0.2-1.1,0-2.6c-0.1-0.3-0.1-0.5-0.1-0.9c-0.3-2.2-1.2-5-3.5-7.1
							c-0.3-0.3-0.9-0.6-1.2-1c-4.2-2.8-6.4-4.1-6.1-9.4l0.3-12.1H43.5L42.5,313.4z"/>
					</g>
				</g>
				<path class="st1" d="M64.9,293.6c0,0-11.4-1.9-14.7,3.8c-2.2,4-7.3,4.6-7.3,4.6l0.3-15.5l21.9-1.2L64.9,293.6z"/>
				<g>
					<g>
						<path class="st11" d="M75.7,309.9c0.1,0.3,0.1,0.5,0.1,0.9H42.6l0.1-0.9H75.7z"/>
					</g>
				</g>
				<g>
					<g>
						<g>
							<path class="st11" d="M46.8,310.3l0.8,0.3c-0.2,0.2,5.2-7.2,10.5-7.2h14.8c-0.3-0.3-0.5-0.5-0.9-0.9H58.1
								C52.2,302.5,46.9,310.1,46.8,310.3z"/>
						</g>
					</g>
				</g>
			</g>
			<g>
				<g>
					<path class="st12" d="M46.3,222.8h4.2c11.1,0,19.5,9,19.7,20.1l-2,49.8L40,293l-4.2-50.1C35.5,231.7,35.2,222.8,46.3,222.8z"/>
				</g>
			</g>
			<g>
				<polygon class="st12" points="70.2,242.2 35.7,241 34.8,198.3 70.2,198.3 				"/>
			</g>
			<g>
				<g>
					<polygon class="st3" points="34.8,198.3 100.6,198.3 92.2,119.5 73.5,105.1 61.1,105.1 41.2,116.2 					"/>
				</g>
			</g>
			<polygon class="st11" points="69.6,110 82.4,186 74.3,196.7 66.9,185.6 			"/>
			<polygon class="st11" points="69.6,109.2 73.2,114.2 70.2,118.6 65.6,113.4 			"/>
			<polygon class="st10" points="77.8,107.9 79.9,125.3 80,126.5 82.3,145.7 82.6,147.5 88.5,198.6 101.1,198.6 99.7,184.7 
				99.5,183.6 92.6,119.8 82.1,111.4 79.5,109.2 			"/>
			<g>
				
					<rect x="57.8" y="160.3" transform="matrix(0.4679 -0.8838 0.8838 0.4679 -118.0682 141.251)" class="st13" width="0.9" height="16.7"/>
			</g>
			<g>
				
					<rect x="53.6" y="163.1" transform="matrix(0.4679 -0.8838 0.8838 0.4679 -122.7579 138.9876)" class="st13" width="0.9" height="16.7"/>
			</g>
			<polygon class="st10" points="30.5,214.3 56.6,214.3 57.1,154 57.1,151.7 57.5,126.2 57.5,124.9 57.7,107.1 56,107.9 54.3,108.9 
				41.2,116.2 35.7,183.2 35.6,184.3 			"/>
			<g>
				<path class="st1" d="M73.5,105.1H61.1c0,0,3.7,4.9,7.2,4.9S73.5,105.1,73.5,105.1z"/>
			</g>
			<g>
				<g>
					<circle class="st5" cx="68.9" cy="80.9" r="9.4"/>
				</g>
				<g>
					
						<ellipse transform="matrix(0.6566 -0.7542 0.7542 0.6566 -30.6656 77.3999)" class="st5" cx="69.7" cy="72.4" rx="7.5" ry="3.2"/>
				</g>
				<g>
					<path class="st5" d="M75.9,68.6c-3.7,1.9-5.9,4.9-5.1,6.5c0.9,1.6,4.5,1.4,8.2-0.6c3.7-1.9,5.9-4.9,5.1-6.5
						C83.2,66.4,79.5,66.7,75.9,68.6z"/>
				</g>
				<g>
					
						<ellipse transform="matrix(0.997 -7.747323e-02 7.747323e-02 0.997 -5.7712 6.506)" class="st5" cx="81" cy="77.6" rx="7.5" ry="3.2"/>
				</g>
				<g>
					<g>
						<rect x="60.7" y="90.8" class="st1" width="12.7" height="18.1"/>
					</g>
					<g>
						<polygon class="st2" points="73.6,101.9 63.9,100.7 73.6,106.5 						"/>
					</g>
					<g>
						<path class="st1" d="M76.4,103.2l-15.2-2.7V84.2c0-5.9,5.1-10.8,11.3-10.8l0,0c6.3,0,11.3,4.9,11.3,10.8V97
							C83.8,101.6,80.6,104,76.4,103.2z"/>
					</g>
					<g>
						<path class="st5" d="M66.5,87.7h-6.4v-8.8c0-1.5,1.3-2.9,2.9-2.9h3.5C66.5,75.9,66.5,87.7,66.5,87.7z"/>
					</g>
					<g>
						<path class="st14" d="M83.8,87.2v5.9c-0.3,0.1-0.4,0.1-0.6,0.1c-1.4,0-2.7-1.4-2.7-3.1c0-1.6,1.2-3.1,2.7-3.1
							C83.4,87.1,83.7,87.1,83.8,87.2z"/>
					</g>
					<g>
						<ellipse class="st1" cx="60.1" cy="89.8" rx="5.2" ry="5.2"/>
					</g>
					<path class="st15" d="M58.3,86.8l4.2,5.5C62.6,92.4,55.2,94.4,58.3,86.8z"/>
					<g>
						<path class="st14" d="M73,90.1c0,1.7-1.4,3.2-3.2,3.2c-1.7,0-3.2-1.4-3.2-3.2c0-1.7,1.4-3.2,3.2-3.2C71.6,87,73,88.4,73,90.1z
							"/>
					</g>
					<g>
						<g>
							<circle class="st2" cx="71.9" cy="87.3" r="1"/>
						</g>
						<g>
							<circle class="st2" cx="81" cy="87.3" r="1"/>
						</g>
						<g>
							<g>
								<path class="st2" d="M77.6,92.1c0.2,0,0.4-0.1,0.6-0.3c0.3-0.2,0.3-0.4,0.3-0.9v-1h-0.9l-0.1,1.2h-0.1l-0.2,0.1h-1.9v0.9
									h1.9C77.6,92.1,77.6,92.1,77.6,92.1z"/>
							</g>
						</g>
					</g>
					<g>
						<path class="st2" d="M76.1,96.9c-1.8,0-3.9-0.4-5.9-2.2l0.5-0.6c3.9,3.3,8.8,1.3,8.8,1.3l0.3,0.9
							C79.9,96.3,78.2,96.9,76.1,96.9z"/>
					</g>
				</g>
				<g>
					<path class="st5" d="M64.4,81.7h3.1c1.3,0,2.3-1,2.3-2.3v-5.9h-5.4V81.7z"/>
				</g>
			</g>
			<g>
				<g>
					<polygon class="st3" points="61.1,102.8 69.2,110 65.8,115.2 57.6,107 					"/>
				</g>
			</g>
			<g>
				<g>
					<polygon class="st3" points="73.5,103.7 69.9,109.7 73.6,114.8 77.4,107.6 					"/>
				</g>
			</g>
			<g>
				<polygon class="st6" points="73.8,115.7 77.7,107.9 77.2,107.4 73.7,114 70.2,109.1 69.6,109.8 				"/>
			</g>
			<g>
				<polygon class="st6" points="65.9,115.8 69.4,109.9 68.7,109.5 65.6,114.5 57.7,106.8 57.1,107.3 				"/>
			</g>
			<g>
				<rect x="61.5" y="210.7" class="st2" width="0.9" height="82"/>
			</g>
			<g>
				<polygon class="st6" points="95.7,183.2 95.7,184.3 99.1,184.3 99,183.2 				"/>
			</g>
			<polygon class="st15" points="56.6,144.1 58.9,217 35,217 35.3,214.3 56.4,214.4 			"/>
			<polygon class="st15" points="56,185.4 39.7,173.7 56.6,190.9 			"/>
			<line class="st16" x1="47.5" y1="112.4" x2="57.2" y2="144.2"/>
			<line class="st16" x1="84.6" y1="113.8" x2="82.1" y2="144"/>
			<line class="st16" x1="95.3" y1="128.8" x2="100.6" y2="179.4"/>
			<g>
				<g>
					<path class="st10" d="M35.8,130.3c0,0-3.6,7-3.5,17.7c0.1,13.4,2.9,21.6,2.9,21.6l18.1-5.6l-0.9-14.2L35.8,130.3z"/>
				</g>
				<g>
					
						<rect x="70.9" y="185.4" transform="matrix(0.8531 -0.5218 0.5218 0.8531 -90.7962 76.6737)" class="st2" width="39.8" height="28.4"/>
				</g>
				<g>
					<g>
						<path class="st1" d="M80.1,185.7c0,0,4.7,10,2.4,10.2c-2.4,0.2-6.4-8-6.4-8L80.1,185.7z"/>
					</g>
					<g>
						<path class="st1" d="M70.5,188.6c0,0,7,6.6,4.6,7.1c-2.4,0.5-8.3-4.3-8.3-4.3L70.5,188.6z"/>
					</g>
					<g>
						<path class="st10" d="M59.9,186.7c0.3,0.2,0.5,0.3,0.9,0.3c4.5,1.8,7.7,3,7.7,3l6-9.9c0,0-1.6-1.8-4.2-4.3
							c-0.3-0.3-0.4-0.4-0.8-0.8c-9-8.7-27.7-24.3-34.3-11.9C30.3,172.3,48.6,181.8,59.9,186.7z"/>
					</g>
					<g>
						<path class="st1" d="M66.1,191.6c-3.1-3.3-2.4-8.3,0.9-11.4c3.1-3.1,8.2-2.9,11.3,0.5c3.1,3.3,3,8.6-0.3,11.6
							C74.7,195.5,69.1,195,66.1,191.6z"/>
					</g>
					<g>
						<path class="st1" d="M76.8,188.7c0,0,5.1,6.9,2.6,7.3c-2.6,0.5-6.8-4.4-6.8-4.4L76.8,188.7z"/>
					</g>
					<g>
						<path class="st1" d="M75.8,178.8c0,0,2.4,1.3,5.4,4.4c3.1,3.1,5.2,7.2,4.5,8.3c-0.6,1.1-11.1-7.1-11.1-7.1L75.8,178.8z"/>
					</g>
				</g>
				<g>
					
						<rect x="46.7" y="154.2" transform="matrix(0.2652 -0.9642 0.9642 0.2652 -117.5763 161.4264)" class="st2" width="0.8" height="7.2"/>
				</g>
				<g>
					
						<rect x="44.4" y="161" transform="matrix(0.9928 -0.1199 0.1199 0.9928 -19.0033 6.9091)" class="st2" width="7" height="0.8"/>
				</g>
				<path class="st10" d="M41.2,116.2c0,0-11.6,12.2-8.7,39.5l20.2-5.6"/>
				<polygon class="st15" points="47.1,136.3 48.1,156.6 57.1,163.7 				"/>
			</g>
			<polygon class="st2" points="73,249.6 71.3,292.7 74.8,292.7 			"/>
		</g>
		<g>
			<g>
				<g>
					<g>
						<g>
							<path class="st1" d="M236.4,195.2c0,0,1.5,13.4-0.2,12.8c-1.6-0.4-3-12.3-3-12.3L236.4,195.2z"/>
						</g>
						<g>
							<path class="st1" d="M228.4,194.7c0,0,3.5,12.9,1.7,12.7c-1.7-0.2-4.9-11.6-4.9-11.6L228.4,194.7z"/>
						</g>
						<g>
							<path class="st1" d="M225.5,196.1c-1.3-3,0.2-6.3,3.1-7.7c2.9-1.4,6.3-0.1,7.7,2.9c1.3,3,0.1,6.6-2.8,8
								C230.6,200.7,226.8,199.1,225.5,196.1z"/>
						</g>
						<g>
							<path class="st1" d="M233.2,196.1c0,0,1.6,13.6-0.2,13.4c-1.8-0.2-3.3-12.4-3.3-12.4L233.2,196.1z"/>
						</g>
						<g>
							<path class="st1" d="M235,189.6c0,0,1.3,1.4,2.7,4.3c1.4,2.8,2.4,7.2,1.6,7.9c-0.6,0.6-6.4-8.5-6.4-8.5L235,189.6z"/>
						</g>
						<g>
							<g>
								<path class="st2" d="M229.6,194c0.1,0.2,0.2,1.4,1.4,2.7c1.2,1.2,3.3,0.5,4.1,0.3l1.8,2.5l0.5-0.4l-2-2.9l-0.2,0.1
									c-0.1,0-2.6,1-3.7-0.2c-1.2-1.2-1.3-2.4-1.3-2.4L229.6,194L229.6,194z"/>
							</g>
						</g>
						<g>
							<g>
								<path class="st2" d="M229.5,199.5c0.1,0,1.1,0.2,2.4,0.2c0.8,0,2.4-0.4,2.4-0.4l-0.2-0.5c0,0-1.6,0.4-2.3,0.4
									c-1.3,0-2.3-0.2-2.4-0.2L229.5,199.5z"/>
							</g>
						</g>
					</g>
					<path class="st1" d="M221.5,130.8c0,0,8.4,6.3,9,17.9l4.1,40.2l-10.5,1.5L221.5,130.8z"/>
				</g>
				<polygon class="st17" points="220,125.7 224.1,129.5 235.7,152 224.6,159.4 				"/>
				<g>
					<g>
						<g>
							<path class="st2" d="M198.7,244.1v72.5h48.6c0,0,0.1-1.4-0.1-3.2c-0.1-0.3-0.1-0.6-0.2-1c-0.6-3.8-2.6-9.1-8.8-10.8
								c-0.4-0.2-0.9-0.3-1.3-0.3c-7.2-1.8-12.4-2.4-12.4-10.1v-46.9L198.7,244.1L198.7,244.1z"/>
						</g>
						<g>
							<path class="st18" d="M198.7,288.4V302c1.8,1.9,5.9,5,14.5,5.3c9.9,0.3,19.6-4,23.7-6c-7.2-1.8-12.4-2.4-12.4-10.1v-5.6
								L198.7,288.4z"/>
						</g>
						<g>
							<rect x="198.7" y="212.9" class="st19" width="25.9" height="78.1"/>
						</g>
						<g>
							<path class="st20" d="M247.2,313.3h-48.5v-1h48.4C247.2,312.7,247.2,313,247.2,313.3z"/>
						</g>
					</g>
				</g>
				<g>
					<g>
						<path class="st2" d="M156,316.5h39.7v-72.5h-25.9v47c0,5.2-1.6,7.1-4.9,9.5c-0.9,0.6-1.7,1.2-2.8,1.9
							c-3.9,2.6-5.4,6.7-5.8,9.8c-0.1,0.3-0.1,0.8-0.2,1C155.9,315.1,156,316.5,156,316.5z"/>
					</g>
					<g>
						<path class="st18" d="M164.9,300.6c14.7-0.3,9.7,7,19.7,6.7c7.1-0.2,8.8-2.8,11-4.6v-14.9l-25.9-2.9v6.1
							C169.8,296.2,168.2,298.2,164.9,300.6z"/>
					</g>
					<g>
						<rect x="169.8" y="212.9" class="st19" width="25.9" height="78.1"/>
					</g>
					<g>
						<path class="st20" d="M156.2,312.3c-0.1,0.3-0.1,0.8-0.2,1h39.6v-1H156.2z"/>
					</g>
				</g>
				<g>
					<path class="st17" d="M167.8,150.5l12,7.4l38.1-0.2l1.2-3l0.9-2.3l5.3-13.7c0-1.5,0.3-4.4-0.6-6.3c-1.2-2.2-2.9-4.9-4-6
						c0,0-0.4-0.3-1.1-1c-0.3-0.3-0.6-0.5-0.9-0.9c-1.4-1.3-3.6-3.1-5.7-4.7c-0.2-0.2-0.3-0.3-0.5-0.4c-0.2-0.1-0.3-0.2-0.3-0.3
						c-0.1-0.1-0.2-0.1-0.2-0.2c-3.1-2.3-5.9-4.2-7-4.2h-11.4c-0.2,0-0.3,0-0.3,0H193h-0.1c-0.3,0-0.5,0.1-0.8,0.1
						c-0.1,0-0.3,0.1-0.3,0.1c-0.3,0.1-0.4,0.1-0.6,0.2c-0.3,0.1-0.4,0.2-0.6,0.3c-0.3,0.1-0.5,0.3-0.9,0.3
						c-0.3,0.2-0.5,0.3-0.9,0.4c0,0-0.1,0-0.1,0.1c-1,0.8-1.9,1.5-2.7,2.7L167.8,150.5z"/>
				</g>
				<g>
					<path class="st17" d="M166,234h66.9c0,0-0.9-19.8-2.5-47.1c0-0.3-0.1-0.5-0.1-0.9c-0.3-5.7-0.6-11.4-1-16.9
						c0-0.3-0.1-0.5-0.1-0.9c-0.6-9.9-1.4-19.1-2.2-25.8c-0.1-0.3-0.1-0.5-0.1-0.9c-0.2-1-0.3-1.9-0.3-2.9c-0.1-0.3-0.1-0.5-0.1-0.9
						c-0.4-2.9-1.6-5.7-3.5-8.1l-23.5,2c-1.5,0-2.8,1.1-3.1,2.6l-0.8,3.5l-0.1-0.9l-3.9,19.1l-11,1.4l-1,0.3c0,0-0.6,1.8-1.5,5.4
						c-1.3,4.6-3.1,12.2-5.1,22.8c-0.1,0.3-0.1,0.5-0.2,0.9C170.5,200.4,167.7,218.5,166,234z"/>
				</g>
				<g>
					<g>
						<polygon class="st2" points="180,160.6 187.7,138.9 187,138.7 179.4,160.4 						"/>
					</g>
				</g>
				<g>
					<g>
						<polygon class="st2" points="185.8,143.6 190.7,142.6 190.6,142 185.6,142.9 						"/>
					</g>
				</g>
				<g>
					<polygon class="st2" points="198.7,238.7 225.1,234 198.7,234 					"/>
				</g>
				<g>
					<polygon class="st2" points="195.5,238.7 170.2,234 195.5,234 					"/>
				</g>
				<g>
					<path class="st18" d="M195.4,187.4c0,0-9.9-38.3-22.2-38.7c-20.8-0.6,13.4,42.3,13.4,42.3L195.4,187.4z"/>
				</g>
				<g>
					<g>
						<path class="st18" d="M199.5,191.1c0,0,2.8,10.9,0.4,10.6c-2.4-0.3-4.4-8.4-4.4-8.4L199.5,191.1z"/>
					</g>
					<g>
						<path class="st18" d="M189.9,193.2c0,0,5.4,7.1,3,7.2c-2.5,0.1-7.1-5.3-7.1-5.3L189.9,193.2z"/>
					</g>
					<g>
						<path class="st18" d="M185.5,194.9c-2.3-3.6-0.9-7.8,2.8-10.1c3.8-2.4,7.7-0.9,9.9,2.7c2.3,3.6,1.9,8-1.8,10.2
							C192.7,200.1,187.7,198.4,185.5,194.9z"/>
					</g>
					<g>
						<path class="st18" d="M196.1,194.2c0,0,3.5,7.1,0.9,7.1c-2.6,0.1-5.6-5.2-5.6-5.2L196.1,194.2z"/>
					</g>
				</g>
				<g>
					<polygon class="st18" points="192.8,114.9 210.2,128.6 208.1,117.7 207.2,115 199.6,114.7 					"/>
				</g>
				<g>
					<ellipse class="st2" cx="190.1" cy="101.6" rx="8.3" ry="8.3"/>
				</g>
				<g>
					<ellipse class="st2" cx="187.7" cy="91.8" rx="8.3" ry="8.3"/>
				</g>
				<g>
					<g>
						<ellipse class="st2" cx="201.9" cy="90.5" rx="12.8" ry="12.2"/>
					</g>
					<g>
						<rect x="192.7" y="99.1" class="st18" width="14.7" height="17.1"/>
					</g>
					<g>
						<polygon class="st2" points="207.5,109.6 198.5,108.5 207.5,114 						"/>
					</g>
					<g>
						<path class="st18" d="M207.7,109.9l-14.5-1.6V92.8c0-5.6,4.9-10.1,10.7-10.1l0,0c5.9,0,10.7,4.5,10.7,10.1v10.6
							C214.7,107.5,212.2,110.3,207.7,109.9z"/>
					</g>
					<g>
						<path class="st2" d="M195.5,87.8h3.9c1.9,0,3.6-1.5,3.6-3.6v-3.6h-7.4L195.5,87.8L195.5,87.8z"/>
					</g>
					<g>
						<path class="st14" d="M214.7,95.7v5.5c-0.2,0.1-0.4,0.1-0.6,0.1c-1.4,0-2.6-1.3-2.6-2.9c0-1.5,1.2-2.9,2.6-2.9
							C214.3,95.6,214.4,95.6,214.7,95.7z"/>
					</g>
					<g>
						<rect x="193.3" y="85" class="st2" width="3.7" height="9.9"/>
					</g>
					<g>
						<ellipse class="st18" cx="191.6" cy="96.9" rx="4.9" ry="4.9"/>
					</g>
					<g>
						<path class="st14" d="M204.5,98.6c0,1.6-1.4,3.1-3.1,3.1c-1.6,0-3.1-1.4-3.1-3.1c0-1.6,1.4-3.1,3.1-3.1
							C203.1,95.6,204.5,96.9,204.5,98.6z"/>
					</g>
					<g>
						<g>
							<path class="st2" d="M204.5,95.9c0,0.5-0.4,1-1,1c-0.5,0-1-0.4-1-1c0-0.5,0.4-1,1-1C204.1,95,204.5,95.3,204.5,95.9z"/>
						</g>
						<g>
							<path class="st2" d="M212.9,95.9c0,0.5-0.4,1-1,1c-0.5,0-1-0.4-1-1c0-0.5,0.4-1,1-1C212.5,94.9,212.9,95.3,212.9,95.9z"/>
						</g>
						<g>
							<g>
								<path class="st2" d="M208.8,100.4c0.3,0,0.4-0.1,0.6-0.3c0.2-0.2,0.3-0.4,0.3-0.8l-0.3-2.3l-0.8,0.1l0.3,2.3l-0.2,0.4
									l0.3-0.3l-2.5-0.3l-0.1,0.8L208.8,100.4C208.7,100.4,208.8,100.4,208.8,100.4z"/>
							</g>
						</g>
					</g>
					<path class="st2" d="M207.2,103.7c-1,0.2-2.4-0.1-3.8-1.4l0.3-0.8c2.8,2.8,5.4,0.3,5.4,0.3l0.3,0.8
						C209.2,102.6,208.5,103.4,207.2,103.7z"/>
				</g>
				<g>
					<path class="st2" d="M211,82.8c1.8,2.6,2.4,6.9,2.4,6.9s-9.7-2.5-10.1-6.8C202.6,78.6,209,80.3,211,82.8z"/>
				</g>
				<path class="st19" d="M207.4,116.1c1,1.7,2.9,12.5,2.9,12.5L193,112.3c0,0-5.9,5-7.5,7.8l26.1,10.8c0,0,0.6-11.2-0.3-12.3
					C210.9,118.2,208.6,116.1,207.4,116.1z"/>
				<g>
					<path class="st2" d="M214.6,148.7c0,0.9,0.8,1.5,1.5,1.5c0.9,0,1.5-0.8,1.5-1.5c0-0.9-0.8-1.5-1.5-1.5
						C215.3,147.1,214.6,147.8,214.6,148.7z"/>
				</g>
				<g>
					<path class="st2" d="M214,168.4c0,0.9,0.8,1.5,1.5,1.5c0.9,0,1.5-0.8,1.5-1.5c0-0.9-0.8-1.5-1.5-1.5
						C214.7,166.7,214,167.5,214,168.4z"/>
				</g>
				<g>
					<path class="st2" d="M213.4,188.1c0,0.9,0.8,1.5,1.5,1.5c0.8,0,1.5-0.8,1.5-1.5c0-0.9-0.8-1.5-1.5-1.5
						C214.2,186.5,213.4,187.1,213.4,188.1z"/>
				</g>
				<path class="st19" d="M211.3,129.3c0,0-3.9,1.1-4.7,5c-0.9,3.9,5.5,8.2,5.5,8.2L211.3,129.3z"/>
				<path class="st19" d="M209.8,129.2c0,0,3.1-1.6,6.6,0.3c3.5,1.9,3.2,9.2,3.2,9.2L209.8,129.2z"/>
			</g>
			<path class="st21" d="M236,147.7l1-1c-0.1,0.1-0.1,0.1-0.1,0.2c-0.1,0.1-0.1,0.1-0.1,0.1L236,147.7z"/>
			<g>
				
					<rect x="227.5" y="141.6" transform="matrix(0.9927 -0.1203 0.1203 0.9927 -16.297 28.4869)" class="st2" width="0.6" height="15.2"/>
			</g>
		</g>
	</g>
	<g class="st0">
		<g>
			<g>
				<path class="st22" d="M433.6,213c0-2.3,0-5.5-0.1-9.4c0-4,0-8.5,0.1-13.4c0-2.4,0-4.9,0.1-7.5v-0.9c0-0.3,0-0.7,0-0.9
					c0-0.6,0.1-1.1,0.1-1.7c0-1.1,0.2-2.3,0.3-3.4c0.4-4.5,1.4-8.8,2.7-12.7c1.3-3.9,2.9-7.3,4.6-10c1.7-2.8,3.3-4.9,4.5-6.3
					s1.9-2.2,1.9-2.2c2-2.1,3.4-4.6,4-7.2c0.6-2.6,0.5-5.3-0.7-7.7l0,0c-1.2-2.4-3.7-3.7-6.7-3.6c-2.9,0.1-6.4,1.6-9.2,4.5
					c0,0-1.1,1-2.7,2.9c-1.6,2-3.9,4.9-6.1,8.7c-2.3,3.7-4.6,8.5-6.4,13.8c-1.8,5.3-3,11.2-3.6,17.2c-0.1,1.5-0.3,3-0.3,4.5
					c0,0.8,0,1.5-0.1,2.3c-0.1,0.3-0.1,0.7-0.1,1v0.9c0,2.6,0,5.1-0.1,7.7c-0.1,5.1-0.1,9.7-0.1,13.6c0,4,0.1,7.3,0.1,9.7
					c0.1,2.4,0.1,3.7,0.1,3.7h17.8C433.6,216.5,433.5,215.3,433.6,213z"/>
				<path class="st23" d="M450.7,129.8c-1.2-2.4-3.7-3.7-6.7-3.6c-2.9,0.1-6.4,1.6-9.2,4.5c0,0-0.5,0.5-1.3,1.3
					c-0.3,0.3-0.5,0.6-0.8,1c-0.7,0.8-1.4,1.7-2.3,2.8c-1.3,1.5-2.6,3.5-4,5.6c-0.3,0.4-0.6,0.8-0.8,1.3c-1,1.7-2,3.6-2.9,5.6
					c-2.3,5-4,10.2-5,14.2c-0.5,2-0.8,3.7-1,4.9s-0.3,1.9-0.3,1.9l17.6,3.5c0,0,0.1-0.5,0.3-1.3c0.2-0.9,0.4-2.2,0.8-3.6
					c0.7-3,1.9-6.8,3.6-10.4c1.7-3.6,3.9-6.9,5.6-9.2c0.9-1.2,1.7-2,2.3-2.7c0.6-0.7,0.9-1,0.9-1c2-2.1,3.3-4.6,4-7.2
					c0.4-1.5,0.5-3.1,0.3-4.5C451.7,131.8,451.4,130.7,450.7,129.8z"/>
			</g>
			<g>
				<g>
					<path class="st22" d="M422.4,224.8c0,0,5.1,19.6,2.8,21.3c-2.4,1.8-8.3-20.2-8.3-20.2L422.4,224.8z"/>
				</g>
				<g>
					<path class="st22" d="M434.7,219.7c0,0,2.3,20.1-0.3,21.5c-2.5,1.3-5.2-21.1-5.2-21.1L434.7,219.7z"/>
				</g>
				<g>
					<path class="st22" d="M424,230.5c-5.3-0.3-9.6-5.1-9.3-10.7c0.3-5.6,4.8-9.8,10.2-9.3c5.4,0.3,10,4.5,9.8,10
						C434.4,226.1,429.5,230.9,424,230.5z"/>
				</g>
				<g>
					<path class="st22" d="M428.7,224.7c0,0,5.2,20,2.4,21.6s-8.8-20.9-8.8-20.9L428.7,224.7z"/>
				</g>
				<g>
					<path class="st22" d="M421,220.6c0,0-3.3,18-4.7,17.4c-1.4-0.6-2.8-8.1-2.3-13.5c0.5-5.4,1.6-8.4,1.6-8.4L421,220.6z"/>
				</g>
				<g>
					<g>
						<path class="st24" d="M426.9,219.8l-0.9,0.3c0,0,0.4,1.9-0.6,4.5c-0.9,2.4-5.6,2.4-5.6,2.4h-0.4l-1.5,5.8l1,0.3l1.3-5.1
							c1.3,0,5.1-0.5,6.2-3C427.4,222.3,427,220.1,426.9,219.8L426.9,219.8z"/>
					</g>
				</g>
				<g>
					<g>
						<path class="st24" d="M429.9,227.6c0,0-1.4,0.8-3.5,1.6c-1,0.4-3.6,0.8-3.7,0.8l0.2,1c0.1,0,2.8-0.4,4-0.8
							c2-0.8,3.5-1.6,3.6-1.7L429.9,227.6z"/>
					</g>
				</g>
			</g>
			<polygon class="st25" points="496.1,216.2 464.2,216.2 468.8,309.2 502.3,309.2 			"/>
			<path class="st24" d="M501.6,298.1l-19.6-0.3l0.7-1.4c1.9-4,5.8-6.6,10-6.6h8.3L501.6,298.1z"/>
			<g>
				<polygon class="st24" points="486,221.5 486.8,221.5 491.7,295.5 491,295.5 				"/>
			</g>
			<path class="st24" d="M468.2,297.6h33.3c0,0,8.8,2.3,8.8,11.6h-41.3L468.2,297.6z"/>
			<polygon class="st25" points="431.3,216.2 466.4,216.2 461.7,309.2 428.3,309.2 			"/>
			<path class="st24" d="M428.6,298.1l19.4-0.4l-0.7-1.4c-1.9-4-5.8-6.6-10-6.6h-8.4L428.6,298.1z"/>
			<polygon class="st24" points="458.7,235.9 459.4,235.9 458.9,216.4 458.2,216.4 			"/>
			<g>
				<polygon class="st24" points="438.4,222.9 437.8,222.9 432.7,297 433.5,297 				"/>
			</g>
			<polygon class="st24" points="465.4,238.8 457.9,235.9 468.9,235.9 			"/>
			<path class="st24" d="M462.4,297.6h-33.6c0,0-8.4,1.7-8.4,11.6h41.3L462.4,297.6z"/>
			<g>
				<path class="st22" d="M492.8,212.3c-0.1-2.4-0.2-5.8-0.3-9.9c-0.2-4.1-0.3-8.9-0.6-14.1c-0.2-2.6-0.3-5.2-0.4-7.9l-0.1-1
					c0-0.3,0-0.7-0.1-0.9c-0.1-0.6-0.1-1.2-0.2-1.8c-0.1-1.2-0.3-2.4-0.4-3.5c-0.7-4.7-2-9.3-3.7-13.3c-1.8-4-3.9-7.7-6-10.5
					c-2.1-2.9-4.1-5.1-5.6-6.6c-1.5-1.5-2.4-2.3-2.4-2.3c-2.5-2.2-4.2-4.8-5.1-7.6c-0.8-2.8-0.8-5.6,0.5-8.1l0,0
					c1.3-2.5,4.3-4,7.8-3.9s7.7,1.7,11.2,4.7c0,0,1.2,1.1,3.3,3.1c2,2,4.9,5.1,7.7,9c2.9,4,5.8,8.9,8.3,14.5
					c2.4,5.6,4.1,11.8,5.1,18.1c0.3,1.6,0.5,3.2,0.6,4.7c0,0.8,0.1,1.6,0.2,2.4c0,0.4,0.1,0.8,0.1,1.1l0.1,1
					c0.2,2.8,0.3,5.5,0.4,8.1c0.3,5.2,0.4,10.2,0.6,14.3s0.3,7.7,0.3,10.1c0,2.5,0.1,4,0.1,4l-21.4,0.1
					C492.8,216.1,492.7,214.8,492.8,212.3z"/>
				<path class="st23" d="M468.3,125c1.3-2.5,4.3-4,7.8-3.9s7.7,1.7,11.2,4.7c0,0,0.5,0.5,1.5,1.4c0.3,0.3,0.7,0.6,1.1,1
					c0.8,0.8,1.8,1.8,2.8,2.9c1.6,1.6,3.3,3.6,5,5.9c0.3,0.4,0.8,0.9,1.1,1.4c1.3,1.9,2.7,3.9,3.9,5.9c3,5.1,5.3,10.7,6.6,14.9
					c0.6,2.1,1.1,3.9,1.3,5.1c0.3,1.3,0.5,1.9,0.5,1.9l-21,3.7c0,0-0.1-0.5-0.3-1.4c-0.2-0.9-0.6-2.3-1-3.8
					c-0.9-3.1-2.6-7.2-4.8-10.9c-2.2-3.7-4.9-7.2-7.2-9.6c-1.1-1.3-2.1-2.2-2.8-2.9c-0.7-0.6-1.1-1-1.1-1c-2.5-2.2-4.2-4.8-5.1-7.6
					c-0.4-1.6-0.7-3.2-0.5-4.7C467.4,127.1,467.8,125.9,468.3,125z"/>
			</g>
			<path class="st26" d="M440.3,125.4c1.6-1.8,3.5-3.3,5.5-4.6c4.7-3.2,10.4-5,16.4-5h0.7c4.5,0,8.9,1,13,2.9c1.9,0.9,3.8,2,5.5,3.4
				c8.3,6.3,13.8,16.7,14,28.5l0.3,17.3l0.1,4.3l0.1,1.7l0.1,2.7L496,188l0.1,6l0.1,4.5l0.1,4.4l0.2,13.3h-64.7l-0.2-13.3l-0.1-4.4
				l-0.1-4.5l-0.1-6l-0.2-11.5l-0.1-2.7l-0.1-1.7l-0.1-4.3l-0.3-17.3C430.4,140.6,434.2,131.7,440.3,125.4z"/>
			<polygon class="st27" points="495.5,167.8 495.5,172 495.6,173.7 430.9,173.7 430.9,172 430.9,167.8 			"/>
			<polygon class="st27" points="495.8,188 495.9,194 431.2,194 431.1,188 			"/>
			<rect x="451.3" y="123.5" class="st23" width="16.8" height="92.7"/>
			<rect x="431.3" y="206.3" class="st24" width="64.7" height="10"/>
			<rect x="451.9" y="206.3" class="st28" width="13.6" height="10"/>
			<path class="st23" d="M447.9,123.5c0-6.7,5-12.1,11.1-12.1s11.1,5.4,11.1,12.1H447.9z"/>
			<polygon class="st28" points="454.7,120 464,120 459.3,132.8 			"/>
			<g>
				<g>
					<path class="st22" d="M443.4,95.5c0-0.3,0.1-0.8,0.2-1.2c0.4-2.2,1.4-4,2.9-5.6c2-2,4.6-3.2,7.7-3.2c5.3,0,9.6,3.8,10.6,8.8
						c0.1,0.3,0.1,0.8,0.2,1.2c0.1,0.3,0.1,0.6,0.1,0.9v3.6c0,6-4.9,10.9-10.9,10.9c-5.3,0-9.7-3.8-10.6-8.8c0-0.2,0-0.3-0.1-0.6
						c0-0.2-0.1-0.4-0.1-0.6v-0.1c-0.1-0.3-0.1-0.6-0.1-0.8v-3.6C443.3,96.1,443.3,95.8,443.4,95.5z"/>
					<path class="st22" d="M453,116.3V93.6h12.5v22.7c0,3.5-2.8,6.2-6.2,6.2l0,0C455.8,122.6,453,119.8,453,116.3z"/>
					<g>
						<path class="st29" d="M443.9,97c1.3,0,2.4,1.2,2.4,2.6s-1.1,2.6-2.4,2.6c-0.2,0-0.3,0-0.4-0.1c0-0.2,0-0.3-0.1-0.6
							c0-0.2-0.1-0.4-0.1-0.6v-0.1V97C443.5,96.9,443.8,96.8,443.9,97z"/>
					</g>
					<g>
						<circle class="st29" cx="455.5" cy="99.5" r="2.8"/>
					</g>
					<g>
						<g>
							<path class="st28" d="M446.7,102.9l6.2-0.3C449.9,107.2,446.7,102.8,446.7,102.9z"/>
						</g>
						<g>
							<path class="st24" d="M453.7,96.1c0.5,0,0.9,0.4,0.9,0.9s-0.4,0.9-0.9,0.9s-0.9-0.4-0.9-0.9
								C452.8,96.6,453.2,96.1,453.7,96.1z"/>
						</g>
						<g>
							<path class="st24" d="M445.9,96.1c0.5,0,0.9,0.4,0.9,0.9s-0.4,0.9-0.9,0.9s-0.9-0.4-0.9-0.9C445,96.6,445.4,96.1,445.9,96.1z
								"/>
						</g>
						<g>
							<g>
								<path class="st24" d="M448.8,101.1c-0.3,0-0.5-0.1-0.7-0.3c-0.2-0.2-0.3-0.3-0.3-0.6v-0.9h0.7v0.9l0.1,0.1v0.1l2.1,0.1v0.7
									L448.8,101.1z"/>
							</g>
						</g>
					</g>
				</g>
				<circle class="st22" cx="466.7" cy="98.3" r="4"/>
				<g>
					<g>
						<path class="st26" d="M460.7,74.2v-2.4c4.2,0,7.7,4.7,7.7,10.5H466C466,77.9,463.5,74.2,460.7,74.2z"/>
					</g>
					<g>
						<path class="st26" d="M456.2,74.2v-2.4c4.2,0,7.7,4.7,7.7,10.5h-2.4C461.4,77.9,459.1,74.2,456.2,74.2z"/>
					</g>
					<g>
						<path class="st26" d="M451.7,74.2v-2.4c4.2,0,7.7,4.7,7.7,10.5H457C457,77.9,454.6,74.2,451.7,74.2z"/>
					</g>
					<path class="st26" d="M453.3,73.5h6.9c0.8,0,1.6,0.1,2.4,0.3c0.3,0.1,0.7,0.2,1,0.3c0.8,0.2,1.4,0.4,2.1,0.8
						c4.3,2.1,7.3,6.5,7.3,11.5v5.6h-32.3v-5.6C440.6,79.3,446.4,73.6,453.3,73.5z"/>
					<rect x="437" y="91.8" class="st26" width="36" height="1.6"/>
					<path class="st30" d="M456.5,73.5h3.8c0.8,0,1.6,0.1,2.4,0.3c-5.9,1.1-10.4,6.2-10.4,12.5v5.6h-9.2v-5.6
						C443.2,79.2,449.1,73.5,456.5,73.5z"/>
					<path class="st24" d="M443.8,93.4h21.6v1.3h-21.8C443.6,94.3,443.7,93.9,443.8,93.4z"/>
					<rect x="440.7" y="88.9" class="st31" width="32.3" height="3"/>
				</g>
			</g>
			<path class="st27" d="M445.7,120.6v51.1h-5.5v-46.5C441.8,123.6,443.7,122,445.7,120.6z"/>
			<path class="st27" d="M481.3,122v49.8h-5.5v-53.1C477.8,119.6,479.6,120.7,481.3,122z"/>
			<g>
				<path class="st24" d="M481.4,240.7l-0.2-10.3c0-4,3-7.2,6.7-7.2h25.6c3.7,0,6.7,3.2,6.7,7.2v10.3h-3.3v-10.3
					c0-2-1.5-3.6-3.3-3.6H488c-1.8,0-3.3,1.6-3.3,3.6v10.3H481.4L481.4,240.7z"/>
			</g>
			<path class="st22" d="M513.5,228l0.5-11.9l-18.2-0.8c-2.9-0.1-5.5,2.2-5.6,5.2l-0.7,14.9l15.1,0.7
				C509.3,236.3,513.2,232.7,513.5,228z"/>
			<g>
				<path class="st32" d="M476.3,272v-31.9c0-0.8,0.7-1.6,1.6-1.6h45.9c0.8,0,1.6,0.7,1.6,1.6V272c0,0.8-0.7,1.6-1.6,1.6h-45.9
					C476.9,273.6,476.3,272.9,476.3,272z"/>
				<rect x="476.3" y="250.4" class="st24" width="49.2" height="2.4"/>
				<rect x="510.8" y="250.4" class="st28" width="4.4" height="6.6"/>
				<rect x="487.3" y="250.4" class="st28" width="4.4" height="6.6"/>
			</g>
		</g>
		<g>
			<g>
				<g>
					<ellipse class="st24" cx="540.3" cy="82" rx="8.3" ry="8.3"/>
				</g>
				<g>
					<path class="st33" d="M547.7,90.9v18.9c-3.9,1.1-8.9,1.8-11.1,2.1v-21H547.7z"/>
				</g>
				<g>
					<polygon class="st24" points="536.6,105 541.8,99.9 536.6,100.9 					"/>
				</g>
				<g>
					<path class="st33" d="M527,96.6V85.1c0-5.4,4.5-9.7,10.1-9.7l0,0c5.6,0,10.1,4.4,10.1,9.7v14.6l-13.7,2.4
						C529.7,102.7,526.9,100.5,527,96.6z"/>
				</g>
				<g>
					<path class="st29" d="M539.4,87.5c1.6,0,2.9,1.3,2.9,2.9s-1.3,2.9-2.9,2.9s-2.9-1.3-2.9-2.9S537.9,87.5,539.4,87.5z"/>
				</g>
				<g>
					<path class="st24" d="M542.4,88.1l-0.1-10.4h3.1c1.4,0,2.6,1.2,2.6,2.6v7.8H542.4L542.4,88.1z"/>
				</g>
				<g>
					<ellipse class="st33" cx="546.7" cy="90.1" rx="3.5" ry="3.5"/>
				</g>
				<g>
					<path class="st24" d="M542.4,88.1h1.3c0,0,0.7,9-1.4,11.4c-2,2.3-9.3,5.5-14.7,2.2c-4-2.5,0.7-7.2,0.7-7.2l0.8,0.8
						c0,0,0.4,1.9,2.3,1.5c1.7-0.3,2.8-1.6,2.8-1.6s4.8,0.8,6.5-1C542.3,92.3,542.4,88.1,542.4,88.1L542.4,88.1z"/>
				</g>
				<g>
					<path class="st29" d="M527.5,87.5c1.3,0,2.4,1.2,2.4,2.7s-1.1,2.7-2.4,2.7c-0.2,0-0.4,0-0.6-0.1v-5.2
						C527,87.5,527.3,87.5,527.5,87.5z"/>
				</g>
				<g>
					<g>
						<path class="st24" d="M536.6,86.9c0.5,0,0.9,0.4,0.9,0.9s-0.4,0.9-0.9,0.9s-0.9-0.4-0.9-0.9S536.1,86.9,536.6,86.9z"/>
					</g>
					<g>
						<path class="st24" d="M528.6,86.9c0.5,0,0.9,0.4,0.9,0.9s-0.4,0.9-0.9,0.9c-0.5,0-0.9-0.4-0.9-0.9S528.1,86.9,528.6,86.9z"/>
					</g>
					<g>
						<g>
							<path class="st24" d="M530.8,91.8c-0.2-0.2-0.3-0.4-0.3-0.7v-0.9h0.8v0.9l0.1,0.1v0.1l1.9,0.1v0.8h-1.6c-0.1,0-0.1,0-0.2,0
								C531.3,92.1,531.1,92,530.8,91.8z"/>
						</g>
					</g>
				</g>
				<g>
					<path class="st24" d="M544.3,75.4h-4.8v5.4c0,1.1,0.9,2,2,2h2.8V75.4z"/>
				</g>
				<g>
					<ellipse class="st24" cx="534.2" cy="74.2" rx="7.8" ry="7.1"/>
				</g>
				<g>
					<path class="st24" d="M535.8,92.9c1.9,1.1,3.1,2.6,2.6,3.5c-0.4,0.8-2.4,0.7-4.3-0.4c-1.9-1.1-3.1-2.6-2.6-3.5
						S534,91.8,535.8,92.9z"/>
				</g>
				<g>
					<path class="st24" d="M528.3,92.9c-1.8,0.9-2.9,2.4-2.4,3.2c0.5,0.8,2.4,0.6,4.1-0.4c1.8-0.9,2.9-2.4,2.4-3.2
						C532,91.7,530.2,91.8,528.3,92.9z"/>
				</g>
			</g>
			<g>
				<path class="st22" d="M527,170.5c-32.8,1.6-29.4-12-29.4-12l38.7-2.9C536.4,155.6,542.1,169.8,527,170.5z"/>
				
					<rect x="483.9" y="137" transform="matrix(0.9837 -0.1796 0.1796 0.9837 -19.8718 91.8232)" class="st24" width="26.5" height="37.2"/>
				<polygon class="st24" points="516.7,157.2 518,170.7 520.6,156.8 				"/>
				<path class="st33" d="M484.9,159.4c1.4-0.6,2.7-0.5,2.9,0.3c0.2,0.8-0.8,1.9-2.2,2.4c-1.4,0.6-2.7,0.5-2.9-0.3
					C482.6,161.1,483.6,160,484.9,159.4z"/>
				<ellipse class="st33" cx="486" cy="165.9" rx="2.7" ry="1.9"/>
				<path class="st33" d="M486.5,166.5c1.5,0,2.7,0.8,2.7,1.9c0,1.1-1.3,1.9-2.7,1.9c-1.5,0-2.7-0.8-2.7-1.9
					C483.9,167.5,485,166.6,486.5,166.5z"/>
				<g>
					<path class="st24" d="M494.7,309.1h37l1.9-19.4H514c-0.3,1.9-0.8,3.2-1.6,4.1c-0.3,0.3-0.5,0.5-0.8,0.8
						c-0.6,0.5-1.3,0.8-2.1,1.2c-0.3,0.1-0.6,0.3-0.9,0.3c-0.8,0.3-1.5,0.4-2.4,0.7c-0.3,0.1-0.6,0.2-0.9,0.3
						c-0.8,0.3-1.7,0.4-2.5,0.7c-0.9,0.2-1.8,0.6-2.5,1c-0.3,0.2-0.6,0.3-0.8,0.6c-2.5,1.8-3.6,4.5-4.2,6.6
						c-0.1,0.3-0.1,0.5-0.2,0.8c-0.2,1.1-0.3,2.3-0.3,2.6C494.7,309.2,494.7,309.1,494.7,309.1z"/>
				</g>
				<g>
					<path class="st34" d="M495.3,305.9H532l-0.1,0.8h-36.9C495.1,306.4,495.2,306.1,495.3,305.9z"/>
				</g>
				<g>
					<path class="st24" d="M571.8,289.7h-19.6c0.3,1.9,0,3.2-0.6,4.1c-0.2,0.3-0.3,0.5-0.6,0.8c-0.4,0.5-1,0.8-1.8,1.2
						c-0.3,0.1-0.5,0.3-0.8,0.3c-0.7,0.3-1.4,0.4-2.2,0.7c-0.3,0.1-0.6,0.2-0.9,0.3c-0.8,0.3-1.5,0.4-2.4,0.7
						c-0.9,0.2-1.6,0.6-2.3,1c-0.3,0.2-0.5,0.3-0.8,0.6c-2,1.8-2.5,4.5-2.6,6.6c0,0.3,0,0.5,0,0.8c0,1.1,0.2,2.3,0.3,2.6h36.9
						l-2.6-19.4V289.7z"/>
				</g>
				<g>
					<path class="st34" d="M537.3,305.9H574l0.1,0.8h-36.8C537.3,306.4,537.3,306.1,537.3,305.9z"/>
				</g>
				<g>
					<path class="st33" d="M571.8,289.8h-14c1.3,0.5,2.9,1.5,3.1,3c0.6,4.1,11.5,2.3,11.5,2.3L571.8,289.8z"/>
				</g>
				<g>
					<path class="st33" d="M533.6,289.7h-15.3c1.4,0.3,3.8,0.9,3.8,2.9c0,3,1.3,3.9,3.6,4c2.4,0.2,7.2,0.4,7.2,0.4L533.6,289.7z"/>
				</g>
				<g>
					<polygon class="st22" points="505.6,258 505.7,257.2 510,230.3 510.1,229.4 517.9,181.5 544.3,181.5 533.5,289.9 500.9,289.8 
											"/>
				</g>
				<g>
					<g>
						<polygon class="st24" points="532.5,181.5 531.6,181.5 521.1,289.9 521.8,289.9 						"/>
					</g>
				</g>
				<g>
					<polygon class="st22" points="557,181.5 571.8,289.9 539.3,289.9 535,258.1 534.8,257.3 531,229.3 530.9,228.5 524.5,181.5 
											"/>
				</g>
				<g>
					<g>
						<polygon class="st24" points="548.3,181.5 549.3,181.5 565.5,289.8 564.8,289.9 						"/>
					</g>
				</g>
				<g>
					<g>
						<polygon class="st24" points="527.6,179.6 550.7,194.6 550.9,195.8 527.1,180.3 						"/>
					</g>
				</g>
				<g>
					<polygon class="st24" points="557.9,187.7 557,181.5 517.4,181.5 					"/>
				</g>
				<g>
					<polygon class="st22" points="520.2,147.2 522.3,142.5 522.5,142 536.7,109.9 547.5,108.1 550,112.8 550.4,113.5 553.2,119 
						559,181.5 515.8,181.5 					"/>
				</g>
				<g>
					<polygon class="st24" points="548.3,181.5 557.9,181.5 548.3,135.4 					"/>
				</g>
				<g>
					<polygon class="st24" points="517.4,181.5 524.5,181.5 536,265.5 					"/>
				</g>
				<g>
					<path class="st22" d="M543.6,136.6l18,44.6l6.7-11.8c1.3-2.6,1.4-5.6,0.4-8.3L553.2,119L543.6,136.6z"/>
				</g>
				<path class="st22" d="M569.4,165.3c0-4.4-3.5-7.9-7.9-7.9l0,0c-4.4,0-7.9,3.5-7.9,7.9v27.9h15.8
					C569.4,193.2,569.4,165.3,569.4,165.3z"/>
				<g>
					<polygon class="st22" points="520.2,147.2 528,120.9 536.7,109.9 					"/>
				</g>
				<g>
					<polygon class="st35" points="536.7,109.9 528.5,123.8 520.2,147.2 541.9,109.2 					"/>
				</g>
				<g>
					<polygon class="st24" points="536.7,109.9 534.3,114 534.4,114.2 527.2,127.5 520.2,147.2 525.6,137.6 535,114.4 538.2,112.9 
						537.5,109.7 					"/>
				</g>
				<g>
					<polygon class="st35" points="549.3,110.3 538.6,115 537.5,109.7 547.5,106.7 					"/>
				</g>
				<g>
					<polygon class="st35" points="533.3,114.2 533.8,114.7 536.7,109.9 					"/>
				</g>
				<g>
					<polygon class="st24" points="522.5,142 550,112.8 550.4,113.5 522.7,142.9 522.3,142.5 522.2,142.4 					"/>
				</g>
				<g>
					
						<rect x="536.6" y="120.6" transform="matrix(0.4062 -0.9138 0.9138 0.4062 206.015 564.0596)" class="st24" width="0.8" height="5.8"/>
				</g>
				<g>
					
						<rect x="550.9" y="159.9" transform="matrix(0.8549 -0.5187 0.5187 0.8549 -2.8455 310.5545)" class="st24" width="5.8" height="0.8"/>
				</g>
				<g>
					
						<rect x="550.9" y="158.6" transform="matrix(0.4112 -0.9116 0.9116 0.4112 181.1581 598.4519)" class="st24" width="5.8" height="0.8"/>
				</g>
				<g>
					<rect x="521.2" y="153.5" class="st24" width="2.3" height="0.8"/>
				</g>
				<g>
					<rect x="521.2" y="166.9" class="st24" width="2.3" height="0.8"/>
				</g>
				<g>
					<g>
						<path class="st24" d="M548.9,211.6v7.6h20.6v-7.6c0-2.4-1.9-4.4-4.4-4.4h-12C550.8,207.2,548.8,209.1,548.9,211.6L548.9,211.6
							z M568,211.6l0.1,6.1h-17.7v-6.1c0-1.6,1.3-2.9,2.9-2.9h11.9C566.7,208.7,568,210,568,211.6L568,211.6z"/>
					</g>
					<rect x="534.1" y="214.6" class="st36" width="51.4" height="39.6"/>
					<rect x="580.3" y="214.6" class="st24" width="5.1" height="39.6"/>
					<rect x="534.1" y="235.7" class="st24" width="46.2" height="0.9"/>
					<rect x="553.1" y="232.4" class="st28" width="4.3" height="7.4"/>
				</g>
				<rect x="553.7" y="193.3" class="st35" width="14.1" height="4.3"/>
				<path class="st33" d="M567.7,205.3v-7.8h-11.1c-2,0-3.6,1.6-3.6,3.6v9.9h9.1C565.2,211.1,567.7,208.5,567.7,205.3z"/>
			</g>
		</g>
		<g>
			<g>
				<g>
					<path class="st37" d="M558.1,196.9c0,0-1.5,12.5-3.3,12.9c-1.8,0.4-0.2-13.6-0.2-13.6L558.1,196.9z"/>
				</g>
				<g>
					<path class="st37" d="M566.3,196.8c0,0-3.3,12-5.1,12.3c-1.9,0.2,1.8-13.4,1.8-13.4L566.3,196.8z"/>
				</g>
				<g>
					<path class="st37" d="M557.9,200.5c-3-1.4-4.3-5.2-2.9-8.3c1.4-3.1,5-4.5,8-3c2.9,1.4,4.6,4.9,3.3,8
						C564.8,200.3,560.8,202,557.9,200.5z"/>
				</g>
				<g>
					<path class="st37" d="M561.7,198.3c0,0-1.6,12.7-3.5,13s-0.3-14.1-0.3-14.1L561.7,198.3z"/>
				</g>
				<g>
					<path class="st37" d="M558.4,194.2c0,0-6.1,9.6-6.7,8.9c-0.7-0.8,0.3-5.4,1.8-8.3c1.5-2.9,2.9-4.5,2.9-4.5L558.4,194.2z"/>
				</g>
				<g>
					<g>
						<path class="st24" d="M561.9,195l-0.5-0.3c0,0-0.2,1.3-1.3,2.4c-1.2,1.2-3.8,0.2-3.9,0.2l-0.3-0.1l-2.2,3l0.5,0.4l1.9-2.6
							c0.8,0.3,3.1,0.8,4.3-0.3C561.6,196.5,561.8,195.2,561.9,195L561.9,195z"/>
					</g>
				</g>
				<g>
					<g>
						<path class="st24" d="M561.8,200.1c-0.1,0-1.2,0.2-2.4,0.2c-0.8,0-2.4-0.4-2.4-0.4l-0.2,0.7c0.1,0,1.8,0.4,2.5,0.4
							c1.4,0,2.4-0.2,2.5-0.2L561.8,200.1z"/>
					</g>
				</g>
			</g>
			<g>
				<path class="st38" d="M561.1,166.5c1.9-10.4,8.4-21.6,13.9-27.4c0,0,0,0,0.1-0.1l0,0c0.1-0.1,0.3-0.3,0.4-0.4s0.3-0.3,0.4-0.4
					l-0.2,0.6l-0.2,0.8l-7.2,35.7l-0.7,3.5l-0.2,0.6v-10.5l-6.7-1.8C560.9,166.9,561,166.8,561.1,166.5z"/>
				<path class="st37" d="M556.8,189.8l4.7-23h0.1c4,0.3,7.3,2.2,8.6,5c3.3,7-8.8,20.6-8.8,20.6L556.8,189.8z"/>
				<polygon class="st32" points="566.5,184.3 567.5,179.4 567.5,184.3 562.4,191.9 				"/>
				<polygon class="st32" points="572.2,179.5 588.7,198.5 593.1,203.7 584.3,261.4 581,283.2 579.7,291.7 575.6,283.2 565,261.4 
					556,242.7 				"/>
				<path class="st32" d="M580.4,283.3l2.1-21.9l0.8-8.8l0.6-5.6l0.1-0.8l4.5-47.6l1.9-19.8l0.1-0.6l15.7,0.6h0.2
					c8.6,26,9.5,49,7.2,67.4c0,0.3,0,0.5-0.1,0.8c-0.3,1.9-0.5,3.8-0.8,5.6c-0.5,3.1-1.2,6.1-1.9,8.8c-2.4,9.3-5.6,16.8-8,21.9
					c-2.3,5.1-4,7.9-4.2,8.3l0,0l0,0l-18.9,0.2L580.4,283.3z"/>
				<path class="st39" d="M567.3,178.7h23.4h15.8l0,0c8.6,26,9.5,49,7.2,67.4c0,0.3,0,0.5-0.1,0.8c-0.3,1.9-0.5,3.8-0.8,5.6h-58.3
					c0,0-0.2-2.1-0.2-5.6v-0.8C554.4,233.4,555.8,204,567.3,178.7z"/>
				<path class="st38" d="M567.7,159.9c0,0,6.1-18.6,7.2-20.5c0-0.1,0-0.1,0.1-0.2l0,0c0-0.1,0-0.1,0.1-0.2l0.3-0.3l0.4-0.4l4.5-4.3
					l6.8-6.6h8.1l5.5,5.9l5,5.2l0.6,0.6l0.8,0.9l-0.6,38.8h-39.2L567.7,159.9z"/>
				<path class="st37" d="M587.1,127.3h8.1l5.5,5.9c-2.7,1.8-6.6,3.3-11.9,2.9c-3.6-0.3-6.4-1.1-8.5-2.2L587.1,127.3z"/>
				<g>
					
						<rect x="555.2" y="166.1" transform="matrix(3.293248e-03 -1 1 3.293248e-03 399.2667 733.4651)" class="st40" width="24.8" height="0.8"/>
				</g>
				<g>
					<g>
						<g>
							<path class="st24" d="M576.4,307l0.1-0.3l0.1-0.3l3-14.6l15.2-0.2l3.7-0.1c-0.8,4.5,0.8,5.6,4,8c0.2,0.2,0.4,0.3,0.6,0.5
								c0,0,0,0,0.1,0.1c0.1,0.1,0.2,0.2,0.3,0.3c0.1,0.2,0.3,0.3,0.3,0.4c1.4,1.7,1.8,3.9,1.7,5.6c0,0.1,0,0.2,0,0.3
								c0,0.1,0,0.2,0,0.3c-0.2,1.3-0.4,2.3-0.4,2.3h-29L576.4,307z"/>
						</g>
						<g>
							<path class="st41" d="M576.6,306.3l-0.2,0.7h29c0.1-0.2,0.1-0.4,0.1-0.7H576.6z"/>
						</g>
						<g>
							<g>
								<path class="st41" d="M591.4,300.1h12c0.3,0.2,0.5,0.4,0.7,0.7h-12.9c-4.7,0-10.4,6.3-10.3,6.1l-0.6-0.3
									C580.2,306.5,586.1,300,591.4,300.1z"/>
							</g>
						</g>
					</g>
				</g>
				<g>
					<circle class="st26" cx="600.6" cy="95.4" r="8.4"/>
					<g>
						<ellipse class="st26" cx="589.3" cy="105.6" rx="12.5" ry="11.9"/>
						<rect x="586.6" y="113.5" class="st37" width="9.1" height="14.8"/>
						<polygon class="st42" points="586.6,126.1 594.4,121.4 586.6,122.3 						"/>
						<path class="st37" d="M576.6,116.4v-9.3c0-5.2,4.1-9.5,9.3-9.5l0,0c5.1,0,9.3,4.3,9.3,9.5v15.3
							C595.2,122.5,576.7,127.7,576.6,116.4z"/>
						<path class="st29" d="M577.3,110.4c1.2,0,2.2,1.2,2.2,2.5c0,1.4-1,2.5-2.2,2.5c-0.3,0-0.4,0-0.6-0.1v-4.8
							C576.9,110.4,577,110.4,577.3,110.4z"/>
						<path class="st37" d="M596.3,108.7c1.9,0,3.5,1.6,3.5,3.5c0,1.9-1.6,3.5-3.5,3.5c-1.9,0-3.5-1.6-3.5-3.5
							S594.4,108.7,596.3,108.7z"/>
						<path class="st29" d="M588.2,110.4c1.4,0,2.6,1.2,2.6,2.6s-1.2,2.6-2.6,2.6c-1.4,0-2.6-1.2-2.6-2.6S586.7,110.4,588.2,110.4z"
							/>
						<g>
							<circle class="st42" cx="586.4" cy="110.7" r="0.8"/>
							<circle class="st42" cx="579.2" cy="110.7" r="0.8"/>
							<g>
								<path class="st42" d="M581.3,114.4c-0.2-0.2-0.3-0.4-0.3-0.7l0.4-3.6l0.7,0.1l-0.4,3.6l0.1,0.1l1.9-0.3l0.1,0.7l-1.9,0.3
									c-0.1,0-0.1,0-0.2,0C581.6,114.6,581.4,114.5,581.3,114.4z"/>
							</g>
						</g>
						<g>
							<path class="st24" d="M579.6,117.9l0.3-0.8c0.1,0,2.9,0.9,5.1-0.6l0.5,0.8c-1.2,0.8-2.4,1-3.5,1
								C580.7,118.3,579.7,118,579.6,117.9z"/>
						</g>
					</g>
					<path class="st26" d="M576.1,105.3v1.3h9.3c5.7,0,10.4-4.7,10.4-10.4v-0.8H586C580.5,95.4,576.1,99.8,576.1,105.3z"/>
					<polygon class="st26" points="593.4,101.3 597.1,101.3 593.4,114.5 					"/>
				</g>
				<polygon class="st42" points="578.3,252.5 583.4,252.5 579.7,291.7 				"/>
				<polygon class="st42" points="560.7,252.5 563.1,257.4 612.3,252.5 				"/>
				<g>
					<path class="st42" d="M613.7,246.1c0,0.3,0,0.5-0.1,0.8h-59.2v-0.8H613.7z"/>
				</g>
				<path class="st38" d="M607,140c6.9,12.3,6.9,20.5,6.5,28.5l-15.6,10.3L607,140z"/>
				<g>
					
						<rect x="592.8" y="157.6" transform="matrix(0.2288 -0.9735 0.9735 0.2288 311.4117 708.8771)" class="st40" width="20.6" height="0.6"/>
				</g>
				<g>
					<polygon class="st40" points="603.7,148.8 604.2,148.6 604.7,151.9 604.2,152.1 					"/>
				</g>
				
					<rect x="569.7" y="154.6" transform="matrix(3.724198e-03 -1 1 3.724198e-03 417.7695 752.4626)" class="st42" width="33.6" height="24"/>
				<g>
					<path class="st37" d="M590.1,165.6l23.3,2.9v0.1c0,4-1.6,7.4-4.2,8.9c-6.7,3.8-21.2-7.2-21.2-7.2L590.1,165.6z"/>
				</g>
				<g>
					
						<rect x="572.4" y="226.3" transform="matrix(0.2087 -0.978 0.978 0.2087 239.7145 749.7193)" class="st42" width="21.6" height="0.8"/>
				</g>
				<g>
					
						<rect x="578.6" y="212.7" transform="matrix(0.2415 -0.9704 0.9704 0.2415 236.2521 728.4156)" class="st42" width="10.9" height="0.8"/>
				</g>
				<path class="st32" d="M579.9,289.2l-1.9,10.4c0,0,5.3-0.8,6.5-4.5c1.4-4.3,6.9-3.6,6.9-3.6L579.9,289.2z"/>
				<g>
					<path class="st40" d="M587.2,136.2h0.3l0,0l0.5,0.1c0,0-0.1,1.7,1,3c0.9,1,2.4,1.7,4.2,1.9c4.5,0.4,10-1.6,12.5-2.6l0.6,0.6
						c-2.1,0.9-7.1,2.8-11.6,2.8c-0.5,0-0.9,0-1.4-0.1c-2.1-0.2-3.7-0.9-4.7-2.2c-0.7-0.8-0.9-1.8-1.1-2.4
						C587.2,136.6,587.2,136,587.2,136.2z"/>
				</g>
				<g>
					<path class="st40" d="M574.8,139.2L574.8,139.2c0-0.2,0-0.2,0.1-0.3l0.3-0.3l0,0c0.1,0,0.3,0.1,0.3,0.2c1.7,0.9,4,1.8,6.3,1.1
						c4.3-1.3,5.1-4,5.1-4l0,0l0.3,0.1h0.1l0.3,0.1c0,0.1-0.1,0.5-0.5,1.1l0,0c-0.7,1-2.1,2.5-5.1,3.5c-0.7,0.3-1.3,0.3-2,0.3
						c-1.7,0-3.4-0.6-4.6-1.3C575.2,139.5,575,139.4,574.8,139.2C574.9,139.2,574.8,139.2,574.8,139.2
						C574.9,139.2,574.9,139.2,574.8,139.2z"/>
				</g>
				<g>
					<g>
						<path class="st37" d="M586.6,169.5c0,0-5.8,1.9-6.9,0.8c-1-1.1,6.1-3.5,6.1-3.5L586.6,169.5z"/>
					</g>
					<g>
						<path class="st37" d="M589.4,175c0,0-5.2-0.4-6.1-1.7c-0.9-1.3,5.6-1.1,5.6-1.1L589.4,175z"/>
					</g>
					<g>
						<path class="st37" d="M583.5,170.7c-0.1-2.7,2.4-5.1,5.5-5.2c3-0.1,5.6,1.9,5.6,4.7c0.1,2.7-1.9,5.1-5.1,5.3
							C586.6,175.6,583.6,173.3,583.5,170.7z"/>
					</g>
					<g>
						<path class="st37" d="M586.6,172.7c0,0-4.4,0.3-5.4-1c-1-1.3,4.7-2.1,4.7-2.1L586.6,172.7z"/>
					</g>
					<g>
						<path class="st37" d="M588.9,168.7c0,0-9-0.9-8.8-1.7c0.3-0.8,3.2-1.7,6.2-1.7s4.7,0.4,4.7,0.4L588.9,168.7z"/>
					</g>
				</g>
			</g>
		</g>
	</g>
</g>
<g>
	<g>
		<g>
			<defs>
				<rect id="SVGID_3_" x="173.2" y="10" width="287.6" height="236.7"/>
			</defs>
			<clipPath id="SVGID_4_">
				<use xlink:href="#SVGID_3_"  style="overflow:visible;"/>
			</clipPath>
			<g class="st43">
				<path class="st44" d="M418.1,314.3H266.5c0,0,11.8-161.5,11.6-169.4c-0.2-8.1,1.8-12.7,5.9-15.6c4.4-3,42.7-18.3,42.7-18.3
					l30.1-6.5c0,0,39.6,22.3,45.3,26.1c5.7,3.8,6.3,8.3,6.1,18.8C408.2,159.8,418.1,314.3,418.1,314.3z"/>
				<g>
					<path class="st44" d="M284.5,129.1c-8.1,4.9-13.8,13.5-21.8,25.5c-8.1,12.3-43.3,71.6-44.7,76s-5.3,13.5,0.2,22.9
						c7.5,7.5,23.5,10.5,42.1-9.9c10.1-11.1,22.4-30.3,31.3-45.3c9.9-16.6,13.1-36.6,8.1-55.4C296.8,132.4,292.2,124.5,284.5,129.1z
						"/>
				</g>
				<path class="st44" d="M404.3,132.1c0,0,22.8,12.1,24.9,44.5c2.6,38.3,4.6,74,4.6,74L396.3,234l-0.9-72.8
					C395.4,161.2,394,135.3,404.3,132.1z"/>
				<path class="st28" d="M321.3,111.9c0,0-17.5,37.3-16.2,65.3s19.4,74.5,19.4,74.5s24.2-106.9,35-129.4c0,0,0.9-12.1-2.7-17.8
					L321.3,111.9z"/>
				<g>
					<path class="st45" d="M311.5,117.1c-13.2,19-22.5,58.6-22.6,59v0.1l8.6,34.7c0.1,0.3,0.3,0.5,0.6,0.5c0,0,0.1,0,0.2,0
						c0.3-0.1,0.5-0.4,0.5-0.8l-8.5-34.4c0.6-2.7,9.7-40.3,22.4-58.5c0.2-0.3,0.1-0.7-0.2-0.9C312.1,116.7,311.7,116.8,311.5,117.1z
						"/>
					<path class="st45" d="M369.9,112c0-0.3-0.3-0.6-0.7-0.6c-0.3,0-0.6,0.3-0.6,0.7c2.4,36.6,1.4,70.2,1.3,72.9l-17.1,26.8
						c-0.2,0.3-0.1,0.7,0.2,0.9c0.1,0.1,0.2,0.1,0.3,0.1c0.2,0,0.4-0.1,0.5-0.3l17.2-26.9l0.1-0.1v-0.2
						C371.2,184.8,372.3,150.1,369.9,112z"/>
				</g>
				<g>
					<polygon class="st46" points="339.9,134 323.3,145.2 316.1,133.2 328.7,118.8 					"/>
					<path class="st46" d="M326.8,117.9l-15.5,92.7c1.4,5.1,2.8,10,4.3,14.7l5.1,6.8l9.7-14.6L326.8,117.9z"/>
				</g>
				<g>
					<path class="st6" d="M355.7,107.7l-35.6,7.5c0,0-3.3,7-6.9,17.2l3.6,9.8l8.4-11.2l9.2,12.4c0,0,8.4-3.8,22.2-14.3
						c0.4-1.1,2.8-5.7,3.2-6.6C359.9,122.6,359.3,113.5,355.7,107.7z"/>
					<path class="st28" d="M356.9,104.4l-35.6,7.5c0,0-3.3,7-6.9,17.2l3.2,8.9l8.4-11.2l8.9,13.5c0,0,9.6-4.8,23.4-15.2
						c0.4-1.1,0.9-2,1.3-2.9C359.7,122.2,360.5,110.1,356.9,104.4z"/>
					<g>
						<g>
							<path class="st47" d="M293.1,75.6c-0.3-0.3-7.4-5.5-9.6-15.5c-2.1-9.4,2.7-15,2.7-15s-4.8-15.4,6.7-21.8s33.5-5.6,52.2,6.2
								s8.4,41.6,3.2,45.1C343.4,78.3,293.1,75.6,293.1,75.6z"/>
							
								<ellipse transform="matrix(0.9709 -0.2393 0.2393 0.9709 -10.629 73.2157)" class="st48" cx="296.2" cy="80.4" rx="8.3" ry="8.3"/>
							
								<ellipse transform="matrix(0.9709 -0.2393 0.2393 0.9709 -6.4157 86.1331)" class="st48" cx="351.5" cy="69.5" rx="8.3" ry="8.3"/>
							<path class="st48" d="M344.4,65.6l-1.4-4.7c-0.5-2.2-2-3.9-4.1-4.8l0,0c-2.1-0.9-3.6-2.8-4.1-4.8c-1.1-4.3-5.4-6.8-9.5-5.8
								l-26.6,6.6c-4.3,1.1-6.8,5.4-5.8,9.5c2.6,10.6,7,28.6,8.1,31.9c1.6,4.8,2.7,8.3,6.4,10.7c0.2,0.1,0.3,0.3,0.5,0.3
								c2.9,1.8,8,4.5,11.5,3.6l2.3,9.2c0.3,0.3,0.4,0.7,0.5,1.1c4.3,2.3,8.8,2.2,14.2,1.3c5.4-0.9,18.5-4,21.2-14.4l-10.3-42.7
								L344.4,65.6z"/>
							<g>
								<path class="st47" d="M322.3,73.4c0.2,1-0.3,2.2-1.5,2.4c-1.2,0.3-2.2-0.3-2.4-1.5c-0.2-1,0.3-2.2,1.5-2.4
									C321,71.6,322,72.4,322.3,73.4z"/>
							</g>
							<g>
								<path class="st47" d="M306,77.4c0.2,1-0.3,2.2-1.5,2.4c-1,0.2-2.2-0.3-2.4-1.5c-0.2-1,0.3-2.2,1.5-2.4
									C304.8,75.8,305.8,76.4,306,77.4z"/>
							</g>
							
								<ellipse transform="matrix(0.9709 -0.2393 0.2393 0.9709 -8.918 82.5001)" class="st14" cx="335.3" cy="78" rx="5.6" ry="5.6"/>
							<path class="st14" d="M297.7,80.7c1.1,4.3,2,8,2.8,10.3c0.6,0.1,1.3,0.1,1.7,0c3.1-0.8,4.9-3.9,4.1-6.8
								c-0.8-3.1-3.9-4.9-6.8-4.1C298.6,80.2,298.2,80.3,297.7,80.7z"/>
							<path class="st47" d="M345.6,63.5l-12.1-0.9l-40.8,9.6c0,0,2.3,7,2.7,9c0.7,2.1,1.8,4.1,4.7,4.7c2.8,0.4,8.3-1.3,9.6-2
								c2.1-1.6,2.1-3.4,1.9-4.8c-0.1-1.2-1.2-6.8-1.8-8.9l3.1-0.8c0.3,2,1.2,5.7,1.6,7.3c0.7,2.1,1.9,4.3,5.3,4.7
								c3.4,0.2,10.7-2,12.3-3c2.5-1.7,3-3.7,2.9-5.1c0-0.8,0.1-3.7-0.6-7.7l10.1-0.5L345.6,63.5z M309.2,73.7
								c0.3,2,1.5,6.9-0.7,8.1c-1.8,1.1-5.6,1.8-8,2c-2.3,0.1-1.8-0.8-3-2.8c-0.8-1.7-1.7-6-2.1-7.8l12.9-2.7
								C308.7,71.8,308.9,72.3,309.2,73.7z M332.6,68.1c0.3,2,1.5,6.9-1.3,8.2c-2.2,1.2-7.2,2.6-10.1,2.9c-2.6,0.2-3.9-0.7-5-2.5
								c-0.8-1.7-1.9-6-2.1-7.8l17.8-4.4C332.2,65.5,332.4,66.5,332.6,68.1z"/>
							<g>
								<g>
									<path class="st47" d="M314,88.3c-0.6,0.1-1.2,0-1.8-0.3c-0.7-0.4-1.2-1.1-1.2-1.9l-1.1-5.1l1.6-2.2l2,7.2h0.1l0.3,0.1
										l5.1-1.3l0.5,2l-5.1,1.3C314.1,88.3,314.1,88.3,314,88.3z"/>
								</g>
							</g>
							<polygon class="st2" points="319.4,108.1 337.8,103.6 320.6,113.8 							"/>
						</g>
						<g>
							<path class="st2" d="M313.7,95l0.3-1.5c0,0,9.4,1.7,14.8-5.6l1.2,0.9c-2.8,3.7-6.2,5.3-9.3,6C317.1,95.6,314.1,95,313.7,95z"
								/>
						</g>
					</g>
				</g>
			</g>
		</g>
	</g>
	<g>
		<polygon class="st49" points="397.9,149.4 393.8,224 377.4,219.6 		"/>
		<path class="st49" d="M338.8,216.2c0,0,3.5-5.3,7.2-4.9s44,11.9,44,11.9l-2.3-9.4l-42.3-5.3c0,0-8-1.4-10.7,3.3l2.5,5.5
			L338.8,216.2z"/>
		<g>
			<g>
				<path class="st44" d="M335.2,229.6c0,0-2.5,12.5,2.3,20.6c3.6,6.8,30,16.3,48.5,19.7c18.3,3.5,35,7,44.7-5.9
					c9.7-12.9-1.4-27.5-7.3-30.3c-6-3-72.5-22.4-77.2-23.8C341.1,208.7,337.2,224,335.2,229.6z"/>
				<path class="st48" d="M351.3,220.2c0.5,5.6,0.6,15.3-2.2,22.3l-12.7-4.8l-14.8-5.7c-3.1-7.5,8.6-16.5,8.6-16.5s3.8,0.7,10.2,2.2
					C343.6,218.2,347.2,219.2,351.3,220.2z"/>
			</g>
			<g>
				<path class="st50" d="M314.8,231.4c0,0,5.8,2.4,9.2,1.8c3.4-0.6,4.2-3.1,6.8-3.2c2.6,0,4.5,0,7.3-3.6c2.6-3.5,2-6.9-1.4-11.7
					s-10.3-15.2-15.1-10.5c-13.3,2.6-18.2,4.9-19.5,10.7C300.6,220.7,310.9,218,314.8,231.4z"/>
				<path class="st48" d="M307.2,202.5c0,0-2.6-4.5-5.9-1.1c-3.2,3.6-1.7,24.5,0,25.9c1.8,1.6,2.6,0.6,3.8-0.8
					c1.1-1.4,1.6-11.3,1.6-11.3s-0.3,6.2,3.1,6.6c2.4,0.5,3.5-2.4,3.5-2.4s1.2,2.7,3.5,2.1s2.9-3.7,2.9-3.7s0.3,2.7,2.6,2.5
					c2.4,0,3.5-1.9,4-3.2c0.3-1.2,1.4-10.1,0.3-12.2c-1.1-2.1-3.7-2.9-4.8-1.1c-2.6-3-6.1-2.1-7.2-0.7
					C313.1,200.8,310.2,200.1,307.2,202.5z"/>
				<path class="st48" d="M309.1,226.7c0,0-1.6,1.3-1,3.7c0.4,2.4,3.7,3.1,6.5,3.6s8.9,1.1,10,0.6c1.3-0.6,2.8-1,1.9-3
					c-1-1.7-4.9-3.3-7.5-3.9C316.6,227.1,310.4,225.3,309.1,226.7z"/>
				<path class="st51" d="M306.1,206.9c-0.5,2.4-0.7,4.8-0.7,7.2c-0.1,2.2-0.1,4.8,0.6,6.9c0.2,0.5,1,0.4,1.1,0
					c0.1-1.1-0.1-2.3-0.2-3.4c-0.1-1.2-0.1-2.3-0.1-3.6c0-2.4,0.2-4.6,0.5-6.9C307.2,206.4,306.2,206.2,306.1,206.9z"/>
				<path class="st51" d="M312.6,208.6c-0.2,2-0.6,4.1-0.8,6.2c-0.2,2-0.6,4.1-0.4,6c0,0.9,1.5,1.1,1.8,0.3c0.5-1.9,0.6-4.1,0.7-5.9
					c0.2-2,0.3-4.2,0.3-6.2C314.4,207.6,312.8,207.4,312.6,208.6z"/>
				<path class="st51" d="M319.8,208.3c-0.5,3.9-1.2,7.6-1.1,11.5c-0.1,0.7,1.1,0.6,1.3,0.1c0.7-3.8,0.6-7.6,0.9-11.4
					C320.6,207.7,319.8,207.6,319.8,208.3z"/>
			</g>
		</g>
		<g>
			<line class="st52" x1="399.2" y1="225.7" x2="415" y2="232"/>
			<line class="st52" x1="396.5" y1="229.2" x2="405.4" y2="236.6"/>
		</g>
	</g>
	<g>
		<g>
			<path class="st53" d="M344.9,246.5H162v11.7h186.8c2.2,0,4-1.8,4-4l0,0C352.7,250,349.2,246.5,344.9,246.5z"/>
		</g>
		<g>
			<path class="st54" d="M286.2,204.3c-0.1-0.2-6.6-24.8-10.9-32.5c-4.2-7.5-9.3-9-9.4-9l0.2-0.8c0.2,0.1,5.6,1.6,9.9,9.5
				c4.3,7.7,10.7,31.7,11,32.7L286.2,204.3z"/>
		</g>
		<g>
			<path class="st54" d="M306,247c-5,0-6.2-2.2-6.2-2.3l-10.4-31.2l0.8-0.3l10.4,31.1l0,0c0,0,1.1,1.8,5.4,1.8L306,247L306,247z"/>
		</g>
		<g>
			<path class="st53" d="M304.1,258.2H170.4c-2.8,0-5.3-1.8-6.2-4.4l-27.8-83c-1.4-4.2,1.7-8.5,6.2-8.5h128.6
				c5.9,0,11.1,3.7,12.9,9.2l26.2,78.2C311.7,253.9,308.6,258.2,304.1,258.2z"/>
		</g>
		<g>
			<path class="st53" d="M295.7,258.2H162c-2.8,0-5.3-1.8-6.2-4.4l-27.8-83c-1.4-4.2,1.7-8.5,6.2-8.5h128.6c5.9,0,11.1,3.7,12.9,9.2
				l26.2,78.2C303.3,253.9,300.2,258.2,295.7,258.2z"/>
		</g>
		<g>
			<path class="st55" d="M202,207.6c0-3.2,3.6-4.4,6.8-4.4s8.4,3.5,8.3,7.9c0,4.8-3.8,5.4-6.9,5.4S202,211.6,202,207.6z"/>
		</g>
	</g>
</g>
</svg>
