<?xml version="1.0" encoding="utf-8"?>
<!-- Generator: Adobe Illustrator 25.3.1, SVG Export Plug-In . SVG Version: 6.00 Build 0)  -->
<svg version="1.1" id="圖層_1" xmlns="http://www.w3.org/2000/svg" xmlns:xlink="http://www.w3.org/1999/xlink" x="0px" y="0px"
	 viewBox="0 0 720 300" style="enable-background:new 0 0 720 300;" xml:space="preserve">
<style type="text/css">
	.st0{fill:#192A47;}
	.st1{fill:#FF7361;}
	.st2{fill:#6B6170;}
	.st3{fill:#332938;}
	.st4{fill:#E8DFD8;}
	.st5{fill:#EEAD8D;}
	.st6{fill:#A35A5F;}
	.st7{fill:#D6C5CF;}
	.st8{fill:#D68E58;}
	.st9{fill:#C75450;}
	.st10{fill:none;stroke:#C1A6C1;stroke-width:1.0225;stroke-miterlimit:10;}
	.st11{fill:#72CDF5;}
	.st12{fill:#564E59;}
	.st13{fill:#5F99BA;}
	.st14{fill:#C74E4A;}
	.st15{opacity:0.3;fill:#A35A5F;enable-background:new    ;}
	.st16{opacity:0.3;fill:none;stroke:#A35A5F;stroke-width:0.9202;stroke-miterlimit:10;enable-background:new    ;}
	.st17{opacity:0.3;}
	.st18{fill:#C1C1C1;}
	.st19{fill:#7C7C7C;}
	.st20{fill:#ED6B5A;}
	.st21{fill:#AF3145;}
	.st22{fill:#665B6B;}
	.st23{fill:#FFE9E0;}
	.st24{opacity:0.4;fill:#835353;enable-background:new    ;}
	.st25{fill:#F3ECF1;}
	.st26{fill:#FFFFFF;}
	.st27{fill:#FFC1A3;}
	.st28{opacity:0.45;fill:#F97C07;enable-background:new    ;}
	.st29{fill:#F16C59;}
	.st30{fill:#0E7DB5;}
	.st31{fill:#BE645D;}
	.st32{fill:#C1A6C1;}
	.st33{fill:#484053;}
	.st34{fill:#2C2334;}
	.st35{fill:#FF8D7C;}
	.st36{fill:#1E314C;}
	.st37{fill:#313F66;}
	.st38{fill:#2A3854;}
	.st39{fill:none;stroke:#3C4E75;stroke-width:1.3558;stroke-miterlimit:10;}
	.st40{fill:#E4EFF7;}
	.st41{fill:#E20514;}
	.st42{fill:#FF7366;}
	.st43{fill:#F45555;}
	.st44{fill:none;stroke:#1E314C;stroke-width:1.3558;stroke-miterlimit:10;}
	.st45{fill:none;stroke:#332938;stroke-width:1.5337;stroke-linecap:round;stroke-miterlimit:10;}
	.st46{display:none;}
	.st47{display:inline;}
	.st48{fill:#0D6694;}
</style>
<g id="Layer_1">
	<g>
		<g>
			<g>
				<path class="st0" d="M660.3,261.9H628l0.6,12.5c0.2,5.5-3,6.7-9.2,9.7c-0.6,0.3-1.2,0.7-1.8,1c-3.4,2.2-4.7,5-5.2,7.3
					c-0.1,0.3-0.1,0.6-0.1,0.9c-0.2,1.6,0,2.7,0,2.7h49.5L660.3,261.9z"/>
			</g>
		</g>
		<path class="st1" d="M628.2,267l32.6,1.2l0.6,16c0,0-7.7-0.7-10.9-4.8c-4.8-6-21.8-3.9-21.8-3.9L628.2,267z"/>
		<g>
			<g>
				<path class="st2" d="M661.6,292.3l0.1,0.9h-49.4c0-0.3,0.1-0.6,0.1-0.9H661.6z"/>
			</g>
		</g>
		<g>
			<g>
				<g>
					<path class="st2" d="M638.8,285.5c8,0,15.9,7.7,15.7,7.5l1-0.4c-0.1-0.1-8.1-7.9-16.8-7.9h-20.5c-0.5,0.3-0.9,0.6-1.3,0.9"/>
				</g>
			</g>
		</g>
	</g>
	<g>
		<g>
			<g>
				<path class="st0" d="M702,261.9h-32.3l0.6,12.5c0.2,5.5-3,6.7-9.2,9.7c-0.6,0.3-1.2,0.7-1.8,1c-3.4,2.2-4.7,5-5.2,7.3
					c-0.1,0.3-0.1,0.6-0.1,0.9c-0.2,1.6,0,2.7,0,2.7h49.5L702,261.9z"/>
			</g>
		</g>
		<path class="st1" d="M669.9,267l32.6,1.2l0.6,16c0,0-7.7-0.7-10.9-4.8c-4.8-6-21.8-3.9-21.8-3.9L669.9,267z"/>
		<g>
			<g>
				<path class="st2" d="M703.3,292.3l0.1,0.9H654c0-0.3,0.1-0.6,0.1-0.9H703.3z"/>
			</g>
		</g>
		<g>
			<g>
				<g>
					<path class="st2" d="M680.4,284.7h-20.5c-0.5,0.3-0.9,0.6-1.3,0.9h21.9c8,0,15.9,7.7,15.7,7.5l1-0.4
						C697.1,292.5,689.1,284.7,680.4,284.7z"/>
				</g>
			</g>
		</g>
	</g>
	<g>
		<g>
			<g>
				<g>
					<g>
						<path class="st1" d="M408.6,189.1c0,0,1.8,16.1-0.2,15.5c-2-0.5-3.7-14.8-3.7-14.8L408.6,189.1z"/>
					</g>
					<g>
						<path class="st1" d="M399,188.4c0,0,4.1,15.6,2.1,15.4c-2.1-0.2-5.9-14.1-5.9-14.1L399,188.4z"/>
					</g>
					<g>
						<path class="st1" d="M395.5,190.1c-1.6-3.6,0.3-7.5,3.8-9.2s7.6-0.1,9.2,3.5s0.1,7.9-3.4,9.6
							C401.6,195.7,397.1,193.7,395.5,190.1z"/>
					</g>
					<g>
						<path class="st1" d="M404.8,190.1c0,0,1.9,16.4-0.3,16.1c-2.2-0.3-4-14.9-4-14.9L404.8,190.1z"/>
					</g>
					<g>
						<path class="st1" d="M406.9,182.3c0,0,1.5,1.7,3.3,5.2c1.7,3.4,2.8,8.7,2,9.5s-7.7-10.3-7.7-10.3L406.9,182.3z"/>
					</g>
					<g>
						<g>
							<path class="st3" d="M400.4,187.7c0.1,0.2,0.3,1.7,1.7,3.2c1.4,1.4,4,0.7,4.9,0.4l2.2,3l0.6-0.5l-2.5-3.5l-0.3,0.1
								c-0.1,0-3.1,1.2-4.4-0.2c-1.4-1.4-1.5-2.8-1.5-2.8L400.4,187.7C400.4,187.6,400.4,187.6,400.4,187.7z"/>
						</g>
					</g>
					<g>
						<g>
							<path class="st3" d="M400.3,194.3c0.1,0,1.3,0.2,2.9,0.2c0.9,0,2.8-0.5,2.9-0.5l-0.2-0.7c0,0-1.9,0.5-2.7,0.5
								c-1.5,0-2.7-0.2-2.8-0.2L400.3,194.3z"/>
						</g>
					</g>
				</g>
				<path class="st1" d="M390.7,111.5c0,0,10.1,7.5,10.8,21.6l5,48.5l-12.6,1.8L390.7,111.5z"/>
			</g>
			<g>
				<path class="st1" d="M301.9,140.3c0.4-1,19.3-45.4,34.3-35.6c13.8,9.1-18.3,48-18.3,48L301.9,140.3z"/>
			</g>
			<g>
				<path class="st1" d="M322.5,185.4l2.7-38.9c-0.1-8.6-3.4-15.6-12.4-14.2l0,0c-8.4,1.4-13.8,8.7-12.9,16.7l12.2,38.5L322.5,185.4
					z"/>
			</g>
			<g>
				<polygon class="st3" points="305.7,121.8 326.4,102.2 332.6,129.1 324.4,141.5 				"/>
			</g>
			<g>
				<path class="st4" d="M328.8,296.1h31v-34.6h-20.2v12.7c0,5.5-2,6.9-6,9.8c-0.1,0.1-0.2,0.2-0.3,0.2c-0.4,0.3-0.7,0.6-0.9,0.9
					c-2.1,2.2-3,5.1-3.4,7.3c-0.1,0.3-0.1,0.6-0.1,0.9C328.7,294.9,328.8,296.1,328.8,296.1z"/>
			</g>
			<g>
				<g>
					<g>
						<path class="st5" d="M338,203.4h2.4c10.7,0,19.5,8.7,19.5,19.5v42.5h-41.3v-42.5C318.5,212.1,327.2,203.4,338,203.4z"/>
					</g>
				</g>
			</g>
			<g>
				<rect x="339.6" y="265.3" class="st6" width="20.2" height="8.9"/>
			</g>
			<g>
				<path class="st7" d="M328.9,293.3h31v-0.9H329C329,292.7,328.9,293,328.9,293.3z"/>
			</g>
			<g>
				<g>
					<rect x="318.5" y="257.3" class="st8" width="41.4" height="0.9"/>
				</g>
			</g>
			<g>
				<g>
					<g>
						<path class="st5" d="M359.9,222.1l-41.4-0.1c0,0,2-50.4,8.2-73.7h33.1L359.9,222.1L359.9,222.1z"/>
					</g>
				</g>
			</g>
			<g>
				<g>
					<polygon class="st8" points="358.3,257.7 357.5,257.7 358,188.8 358.8,188.8 					"/>
				</g>
			</g>
			<g>
				<path class="st4" d="M388.2,261.6l4.2,30.9l0.1,0.9l0.4,2.8h31c0,0-0.1-1.1-0.5-2.8c-0.1-0.3-0.2-0.6-0.2-0.9
					c-0.8-2.7-2.4-6.1-5.7-8.4c-4.4-3-6.6-4.3-7.4-9.8l-1.7-12.7H388.2z"/>
			</g>
			<g>
				<g>
					<g>
						<path class="st5" d="M385.3,203.3h-3.9c-10.3,0-17.4,9.2-15.9,20.4l5.7,41.5h41.4l-5.7-41.5
							C405.3,212.5,395.7,203.3,385.3,203.3z"/>
					</g>
				</g>
			</g>
			<g>
				<polygon class="st6" points="410.2,274.2 389.9,274.2 388.7,265.2 409,265.2 				"/>
			</g>
			<g>
				<polygon class="st3" points="409,265.2 388.7,265.2 389.2,269.3 				"/>
			</g>
			<g>
				<path class="st7" d="M392.5,292.4l0.1,0.9h31c-0.1-0.3-0.2-0.6-0.2-0.9H392.5z"/>
			</g>
			<g>
				<g>
					<rect x="370.2" y="257.2" class="st8" width="41.4" height="0.9"/>
				</g>
			</g>
			<g>
				<g>
					<g>
						<path class="st5" d="M365.3,222.1l41.4-0.1c0,0-4.7-50.3-18.3-73.6h-33.2L365.3,222.1z"/>
					</g>
				</g>
			</g>
			<g>
				<g>
					<polygon class="st8" points="372.4,257.8 361.3,188.9 362.1,188.7 373.1,257.6 					"/>
				</g>
			</g>
			<g>
				<polygon class="st3" points="320.6,190.2 401.9,190.2 392.6,108.4 386.1,102.3 380.7,97.2 365.9,83.1 353.2,83.1 339.5,92.9 
					334.2,96.7 326.4,102.2 				"/>
			</g>
			<g>
				<polygon class="st3" points="323.8,141 329.7,133.2 322.9,155.5 				"/>
			</g>
			<g>
				<g>
					<g>
						<rect x="337.6" y="281.4" class="st7" width="8.5" height="0.9"/>
					</g>
				</g>
				<g>
					<g>
						<rect x="339.2" y="279.4" class="st7" width="8.5" height="0.9"/>
					</g>
				</g>
				<g>
					<g>
						<rect x="340.8" y="277.4" class="st7" width="8.5" height="0.9"/>
					</g>
				</g>
			</g>
			<g>
				<g>
					<g>
						<rect x="404.3" y="281.2" class="st7" width="8.5" height="0.9"/>
					</g>
				</g>
				<g>
					<g>
						<rect x="402.7" y="279.2" class="st7" width="8.5" height="0.9"/>
					</g>
				</g>
				<g>
					<g>
						<rect x="401.1" y="277.2" class="st7" width="8.5" height="0.9"/>
					</g>
				</g>
			</g>
			<g>
				<g>
					<path class="st7" d="M355.5,292.5l-0.7,0.4c-0.1-0.1-3.7-7.8-8.7-7.8h-13.8c0.3-0.3,0.6-0.6,0.9-0.9h12.9
						C351.6,284.3,355.3,292.2,355.5,292.5z"/>
				</g>
			</g>
			<g>
				<g>
					<path class="st7" d="M396.3,292.7l0.7,0.4c-0.1,0.2,3.5-7.6,8.6-7.6h13.8c-0.3-0.3-0.6-0.6-0.9-0.9h-12.8
						C400.1,284.7,396.4,292.6,396.3,292.7z"/>
				</g>
			</g>
			<g>
				<g>
					<path class="st8" d="M394.1,234.7c-5.8,0-11-5.9-12-13.8c-1.1-8.5,3.2-16.2,9.4-17.1c0.4-0.1,0.8-0.1,1.2-0.1
						c5.8,0,11,5.9,12,13.8c0.5,4.1-0.2,8.1-1.9,11.3c-1.8,3.2-4.4,5.3-7.5,5.7C394.9,234.7,394.5,234.7,394.1,234.7z M392.8,204.5
						c-0.4,0-0.8,0.1-1.1,0.1c-5.8,0.9-9.8,8.1-8.7,16.2c0.9,7.5,5.7,13.1,11.2,13.1c0.4,0,0.8-0.1,1.1-0.1c2.8-0.4,5.3-2.3,6.9-5.3
						c1.7-3.1,2.4-6.9,1.8-10.8C403.1,210.2,398.2,204.5,392.8,204.5z"/>
				</g>
			</g>
			<g>
				<g>
					<path class="st8" d="M332,234.7L332,234.7c-0.4,0-0.8-0.1-1.2-0.1c-3-0.5-5.7-2.5-7.5-5.7c-1.7-3.2-2.5-7.3-1.9-11.3
						c1-7.9,6.1-13.8,12-13.8c0.4,0,0.8,0.1,1.2,0.1c6.2,0.9,10.4,8.6,9.4,17.1C343,228.7,337.8,234.7,332,234.7z M333.3,204.5
						c-5.5,0-10.3,5.6-11.2,13.1c-0.5,3.9,0.2,7.8,1.8,10.8c1.6,3,4.1,4.9,6.9,5.3c0.4,0.1,0.8,0.1,1.1,0.1
						c5.5,0,10.3-5.6,11.2-13.1c1-8-2.9-15.3-8.7-16.2C334.1,204.6,333.7,204.5,333.3,204.5z"/>
				</g>
			</g>
			<g>
				<polygon class="st3" points="339.6,265.3 359.9,268.3 359.9,265.3 				"/>
			</g>
			<g>
				<path class="st1" d="M353.2,83.1h12.6c0,0-1.3,4.4-4.7,4.4C358,87.6,353.2,83.1,353.2,83.1z"/>
			</g>
			<g>
				<g>
					<g>
						<g>
							<polygon class="st5" points="375.4,117.6 381.9,117.4 386.1,102.3 380.7,97.2 							"/>
						</g>
					</g>
				</g>
			</g>
			<g>
				<g>
					<g>
						<g>
							<polygon class="st5" points="334.2,96.7 349.3,117 355.1,114.1 339.5,92.9 							"/>
						</g>
					</g>
				</g>
			</g>
			<g>
				<g>
					<g>
						<path class="st5" d="M320.6,190.2h81.2l-2.9-25.3l-0.1-0.9l-1-9.2l-5.8-3.3l-6.8-31.2l-0.2-0.9l-1-4.5
							c-0.3-1.4-1.6-2.5-3.1-2.5h-32.3c-1.9,0-3.6,1.3-4,3.2l-0.8,3.7l-0.2,0.9l-6.6,30.3l-14.4,6.7l-0.4,6.6l-0.1,0.9L320.6,190.2z
							"/>
					</g>
				</g>
			</g>
			<g>
				<g>
					<path class="st8" d="M378.6,116.6c0,0.5,0.4,0.9,0.9,0.9s0.9-0.4,0.9-0.9s-0.4-0.9-0.9-0.9S378.6,116.1,378.6,116.6z"/>
				</g>
			</g>
			<g>
				<g>
					<path class="st8" d="M350.4,116.6c0,0.5,0.4,0.9,0.9,0.9s0.9-0.4,0.9-0.9s-0.4-0.9-0.9-0.9S350.4,116.1,350.4,116.6z"/>
				</g>
			</g>
			<g>
				<polygon class="st8" points="322.3,164.9 399,164.9 398.9,164.1 322.4,164.1 				"/>
			</g>
			<g>
				<polygon class="st3" points="362.3,190.2 358,190.2 349.4,185.8 371.7,185.8 				"/>
			</g>
			<g>
				<polygon class="st8" points="343.7,120.4 385.3,120.4 385.1,119.5 343.9,119.5 				"/>
			</g>
			<g>
				<path class="st8" d="M362.4,158h6.9c7.9,0,14.4-6.4,14.4-14.4v-18.1h-35.6v18.1C348,151.6,354.5,158,362.4,158z M382.8,126.4
					v17.2c0,7.5-6.1,13.5-13.5,13.5h-6.9c-7.5,0-13.5-6.1-13.5-13.5v-17.2L382.8,126.4L382.8,126.4z"/>
			</g>
			<g>
				<rect x="361.9" y="164.5" class="st8" width="0.9" height="21.3"/>
			</g>
			<g>
				<path class="st8" d="M362.5,182.4h-0.2v-0.9h0.2c3.2,0,5.8-2.6,5.8-5.8v-11.2h0.9v11.2C369.2,179.4,366.2,182.4,362.5,182.4z"/>
			</g>
			<g>
				<ellipse class="st3" cx="361.4" cy="52.7" rx="17.4" ry="16.6"/>
				<ellipse class="st3" cx="359.8" cy="55.2" rx="20.8" ry="19.7"/>
				<g>
					<rect x="353.4" y="64.8" class="st1" width="12.4" height="18.5"/>
				</g>
				<g>
					<polygon class="st3" points="365.8,76.4 360.4,75.6 365.8,81.1 					"/>
				</g>
				<g>
					<path class="st1" d="M365.6,77.6L354,74.9V58.2c0-6.1,5.2-11,11.5-11l0,0c6.4,0,11.5,4.9,11.5,11v13.1
						C377.1,75.9,369.8,78.4,365.6,77.6z"/>
				</g>
				<g>
					<g>
						<path class="st3" d="M371.2,65.5c-0.1,0-0.1,0-0.2,0h-1.8v-0.8l2.1-0.1l0,0l0.1-0.1v-2.2h0.8v2.2c0.1,0.3-0.1,0.5-0.3,0.7
							C371.7,65.4,371.5,65.5,371.2,65.5z"/>
					</g>
				</g>
				<g>
					<circle class="st9" cx="362.7" cy="64.3" r="3.3"/>
				</g>
				<g>
					<rect x="353.3" y="45.1" class="st3" width="5.6" height="16"/>
				</g>
				<g>
					<path class="st9" d="M377.1,61.2v6c-0.2,0.1-0.5,0.1-0.7,0.1c-1.5,0-2.8-1.4-2.8-3.1c0-1.7,1.2-3.1,2.8-3.1
						C376.6,61.1,376.9,61.1,377.1,61.2z"/>
				</g>
				<g>
					<ellipse class="st1" cx="351.9" cy="62.7" rx="5.3" ry="5.3"/>
				</g>
				<g>
					<g>
						<circle class="st3" cx="364.9" cy="61.4" r="1"/>
					</g>
					<g>
						<circle class="st3" cx="374" cy="61.4" r="1"/>
					</g>
				</g>
				<g>
					<path class="st3" d="M370.5,72.2c-1.1,0.2-2.6-0.1-4.2-1.6l0.3-0.8c3.1,3.1,5.9,0.4,5.9,0.4l0.4,0.8
						C372.8,71.1,371.9,72,370.5,72.2z"/>
				</g>
			</g>
			<g>
				<g>
					<path class="st1" d="M322.8,198.4c0,0-5.1,11.1-6.9,9.3c-1.8-1.9,2.2-11,2.2-11L322.8,198.4z"/>
				</g>
				<g>
					<path class="st1" d="M313.5,192.4c0,0-0.5,10.5-2.6,8.9s-2.4-10-2.4-10L313.5,192.4z"/>
				</g>
				<g>
					<path class="st1" d="M307.8,190.8c0.6-5,5.3-7.9,10.1-7.5c4.9,0.5,8.3,4.9,7.7,9.8c-0.6,5-5.1,8.6-9.9,8.1
						C310.8,200.9,307.2,195.8,307.8,190.8z"/>
				</g>
				<g>
					<path class="st1" d="M317.9,197.8c0,0-2.1,9.2-4.3,7.4c-2.2-1.8-1.1-8.9-1.1-8.9L317.9,197.8z"/>
				</g>
				<g>
					<path class="st1" d="M325.3,189.8c0,0,0.6,2.9,0.2,7.7c-0.4,4.9-2.4,9.5-3.7,9.8c-1.4,0.3-1.9-14.3-1.9-14.3L325.3,189.8z"/>
				</g>
			</g>
			<polygon class="st1" points="322.8,153 323,186.3 316.4,185.4 			"/>
			<polygon class="st3" points="390.8,106.9 393.8,109.9 407.7,136.9 394.3,145.9 			"/>
		</g>
		<line class="st10" x1="323.8" y1="141" x2="332.3" y2="120.6"/>
		<line class="st10" x1="392.9" y1="121.7" x2="396.7" y2="143.6"/>
		<path class="st3" d="M362.5,55.9L362.5,55.9c-2.2,0-4-1.8-4-4v-6.5c0-2.2,1.8-4,4-4l0,0c2.2,0,4,1.8,4,4v6.5
			C366.5,54.1,364.7,55.9,362.5,55.9z"/>
		<path class="st3" d="M369.7,54L369.7,54c-2.2,0-4-1.8-4-4v-6.5c0-2.2,1.8-4,4-4l0,0c2.2,0,4,1.8,4,4V50
			C373.7,52.2,372,54,369.7,54z"/>
		<path class="st3" d="M375.2,56.4L375.2,56.4c-1.6,0-3-1.3-3-3v-5.1c0-1.6,1.3-3,3-3l0,0c1.6,0,3,1.3,3,3v5.1
			C378.1,55,376.8,56.4,375.2,56.4z"/>
	</g>
	<g>
		<g>
			<g>
				<path class="st1" d="M341.8,162.5c0,0,1.9,16.6-0.2,16.1s-3.9-15.3-3.9-15.3L341.8,162.5z"/>
			</g>
			<g>
				<path class="st1" d="M331.9,161.8c0,0,4.3,16.1,2.1,15.9c-2.1-0.3-6-14.6-6-14.6L331.9,161.8z"/>
			</g>
			<g>
				<path class="st1" d="M328.2,163.5c-1.6-3.7,0.4-7.8,3.9-9.5c3.6-1.7,7.8-0.1,9.5,3.6c1.6,3.7,0.1,8.2-3.5,9.9
					C334.5,169.3,329.9,167.3,328.2,163.5z"/>
			</g>
			<g>
				<path class="st1" d="M338,163.5c0,0,2,17-0.3,16.7s-4.2-15.4-4.2-15.4L338,163.5z"/>
			</g>
			<g>
				<path class="st1" d="M340,155.4c0,0,1.6,1.8,3.4,5.3s2.9,9,2.1,9.9c-0.8,0.8-8-10.6-8-10.6L340,155.4z"/>
			</g>
			<g>
				<g>
					<path class="st3" d="M333.3,161c0.1,0.2,0.3,1.8,1.8,3.3c1.4,1.4,4.2,0.7,5.1,0.4l2.2,3.1l0.6-0.5l-2.6-3.6l-0.2,0.3
						c-0.1,0-3.2,1.2-4.6-0.2s-1.6-2.9-1.6-2.9L333.3,161L333.3,161z"/>
				</g>
			</g>
			<g>
				<g>
					<path class="st3" d="M333.2,167.9c0.1,0,1.3,0.2,3,0.2c0.9,0,2.9-0.5,3-0.5l-0.2-0.8c0,0-1.9,0.5-2.8,0.5
						c-1.5,0-2.8-0.2-2.9-0.2L333.2,167.9z"/>
				</g>
			</g>
		</g>
		<path class="st11" d="M323.2,82.3c0,0,10.4,7.7,11.1,22.3l5.2,50.2l-13,1.8L323.2,82.3z"/>
		<g>
			<g>
				<g>
					<g>
						<path class="st3" d="M296.8,295.9h36.7c0,0,0.2-1.2,0-2.9c-0.1-0.3-0.1-0.6-0.1-0.9c-0.4-2.4-1.3-5.5-3.8-7.8
							c-0.4-0.4-0.9-0.7-1.3-1.1c-4.6-3.1-7-4.5-6.8-10.3l0.4-13.3H298L296.8,295.9z"/>
					</g>
				</g>
				<path class="st1" d="M321.4,274.1c0,0-12.6-2.2-16.2,4.2c-2.4,4.4-8.1,5.1-8.1,5.1l0.4-17.1l24.1-1.3L321.4,274.1z"/>
				<g>
					<g>
						<path class="st2" d="M333.4,292.1c0.1,0.3,0.1,0.6,0.1,0.9h-36.6l0.1-0.9H333.4z"/>
					</g>
				</g>
				<g>
					<g>
						<g>
							<path class="st2" d="M301.4,292.4l0.8,0.4c-0.2,0.2,5.7-8,11.6-8h16.3c-0.3-0.3-0.6-0.6-1-0.9H314
								C307.5,283.9,301.5,292.3,301.4,292.4z"/>
						</g>
					</g>
				</g>
			</g>
			<g>
				<g>
					<path class="st12" d="M300.9,195.9h4.7c12.2,0,21.5,9.9,21.8,22.1l-2.3,55l-31.2,0.3l-4.7-55.3
						C289,205.8,288.7,195.9,300.9,195.9z"/>
				</g>
			</g>
			<g>
				<polygon class="st12" points="327.4,217.4 289.2,216.1 288.3,168.9 327.4,168.9 				"/>
			</g>
			<g>
				<rect x="317.8" y="182.6" class="st3" width="0.9" height="90.4"/>
			</g>
		</g>
		<g>
			<g>
				<g>
					<path class="st3" d="M268.1,295.9h36.7c0,0,0.2-1.2,0-2.9c-0.1-0.3-0.1-0.6-0.1-0.9c-0.4-2.4-1.3-5.5-3.8-7.8
						c-0.4-0.4-0.9-0.7-1.3-1.1c-4.6-3.1-7-4.5-6.8-10.3l0.4-13.3h-24L268.1,295.9z"/>
				</g>
			</g>
			<path class="st1" d="M292.8,274.1c0,0-12.6-2.2-16.2,4.2c-2.4,4.4-8.1,5.1-8.1,5.1l0.4-17.1L293,265L292.8,274.1z"/>
			<g>
				<g>
					<path class="st2" d="M304.7,292.1c0.1,0.3,0.1,0.6,0.1,0.9h-36.6l0.1-0.9H304.7z"/>
				</g>
			</g>
			<g>
				<g>
					<g>
						<path class="st2" d="M272.8,292.4l0.8,0.4c-0.2,0.2,5.7-8,11.6-8h16.3c-0.3-0.3-0.6-0.6-1-0.9h-15.2
							C278.8,283.9,272.9,292.3,272.8,292.4z"/>
					</g>
				</g>
			</g>
		</g>
		<g>
			<g>
				<path class="st12" d="M272.3,195.9h4.7c12.2,0,21.5,9.9,21.8,22.1l-2.3,55l-31.2,0.3l-4.7-55.3
					C260.3,205.8,260.1,195.9,272.3,195.9z"/>
			</g>
		</g>
		<g>
			<polygon class="st12" points="298.7,217.4 260.6,216.1 259.6,168.9 298.7,168.9 			"/>
		</g>
		<g>
			<g>
				<polygon class="st4" points="259.6,168.9 332.2,168.9 322.9,81.9 302.3,66.1 288.6,66.1 266.6,78.3 				"/>
			</g>
		</g>
		<polygon class="st2" points="298.1,71.5 312.1,155.3 303.2,167.1 295.1,154.9 		"/>
		<polygon class="st2" points="298.1,70.6 302,76.1 298.6,81 293.6,75.2 		"/>
		<polygon class="st11" points="307.1,69.2 309.4,88.3 309.5,89.7 312,110.8 312.3,112.9 318.9,169.3 332.8,169.3 331.2,153.9 
			331,152.7 323.4,82.3 311.9,73 308.9,70.6 		"/>
		<g>
			
				<rect x="285" y="127" transform="matrix(0.4679 -0.8838 0.8838 0.4679 31.4746 324.8191)" class="st13" width="0.9" height="18.5"/>
		</g>
		<g>
			
				<rect x="280.4" y="130.1" transform="matrix(0.4679 -0.8838 0.8838 0.4679 26.3549 322.3741)" class="st13" width="0.9" height="18.5"/>
		</g>
		<polygon class="st11" points="254.8,186.5 283.6,186.5 284.2,120 284.3,117.5 284.6,89.3 284.6,87.9 284.8,68.2 283,69.2 
			281.1,70.2 266.6,78.3 260.6,152.3 260.5,153.5 		"/>
		<g>
			<path class="st1" d="M302.3,66.1h-13.7c0,0,4.1,5.4,8,5.4S302.3,66.1,302.3,66.1z"/>
		</g>
		<g>
			<g>
				<circle class="st6" cx="297.2" cy="39.3" r="10.3"/>
			</g>
			<g>
				
					<ellipse transform="matrix(0.6566 -0.7542 0.7542 0.6566 79.8223 235.0882)" class="st6" cx="298.1" cy="29.9" rx="8.3" ry="3.6"/>
			</g>
			<g>
				<path class="st6" d="M304.9,25.8c-4,2.1-6.5,5.3-5.6,7.1c1,1.8,5,1.5,9-0.7c4-2.1,6.5-5.3,5.6-7.1
					C313,23.4,308.9,23.7,304.9,25.8z"/>
			</g>
			<g>
				
					<ellipse transform="matrix(0.997 -7.747352e-02 7.747352e-02 0.997 -1.8326 24.1619)" class="st6" cx="310.5" cy="35.7" rx="8.3" ry="3.6"/>
			</g>
			<g>
				<g>
					<rect x="288.2" y="50.3" class="st1" width="14.1" height="20"/>
				</g>
				<g>
					<polygon class="st3" points="302.4,62.5 291.8,61.2 302.4,67.6 					"/>
				</g>
				<g>
					<path class="st1" d="M305.6,64l-16.8-3V43c0-6.6,5.6-11.9,12.5-11.9l0,0c6.9,0,12.5,5.3,12.5,11.9v14.2
						C313.7,62.2,310.2,64.8,305.6,64z"/>
				</g>
				<g>
					<path class="st6" d="M294.6,46.8h-7v-9.7c0-1.7,1.4-3.2,3.2-3.2h3.8V46.8z"/>
				</g>
				<g>
					<path class="st14" d="M313.7,46.3v6.5c-0.3,0.1-0.5,0.1-0.7,0.1c-1.6,0-3-1.5-3-3.4c0-1.8,1.3-3.4,3-3.4
						C313.3,46.2,313.5,46.2,313.7,46.3z"/>
				</g>
				<g>
					
						<ellipse transform="matrix(0.1602 -0.9871 0.9871 0.1602 193.0538 325.1152)" class="st1" cx="287.6" cy="49.1" rx="5.7" ry="5.7"/>
				</g>
				<path class="st15" d="M285.6,45.9l4.7,6.1C290.3,52,282.1,54.2,285.6,45.9z"/>
				<g>
					<path class="st14" d="M301.8,49.6c0,1.9-1.6,3.6-3.6,3.6c-1.9,0-3.6-1.6-3.6-3.6c0-1.9,1.6-3.6,3.6-3.6
						C300.2,46.1,301.8,47.6,301.8,49.6z"/>
				</g>
				<g>
					<g>
						<circle class="st3" cx="300.6" cy="46.5" r="1.1"/>
					</g>
					<g>
						<circle class="st3" cx="310.5" cy="46.5" r="1.1"/>
					</g>
					<g>
						<g>
							<path class="st3" d="M306.9,51.7c0.2,0,0.5-0.1,0.7-0.3c0.3-0.2,0.4-0.5,0.3-0.9v-1.1H307l-0.1,1.3h-0.1l-0.2,0.1h-2.1v0.9
								h2.1C306.9,51.7,306.9,51.7,306.9,51.7z"/>
						</g>
					</g>
				</g>
				<g>
					<path class="st3" d="M305.2,57.1c-2,0-4.3-0.5-6.5-2.4l0.6-0.7c4.3,3.7,9.8,1.4,9.8,1.4l0.4,0.9
						C309.3,56.3,307.5,57.1,305.2,57.1z"/>
				</g>
			</g>
			<g>
				<path class="st6" d="M292.2,40.3h3.4c1.4,0,2.5-1.1,2.5-2.5v-6.6h-5.9V40.3z"/>
			</g>
		</g>
		<g>
			<g>
				<polygon class="st4" points="288.6,63.5 297.6,71.4 293.8,77.2 284.7,68.1 				"/>
			</g>
		</g>
		<g>
			<g>
				<polygon class="st4" points="302.3,64.5 298.3,71.1 302.5,76.8 306.6,68.8 				"/>
			</g>
		</g>
		<g>
			<polygon class="st7" points="302.7,77.7 307,69.2 306.4,68.6 302.6,75.9 298.7,70.5 298.1,71.2 			"/>
		</g>
		<g>
			<polygon class="st7" points="293.9,77.9 297.8,71.3 297,70.8 293.7,76.4 284.8,67.9 284.2,68.5 			"/>
		</g>
		<g>
			<rect x="289.1" y="182.6" class="st3" width="0.9" height="90.4"/>
		</g>
		<g>
			<polygon class="st7" points="326.9,152.3 326.9,153.5 330.6,153.5 330.4,152.3 			"/>
		</g>
		<polygon class="st15" points="283.6,109 286.2,189.5 259.9,189.5 260.2,186.5 283.4,186.6 		"/>
		<polygon class="st15" points="283.1,154.6 265,141.8 283.6,160.7 		"/>
		<line class="st16" x1="273.6" y1="74.1" x2="284.4" y2="109.2"/>
		<line class="st16" x1="314.6" y1="75.6" x2="311.9" y2="108.9"/>
		<line class="st16" x1="326.4" y1="92.2" x2="332.2" y2="148.1"/>
		<g>
			<g>
				<path class="st11" d="M260.7,93.8c0,0-3.9,7.7-3.8,19.5c0.1,14.8,3.2,23.8,3.2,23.8l20-6.2l-1-15.6L260.7,93.8z"/>
			</g>
			<g>
				
					<rect x="299.4" y="154.6" transform="matrix(0.8531 -0.5218 0.5218 0.8531 -41.6169 192.6781)" class="st3" width="43.9" height="31.3"/>
			</g>
			<g>
				<g>
					<path class="st1" d="M309.6,155c0,0,5.2,11.1,2.6,11.3s-7-8.8-7-8.8L309.6,155z"/>
				</g>
				<g>
					<path class="st1" d="M299,158.2c0,0,7.7,7.2,5.1,7.8s-9.2-4.8-9.2-4.8L299,158.2z"/>
				</g>
				<g>
					<path class="st11" d="M287.4,156.1c0.3,0.2,0.6,0.3,0.9,0.4c5,2,8.5,3.3,8.5,3.3l6.7-11c0,0-1.8-2-4.7-4.8
						c-0.3-0.3-0.5-0.5-0.8-0.8c-9.9-9.6-30.6-26.8-37.9-13.1C254.6,140.2,274.8,150.7,287.4,156.1z"/>
				</g>
				<g>
					<path class="st1" d="M294.1,161.5c-3.4-3.7-2.6-9.2,0.9-12.6c3.5-3.4,9.1-3.2,12.5,0.6c3.4,3.7,3.3,9.5-0.3,12.9
						S297.5,165.2,294.1,161.5z"/>
				</g>
				<g>
					<path class="st1" d="M305.9,158.3c0,0,5.6,7.6,2.8,8.1c-2.8,0.6-7.5-4.9-7.5-4.9L305.9,158.3z"/>
				</g>
				<g>
					<path class="st1" d="M304.8,147.4c0,0,2.6,1.4,6,4.9s5.7,8,5,9.2s-12.2-7.9-12.2-7.9L304.8,147.4z"/>
				</g>
			</g>
			<g>
				
					<rect x="272.8" y="120.3" transform="matrix(0.2652 -0.9642 0.9642 0.2652 80.8411 354.7334)" class="st3" width="0.8" height="8"/>
			</g>
			<g>
				
					<rect x="270.2" y="127.7" transform="matrix(0.9928 -0.1199 0.1199 0.9928 -13.3815 33.7811)" class="st3" width="7.7" height="0.8"/>
			</g>
			<path class="st11" d="M266.6,78.3c0,0-12.9,13.4-9.6,43.5l22.3-6.2"/>
			<polygon class="st15" points="273.2,100.5 274.3,122.8 284.2,130.7 			"/>
		</g>
		<polygon class="st3" points="301.8,225.6 299.8,273 303.8,273 		"/>
	</g>
	<g class="st17">
		<path class="st18" d="M494.1,66.3h-14.2c-6.3,0-11.5-5.1-11.5-11.5V36.1c0-6.3,5.1-11.5,11.5-11.5h80.9c6.3,0,11.5,5.1,11.5,11.5
			v18.7c0,6.3-5.1,11.5-11.5,11.5h-58l-10,4.6L494.1,66.3z"/>
		<path class="st19" d="M560.8,25.3c6,0,10.8,4.9,10.8,10.8v18.7c0,6-4.9,10.8-10.8,10.8h-57.9h-0.3l-0.3,0.1l-8.6,4l0.7-2.5
			l0.4-1.6h-1.7h-13.4c-6,0-10.8-4.9-10.8-10.8V36.2c0-6,4.9-10.8,10.8-10.8h81.1 M560.8,24.1h-80.9c-6.6,0-12.1,5.5-12.1,12.1v18.7
			c0,6.6,5.5,12.1,12.1,12.1h13.4l-1.4,5.1L503,67h57.9c6.6,0,12.1-5.5,12.1-12.1V36.2C572.9,29.5,567.5,24.1,560.8,24.1L560.8,24.1
			z"/>
	</g>
	<g class="st17">
		<path class="st18" d="M584.6,88.2h-40.9c-6,0-10.8-4.9-10.8-10.8V59.7c0-6,4.9-10.8,10.8-10.8h85.9c6,0,10.8,4.9,10.8,10.8v17.7
			c0,6-4.9,10.8-10.8,10.8h-36.7l1.2,4.3L584.6,88.2z"/>
		<path class="st19" d="M629.6,49.5c5.6,0,10.2,4.6,10.2,10.2v17.7c0,5.6-4.6,10.2-10.2,10.2h-35.9H592l0.4,1.6l0.6,2.2l-8-3.7
			l-0.3-0.1h-0.3h-40.8c-5.6,0-10.2-4.6-10.2-10.2V59.7c0-5.6,4.6-10.2,10.2-10.2H629.6 M629.6,48.2h-85.9
			c-6.3,0-11.5,5.2-11.5,11.5v17.7c0,6.3,5.2,11.5,11.5,11.5h40.8l10.5,4.9l-1.3-4.9h35.9c6.3,0,11.5-5.2,11.5-11.5V59.7
			C641,53.4,635.9,48.2,629.6,48.2L629.6,48.2z"/>
	</g>
	<g>
		<g>
			<g>
				<path class="st20" d="M473,81.2c0,0,11.9-10.8,12.7-8.9S475.9,84,475.9,84L473,81.2z"/>
			</g>
			<g>
				<path class="st20" d="M478.1,89.4c0,0,10.2-12.4,11.2-10.6s-8,12.9-8,12.9L478.1,89.4z"/>
			</g>
			<g>
				<path class="st20" d="M481.6,91.3c-2,3.4-6.3,4.1-9.7,2.3s-4.5-6.1-2.5-9.5s6.3-4.7,9.7-2.8C482.5,83.1,483.6,87.9,481.6,91.3z"
					/>
			</g>
			<g>
				<path class="st20" d="M476.1,83.7c0,0,12.1-11.1,13.2-9.2c1.1,2-9.7,12-9.7,12L476.1,83.7z"/>
			</g>
			<g>
				<path class="st20" d="M468.5,86.7c0,0,0.5-2.2,2.2-5.6c1.8-3.4,5.4-7.4,6.5-7.2c1.1,0.2-3.8,12.2-3.8,12.2L468.5,86.7z"/>
			</g>
			<g>
				<g>
					<path class="st3" d="M476.7,88.8c0.2-0.2,1.2-1.2,1.6-3.3c0.4-1.9-1.8-3.7-2.6-4.2l1.2-3.5l-0.7-0.3l-1.3,4l0.3,0.2
						c0.1,0,2.8,1.8,2.5,3.6c-0.3,1.9-1.4,2.9-1.4,2.9L476.7,88.8L476.7,88.8z"/>
				</g>
			</g>
			<g>
				<g>
					<path class="st3" d="M482.1,84.9c0-0.1-0.6-1.2-1.5-2.4c-0.5-0.7-2-2-2-2l-0.5,0.6c0,0,1.4,1.3,1.9,1.9
						c0.9,1.2,1.5,2.3,1.5,2.3L482.1,84.9z"/>
				</g>
			</g>
		</g>
		<path class="st20" d="M469.2,89.6c0,0-10.5,9.8-16.3,23.8v21.3c0,0,19.6-10.5,26.4-41.8L469.2,89.6z"/>
		<g>
			<g>
				<g>
					<g>
						<path class="st3" d="M426.4,215.9v80h53.7c0,0,0.1-1.5-0.1-3.6c-0.1-0.4-0.1-0.7-0.2-1.1c-0.7-4.2-2.9-10-9.8-11.9
							c-0.5-0.2-1-0.3-1.4-0.4c-8-2-13.7-2.6-13.7-11.2v-51.8L426.4,215.9L426.4,215.9z"/>
					</g>
					<g>
						<path class="st20" d="M426.4,264.8v15c2,2.2,6.6,5.5,16,5.8c10.9,0.3,21.7-4.4,26.2-6.7c-8-2-13.7-2.6-13.7-11.2v-6.1
							L426.4,264.8z"/>
					</g>
					<g>
						<rect x="426.4" y="181.5" class="st21" width="28.6" height="86.2"/>
					</g>
					<g>
						<path class="st22" d="M479.9,292.3h-53.5v-1.1h53.4C479.9,291.6,479.9,292,479.9,292.3z"/>
					</g>
				</g>
			</g>
			<g>
				<g>
					<path class="st3" d="M379.3,295.9h43.8v-80h-28.6v51.9c0,5.7-1.8,7.9-5.4,10.5c-0.9,0.7-1.9,1.3-3.1,2.1
						c-4.3,2.9-5.9,7.4-6.4,10.8c-0.1,0.4-0.1,0.8-0.2,1.1C379.1,294.4,379.3,295.9,379.3,295.9z"/>
				</g>
				<g>
					<path class="st20" d="M389.1,278.3c16.2-0.3,10.7,7.7,21.8,7.4c7.8-0.2,9.7-3.1,12.1-5.1v-16.4l-28.6-3.2v6.8
						C394.5,273.4,392.7,275.7,389.1,278.3z"/>
				</g>
				<g>
					<rect x="394.5" y="181.5" class="st21" width="28.6" height="86.2"/>
				</g>
				<g>
					<path class="st22" d="M379.5,291.2c-0.1,0.4-0.1,0.8-0.2,1.1H423v-1.1H379.5z"/>
				</g>
			</g>
			<g>
				<path class="st23" d="M392.4,112.6l13.2,8.2l42-0.2l1.3-3.3l1-2.5l5.8-15.1c0-1.7,0.4-4.9-0.7-6.9c-1.3-2.4-3.2-5.4-4.4-6.7
					c0,0-0.5-0.4-1.2-1.1c-0.3-0.3-0.7-0.6-1-0.9c-1.6-1.4-3.9-3.4-6.3-5.2c-0.2-0.2-0.4-0.3-0.6-0.5c-0.2-0.1-0.3-0.2-0.4-0.3
					c-0.1-0.1-0.2-0.1-0.2-0.2c-3.4-2.5-6.6-4.6-7.7-4.6h-12.6c-0.2,0-0.3,0-0.4,0h-0.1H420c-0.3,0-0.6,0.1-0.8,0.1
					c-0.1,0-0.3,0.1-0.4,0.1c-0.3,0.1-0.5,0.1-0.7,0.2c-0.3,0.1-0.5,0.2-0.7,0.3c-0.3,0.1-0.6,0.3-0.9,0.4c-0.3,0.2-0.6,0.3-0.9,0.5
					c0,0-0.1,0-0.1,0.1c-1.1,0.8-2.1,1.7-3,3L392.4,112.6z"/>
			</g>
			<g>
				<path class="st23" d="M390.3,204.8h73.8c0,0-1-21.9-2.7-52c0-0.3-0.1-0.6-0.1-0.9c-0.4-6.3-0.7-12.6-1.1-18.7
					c0-0.3-0.1-0.6-0.1-0.9c-0.7-11-1.5-21.1-2.4-28.5c-0.1-0.3-0.1-0.6-0.1-0.9c-0.2-1.1-0.3-2.2-0.4-3.2c-0.1-0.3-0.1-0.6-0.1-0.9
					c-0.5-3.2-1.8-6.3-3.8-8.9l-25.9,2.3c-1.7,0-3.1,1.2-3.4,2.8l-0.8,3.8l-0.1-0.9l-4.3,21.1l-12.1,1.6l-1.1,0.3c0,0-0.7,2-1.7,5.9
					c-1.4,5.1-3.4,13.5-5.6,25.1c-0.1,0.3-0.1,0.6-0.2,0.9C395.3,167.7,392.3,187.7,390.3,204.8z"/>
			</g>
			<g>
				<g>
					<polygon class="st3" points="405.8,123.8 414.2,99.9 413.6,99.7 405.1,123.6 					"/>
				</g>
			</g>
			<g>
				<g>
					<polygon class="st3" points="412.2,105 417.6,103.9 417.5,103.3 412,104.3 					"/>
				</g>
			</g>
			<g>
				<polygon class="st3" points="426.4,210 455.6,204.8 426.4,204.8 				"/>
			</g>
			<g>
				<polygon class="st3" points="423,210 395,204.8 423,204.8 				"/>
			</g>
			<g>
				<path class="st20" d="M422.8,153.4c0,0-10.9-42.3-24.5-42.7c-23-0.7,14.8,46.6,14.8,46.6L422.8,153.4z"/>
			</g>
			<g>
				<g>
					<path class="st20" d="M427.4,157.5c0,0,3.1,12,0.5,11.7s-4.9-9.3-4.9-9.3L427.4,157.5z"/>
				</g>
				<g>
					<path class="st20" d="M416.8,159.7c0,0,5.9,7.9,3.3,8c-2.7,0.1-7.9-5.8-7.9-5.8L416.8,159.7z"/>
				</g>
				<g>
					<path class="st20" d="M411.9,161.7c-2.5-3.9-1-8.6,3.1-11.2c4.2-2.6,8.5-1,11,3c2.5,3.9,2.1,8.8-2,11.3
						C419.8,167.4,414.3,165.6,411.9,161.7z"/>
				</g>
				<g>
					<path class="st20" d="M423.6,160.9c0,0,3.8,7.8,1,7.9c-2.9,0.1-6.2-5.7-6.2-5.7L423.6,160.9z"/>
				</g>
			</g>
			<g>
				<polygon class="st20" points="420,73.4 439.1,88.5 436.7,76.5 435.8,73.5 427.5,73.1 				"/>
			</g>
			<g>
				<g>
					
						<ellipse transform="matrix(0.9871 -0.1602 0.1602 0.9871 -4.0201 67.54)" class="st3" cx="416.9" cy="58.7" rx="9.2" ry="9.2"/>
				</g>
				<g>
					
						<ellipse transform="matrix(0.1601 -0.9871 0.9871 0.1601 300.699 449.1232)" class="st3" cx="414.3" cy="47.9" rx="9.2" ry="9.2"/>
				</g>
				<g>
					<g>
						<ellipse class="st3" cx="430" cy="46.5" rx="14.2" ry="13.5"/>
					</g>
					<g>
						<rect x="419.9" y="56" class="st20" width="16.2" height="18.9"/>
					</g>
					<g>
						<polygon class="st3" points="436.1,67.5 426.2,66.3 436.1,72.4 						"/>
					</g>
					<g>
						<path class="st20" d="M436.4,67.9l-15.9-1.8V49c0-6.2,5.3-11.2,11.8-11.2l0,0c6.5,0,11.8,5,11.8,11.2v11.7
							C444.1,65.2,441.3,68.3,436.4,67.9z"/>
					</g>
					<g>
						<path class="st3" d="M423,43.5h4.3c2.1,0,3.9-1.7,3.9-3.9v-3.9H423V43.5L423,43.5z"/>
					</g>
					<g>
						<path class="st14" d="M444.1,52.2v6.1c-0.2,0.1-0.5,0.1-0.7,0.1c-1.5,0-2.8-1.4-2.8-3.2c0-1.7,1.3-3.2,2.8-3.2
							C443.6,52.1,443.8,52.1,444.1,52.2z"/>
					</g>
					<g>
						<rect x="420.5" y="40.4" class="st3" width="4.1" height="10.9"/>
					</g>
					<g>
						<ellipse class="st20" cx="418.6" cy="53.5" rx="5.4" ry="5.4"/>
					</g>
					<g>
						<path class="st14" d="M432.8,55.4c0,1.8-1.5,3.4-3.4,3.4c-1.8,0-3.4-1.5-3.4-3.4c0-1.8,1.5-3.4,3.4-3.4S432.8,53.5,432.8,55.4
							z"/>
					</g>
					<g>
						<g>
							<path class="st3" d="M432.8,52.4c0,0.6-0.5,1.1-1.1,1.1s-1.1-0.5-1.1-1.1s0.5-1.1,1.1-1.1C432.3,51.4,432.8,51.8,432.8,52.4z
								"/>
						</g>
						<g>
							<path class="st3" d="M442.1,52.4c0,0.6-0.5,1.1-1.1,1.1s-1.1-0.5-1.1-1.1s0.5-1.1,1.1-1.1S442.1,51.8,442.1,52.4z"/>
						</g>
						<g>
							<g>
								<path class="st3" d="M437.6,57.4c0.3,0,0.5-0.1,0.7-0.3s0.3-0.5,0.3-0.8l-0.3-2.5l-0.8,0.1l0.3,2.5l-0.2,0.5l0.4-0.4
									l-2.7-0.4l-0.2,0.8l2.4,0.4C437.5,57.4,437.6,57.4,437.6,57.4z"/>
							</g>
						</g>
					</g>
				</g>
				<g>
					<path class="st3" d="M440,38c2,2.8,2.6,7.6,2.6,7.6s-10.7-2.7-11.2-7.5C430.7,33.4,437.8,35.1,440,38z"/>
				</g>
			</g>
			<path class="st21" d="M436,74.7c1.1,1.9,3.2,13.8,3.2,13.8l-19.2-18c0,0-6.5,5.5-8.3,8.6L440.5,91c0,0,0.7-12.4-0.3-13.6
				C439.8,77,437.3,74.7,436,74.7z"/>
			<g>
				<path class="st3" d="M444,110.7c0,1,0.8,1.7,1.7,1.7c1,0,1.7-0.8,1.7-1.7s-0.8-1.7-1.7-1.7C444.7,108.9,444,109.7,444,110.7z"/>
			</g>
			<g>
				<path class="st3" d="M443.3,132.4c0,1,0.8,1.7,1.7,1.7c1,0,1.7-0.8,1.7-1.7c0-1-0.8-1.7-1.7-1.7
					C444.1,130.6,443.3,131.4,443.3,132.4z"/>
			</g>
			<g>
				<path class="st3" d="M442.7,154.1c0,1,0.8,1.7,1.7,1.7s1.7-0.8,1.7-1.7c0-1-0.8-1.7-1.7-1.7
					C443.5,152.4,442.7,153.1,442.7,154.1z"/>
			</g>
			<path class="st21" d="M440.3,89.3c0,0-4.3,1.2-5.2,5.5s6.1,9.1,6.1,9.1L440.3,89.3z"/>
			<path class="st21" d="M438.6,89.2c0,0,3.4-1.8,7.3,0.4c3.8,2.1,3.6,10.1,3.6,10.1L438.6,89.2z"/>
		</g>
		<path class="st24" d="M467.6,109.5l1.1-1.1c-0.1,0.1-0.1,0.1-0.1,0.2c-0.1,0.1-0.1,0.1-0.1,0.1L467.6,109.5z"/>
	</g>
	<g>
		<g>
			<path class="st6" d="M175.6,184.3h21.1c0,0,0-1.6,0.1-4.4c0-2.8,0.1-6.7,0.1-11.5c0-4.7,0-10.2-0.1-16.2c-0.1-3-0.1-6-0.1-9.1
				V142c0-0.4,0-0.8-0.1-1.2c-0.1-0.9-0.1-1.7-0.1-2.7c-0.1-1.7-0.3-3.5-0.4-5.3c-0.7-7.1-2.2-14.1-4.3-20.4s-4.9-12-7.6-16.4
				c-2.7-4.5-5.4-7.9-7.3-10.3c-1.9-2.3-3.2-3.5-3.2-3.5c-3.3-3.5-7.4-5.3-10.9-5.4s-6.5,1.5-7.9,4.3l0,0c-1.4,2.8-1.5,6-0.8,9.1
				s2.3,6.1,4.7,8.6c0,0,0.9,0.9,2.3,2.6s3.3,4.2,5.3,7.5c2,3.2,3.9,7.3,5.5,11.9c1.5,4.6,2.7,9.8,3.2,15.1c0.1,1.3,0.3,2.7,0.3,4
				c0,0.7,0.1,1.3,0.1,2c0,0.3,0,0.7,0,1.1v1.1c0.1,3.1,0.1,6,0.1,8.9c0.1,5.8,0.1,11.2,0.1,15.9c-0.1,4.7-0.1,8.5-0.1,11.2
				C175.7,182.8,175.6,184.3,175.6,184.3z"/>
			<path class="st2" d="M153.9,84.9c-0.2,1.7-0.1,3.6,0.4,5.4c0.8,3.1,2.3,6.1,4.7,8.6c0,0,0.4,0.4,1.1,1.2c0.7,0.8,1.6,1.8,2.7,3.2
				c2.1,2.7,4.7,6.6,6.7,10.9c2,4.2,3.5,8.7,4.3,12.3c0.4,1.7,0.7,3.2,0.9,4.3c0.2,1,0.3,1.6,0.3,1.6l20.9-4.1c0,0-0.2-0.8-0.4-2.2
				c-0.2-1.4-0.6-3.4-1.2-5.8c-1.1-4.8-3.2-11-5.9-16.9c-1.1-2.3-2.3-4.6-3.5-6.6c-0.3-0.6-0.7-1.1-1-1.6c-1.6-2.6-3.2-4.9-4.7-6.7
				c-1-1.3-1.9-2.4-2.7-3.3c-0.4-0.5-0.7-0.8-1-1.2c-0.9-1-1.5-1.6-1.5-1.6c-3.3-3.5-7.4-5.3-10.9-5.4s-6.5,1.5-7.9,4.3
				C154.4,82.4,154.1,83.6,153.9,84.9z"/>
		</g>
		<g>
			<g>
				<path class="st6" d="M195.4,195.4c0,0-7,26.1-9.9,24c-2.8-2,3.3-25.3,3.3-25.3L195.4,195.4z"/>
			</g>
			<g>
				<path class="st6" d="M180.9,188.5c0,0-3.2,26.7-6.2,25.1c-3.1-1.6-0.4-25.5-0.4-25.5L180.9,188.5z"/>
			</g>
			<g>
				<path class="st6" d="M174.3,189c-0.3-6.6,5.2-11.5,11.6-11.9c6.4-0.5,11.8,4.5,12.1,11.1c0.3,6.6-4.8,12.3-11.1,12.7
					C180.4,201.3,174.6,195.6,174.3,189z"/>
			</g>
			<g>
				<path class="st6" d="M188.9,194.8c0,0-7.1,26.6-10.4,24.8s2.9-25.6,2.9-25.6L188.9,194.8z"/>
			</g>
			<g>
				<path class="st6" d="M196.9,183.8c0,0,1.3,3.6,1.9,10s-1,15.3-2.7,16s-5.6-20.7-5.6-20.7L196.9,183.8z"/>
			</g>
			<g>
				<g>
					<path class="st3" d="M183.5,188.2c-0.1,0.3-0.6,2.9,0.7,6.1c1.3,3,5.9,3.6,7.4,3.6l1.5,6l1.2-0.3l-1.8-6.9H192
						c-0.1,0-5.6-0.1-6.7-2.9c-1.2-3-0.7-5.3-0.7-5.3L183.5,188.2L183.5,188.2z"/>
				</g>
			</g>
			<g>
				<g>
					<path class="st3" d="M179.3,198.5c0.1,0.1,1.9,1.1,4.3,2c1.4,0.5,4.6,1,4.7,1l0.2-1.2c-0.1,0-3.2-0.5-4.4-1
						c-2.4-0.9-4.1-1.9-4.1-1.9L179.3,198.5z"/>
				</g>
			</g>
		</g>
		<polygon class="st11" points="94,294.4 133.7,294.4 139.2,183.9 101.3,183.9 		"/>
		<path class="st3" d="M95.6,271.3h9.8c5,0,9.6,3,11.9,7.8l0.8,1.7l-23.3,0.4L95.6,271.3z"/>
		<g>
			<polygon class="st3" points="107.4,278.1 106.5,278.1 112.4,190.2 113.3,190.2 			"/>
		</g>
		<path class="st3" d="M133.7,294.4H84.6c0-11.1,10.4-13.8,10.4-13.8h39.5L133.7,294.4z"/>
		<polygon class="st11" points="181.8,294.4 142.2,294.4 136.6,183.9 178.3,183.9 		"/>
		<path class="st3" d="M181.1,271.2h-10c-5,0-9.6,3-11.9,7.8l-0.8,1.7l23.1,0.5L181.1,271.2z"/>
		<polygon class="st3" points="146.3,184.1 145.5,184.1 144.9,207.3 145.7,207.3 		"/>
		<g>
			<polygon class="st3" points="175.7,279.9 176.6,279.9 170.6,191.9 169.8,191.9 			"/>
		</g>
		<polygon class="st3" points="133.6,207.3 146.7,207.3 137.8,210.8 		"/>
		<path class="st3" d="M142.2,294.4h49.1c0-11.8-10-13.8-10-13.8h-39.9L142.2,294.4z"/>
		<g>
			<path class="st6" d="M105.3,183.8l-25.4-0.1c0,0,0.1-1.7,0.1-4.7c0.1-2.9,0.2-7.1,0.4-12s0.4-10.8,0.7-17
				c0.2-3.1,0.3-6.3,0.5-9.6l0.1-1.2c0-0.4,0.1-0.8,0.1-1.3c0.1-0.9,0.2-1.8,0.2-2.8c0.1-1.8,0.4-3.7,0.7-5.6
				c1.1-7.5,3.2-14.8,6-21.5c2.9-6.6,6.3-12.5,9.8-17.2c3.4-4.7,6.8-8.3,9.2-10.7c2.5-2.4,3.9-3.7,3.9-3.7c4.1-3.6,9.1-5.5,13.3-5.6
				s7.8,1.6,9.3,4.6l0,0c1.5,3,1.5,6.3,0.6,9.6c-1,3.3-3,6.4-6,9c0,0-1.1,0.9-2.9,2.7c-1.8,1.7-4.2,4.4-6.7,7.8s-5,7.7-7.1,12.5
				c-2,4.8-3.6,10.2-4.4,15.8c-0.2,1.4-0.4,2.8-0.5,4.2c-0.1,0.7-0.1,1.4-0.2,2.1c-0.1,0.3-0.1,0.7-0.1,1.1l-0.1,1.2
				c-0.2,3.2-0.3,6.3-0.5,9.4c-0.3,6.1-0.5,11.8-0.7,16.7s-0.3,8.9-0.4,11.8C105.4,182.2,105.3,183.8,105.3,183.8z"/>
			<path class="st2" d="M135.5,79.4c0.2,1.8-0.1,3.7-0.6,5.6c-1,3.3-3,6.4-6,9c0,0-0.5,0.5-1.3,1.2c-0.8,0.8-2,1.9-3.3,3.4
				c-2.7,2.9-5.9,7-8.5,11.4s-4.6,9.2-5.7,12.9c-0.5,1.8-1,3.4-1.2,4.5c-0.3,1.1-0.4,1.7-0.4,1.7l-24.9-4.4c0,0,0.2-0.8,0.6-2.3
				c0.3-1.5,0.9-3.6,1.6-6.1c1.5-5,4.2-11.6,7.8-17.7c1.4-2.4,3-4.8,4.6-7c0.4-0.6,0.9-1.2,1.3-1.7c2-2.7,4-5.1,5.9-7
				c1.2-1.3,2.4-2.5,3.3-3.4c0.5-0.5,0.9-0.9,1.3-1.2c1.2-1.1,1.8-1.7,1.8-1.7c4.1-3.6,9.1-5.5,13.3-5.6s7.8,1.6,9.3,4.6
				C134.9,76.7,135.4,78.1,135.5,79.4z"/>
		</g>
		<path class="st5" d="M179.1,105.9l-0.3,20.5l-0.1,5.1l-0.1,2l-0.1,3.2l-0.2,13.7l-0.1,7.1l-0.1,5.4l-0.1,5.2l-0.2,15.8H101
			l0.2-15.8l0.1-5.2l0.1-5.4l0.1-7.1l0.2-13.7l0.1-3.2l0.1-2l0.1-5.1l0.3-20.5c0.2-14,6.7-26.3,16.6-33.8c2-1.6,4.2-2.9,6.5-4
			c4.8-2.3,10-3.5,15.4-3.5h0.8c7.2,0,13.9,2.1,19.5,5.9c2.4,1.6,4.6,3.4,6.5,5.5C174.9,83.5,179.3,94.1,179.1,105.9z"/>
		<polygon class="st25" points="178.8,126.4 178.8,131.4 178.8,133.4 101.9,133.4 102,131.4 102,126.4 		"/>
		<polygon class="st25" points="178.5,150.4 178.4,157.5 101.6,157.5 101.7,150.4 		"/>
		<rect x="134.5" y="73.8" class="st2" width="20" height="110.1"/>
		<rect x="101.4" y="172.2" class="st3" width="76.9" height="11.9"/>
		<rect x="137.7" y="172.2" class="st26" width="16.1" height="11.9"/>
		<path class="st2" d="M132.2,73.8c0-8,5.9-14.4,13.2-14.4s13.2,6.4,13.2,14.4H132.2z"/>
		<polygon class="st26" points="145,84.8 139.5,69.7 150.5,69.7 		"/>
		<g>
			<g>
				<path class="st6" d="M164,41.6v4.3c0,0.3,0,0.6-0.1,1V47c0,0.2-0.1,0.5-0.1,0.7c-0.1,0.3-0.1,0.5-0.1,0.7
					c-1.1,6-6.3,10.5-12.6,10.5c-7.1,0-12.9-5.8-12.9-12.9v-4.3c0-0.4,0-0.7,0.1-1.1c0.1-0.5,0.1-1,0.2-1.4
					c1.2-5.9,6.3-10.4,12.6-10.4c3.6,0,6.7,1.4,9.1,3.8c1.8,1.8,3,4,3.5,6.6c0.1,0.5,0.2,1,0.2,1.4C164,40.9,164,41.3,164,41.6z"/>
				<path class="st6" d="M145.1,72.7L145.1,72.7c-4.1,0-7.4-3.3-7.4-7.4v-27h14.8v27C152.5,69.4,149.2,72.7,145.1,72.7z"/>
				<g>
					<path class="st14" d="M164,42.3v4.6V47c0,0.2-0.1,0.5-0.1,0.7c-0.1,0.3-0.1,0.5-0.1,0.7c-0.2,0.1-0.3,0.1-0.5,0.1
						c-1.5,0-2.8-1.4-2.8-3.1c0-1.7,1.2-3.1,2.8-3.1C163.5,42.1,163.8,42.2,164,42.3z"/>
				</g>
				<g>
					<circle class="st14" cx="149.5" cy="45.3" r="3.3"/>
				</g>
				<g>
					<g>
						<path class="st26" d="M152.6,49l7.4,0.3C160,49.2,156.2,54.5,152.6,49z"/>
					</g>
					<g>
						<path class="st3" d="M152.8,42.4c0,0.6-0.5,1.1-1.1,1.1s-1.1-0.5-1.1-1.1s0.5-1.1,1.1-1.1S152.8,41.8,152.8,42.4z"/>
					</g>
					<g>
						<path class="st3" d="M162,42.4c0,0.6-0.5,1.1-1.1,1.1s-1.1-0.5-1.1-1.1s0.5-1.1,1.1-1.1C161.5,41.3,162,41.8,162,42.4z"/>
					</g>
					<g>
						<g>
							<path class="st3" d="M155.2,47.3v-0.8l2.5-0.1v-0.1l0.1-0.1v-1.1h0.8v1.1c0.1,0.3-0.1,0.5-0.3,0.7s-0.5,0.3-0.8,0.3
								L155.2,47.3z"/>
						</g>
					</g>
				</g>
			</g>
			<circle class="st6" cx="136.2" cy="43.9" r="4.7"/>
			<g>
				<g>
					<path class="st5" d="M137.1,24.9h-2.8c0-6.9,4.1-12.5,9.1-12.5v2.8C140,15.2,137.1,19.6,137.1,24.9z"/>
				</g>
				<g>
					<path class="st5" d="M142.5,24.9h-2.9c0-6.9,4.1-12.5,9.1-12.5v2.8C145.3,15.2,142.5,19.6,142.5,24.9z"/>
				</g>
				<g>
					<path class="st5" d="M147.8,24.9H145c0-6.9,4.1-12.5,9.1-12.5v2.8C150.6,15.2,147.8,19.6,147.8,24.9z"/>
				</g>
				<path class="st5" d="M167.2,29.6v6.7h-38.4v-6.7c0-6,3.6-11.2,8.7-13.7c0.8-0.4,1.6-0.7,2.5-0.9c0.4-0.1,0.8-0.2,1.2-0.3
					c0.9-0.2,1.8-0.3,2.8-0.3h8.2C160.4,14.5,167.2,21.3,167.2,29.6z"/>
				<rect x="128.7" y="36.2" class="st5" width="42.8" height="1.9"/>
				<path class="st27" d="M164.2,29.5v6.7h-10.9v-6.7c0-7.4-5.3-13.5-12.3-14.8c0.9-0.2,1.8-0.3,2.8-0.3h4.5
					C157.1,14.4,164.2,21.2,164.2,29.5z"/>
				<path class="st3" d="M163.7,39.6h-25.9v-1.5h25.7C163.6,38.6,163.7,39.1,163.7,39.6z"/>
				<rect x="128.7" y="32.7" class="st28" width="38.4" height="3.6"/>
			</g>
		</g>
		<path class="st25" d="M167.7,75.9v55.2h-6.5V70.4C163.6,72,165.8,73.9,167.7,75.9z"/>
		<path class="st25" d="M125.4,68v63.1h-6.5V72C120.9,70.5,123.1,69.2,125.4,68z"/>
		<g>
			<path class="st3" d="M118.8,213h-3.9v-12.2c0-2.4-1.8-4.3-3.9-4.3H80.6c-2.1,0-3.9,1.9-3.9,4.3V213h-3.9v-12.2
				c0-4.8,3.5-8.6,7.9-8.6h30.4c4.3,0,7.9,3.8,7.9,8.6L118.8,213L118.8,213z"/>
		</g>
		<path class="st6" d="M91.3,207.6l17.9-0.8l-0.8-17.7c-0.2-3.6-3.2-6.3-6.7-6.2l-21.6,0.9l0.6,14.1C81,203.5,85.7,207.8,91.3,207.6
			z"/>
		<g>
			<path class="st29" d="M123,252.1H68.5c-1.1,0-1.9-0.9-1.9-1.9v-37.9c0-1.1,0.9-1.9,1.9-1.9H123c1.1,0,1.9,0.9,1.9,1.9v37.9
				C124.9,251.2,124.1,252.1,123,252.1z"/>
			<rect x="66.5" y="224.5" class="st3" width="58.4" height="2.8"/>
			<rect x="78.7" y="224.5" class="st26" width="5.2" height="7.8"/>
			<rect x="106.6" y="224.5" class="st26" width="5.2" height="7.8"/>
		</g>
	</g>
	<g>
		<g>
			<g>
				<ellipse class="st3" cx="54.4" cy="24.5" rx="9.9" ry="9.9"/>
			</g>
			<g>
				<path class="st20" d="M58.9,35.1v25c-2.6-0.4-8.6-1.2-13.2-2.5V35.1H58.9z"/>
			</g>
			<g>
				<polygon class="st3" points="58.9,46.9 52.7,45.8 58.9,51.8 				"/>
			</g>
			<g>
				<path class="st20" d="M62.6,48.3l-16.3-2.8V28.2c0-6.3,5.4-11.5,12-11.5l0,0c6.6,0,12,5.1,12,11.5v13.7
					C70.4,46.5,67.1,49.1,62.6,48.3z"/>
			</g>
			<g>
				<path class="st14" d="M58.9,34.5c0,1.9-1.5,3.4-3.4,3.4s-3.4-1.5-3.4-3.4s1.5-3.4,3.4-3.4C57.3,31,58.9,32.6,58.9,34.5z"/>
			</g>
			<g>
				<path class="st3" d="M52,31.7h-6.7v-9.3c0-1.7,1.4-3.1,3.1-3.1h3.7L52,31.7L52,31.7z"/>
			</g>
			<g>
				<ellipse class="st20" cx="46.8" cy="34.1" rx="4.2" ry="4.2"/>
			</g>
			<g>
				<path class="st3" d="M52,31.7c0,0,0.1,5.1,2,7.3c2,2.2,7.7,1.2,7.7,1.2s1.3,1.5,3.3,1.9c2.2,0.5,2.7-1.8,2.7-1.8l1-1
					c0,0,5.6,5.5,0.8,8.5c-6.4,3.9-15,0.1-17.4-2.6c-2.5-2.8-1.7-13.5-1.7-13.5L52,31.7L52,31.7z"/>
			</g>
			<g>
				<path class="st14" d="M70.4,31.2v6.2c-0.2,0.1-0.5,0.1-0.7,0.1c-1.6,0-2.9-1.4-2.9-3.2s1.3-3.2,2.9-3.2
					C69.9,31.1,70.2,31.1,70.4,31.2z"/>
			</g>
			<g>
				<g>
					<path class="st3" d="M59.9,31.4c0,0.6-0.5,1.1-1.1,1.1s-1.1-0.5-1.1-1.1c0-0.6,0.5-1.1,1.1-1.1S59.9,30.8,59.9,31.4z"/>
				</g>
				<g>
					<path class="st3" d="M69.4,31.4c0,0.6-0.5,1.1-1.1,1.1s-1.1-0.5-1.1-1.1c0-0.6,0.5-1.1,1.1-1.1S69.4,30.8,69.4,31.4z"/>
				</g>
				<g>
					<g>
						<path class="st3" d="M64.9,36.5c-0.1,0-0.1,0-0.2,0h-1.9v-0.9l2.2-0.1v-0.1l0.1-0.1v-1.1H66v1.1c0.1,0.3-0.1,0.6-0.3,0.8
							C65.4,36.4,65.1,36.5,64.9,36.5z"/>
					</g>
				</g>
			</g>
			<g>
				<path class="st3" d="M49.7,25.5H53c1.3,0,2.4-1.1,2.4-2.4v-6.4h-5.7V25.5z"/>
			</g>
			<g>
				<ellipse class="st3" cx="61.7" cy="15.2" rx="9.3" ry="8.4"/>
			</g>
			<g>
				<path class="st3" d="M64.9,36.9c0.6,1-0.8,2.8-3.1,4.1c-2.2,1.3-4.6,1.5-5.1,0.5c-0.6-1,0.8-2.8,3.1-4.1
					C62,36.1,64.3,35.9,64.9,36.9z"/>
			</g>
			<g>
				<path class="st3" d="M63.8,36.9c-0.6,0.9,0.8,2.7,2.9,3.8c2.1,1.2,4.3,1.4,4.9,0.5s-0.8-2.7-2.9-3.8
					C66.4,36.2,64.3,36,63.8,36.9z"/>
			</g>
		</g>
		<g>
			<path class="st6" d="M59.1,111.9l46,3.5c0,0,4.1,16.1-34.9,14.2C52.3,128.8,59.1,111.9,59.1,111.9z"/>
			
				<rect x="83.6" y="96.2" transform="matrix(0.1796 -0.9837 0.9837 0.1796 -23.4045 195.8587)" class="st3" width="44.2" height="31.5"/>
			<polygon class="st3" points="77.9,113.4 81,129.8 82.5,113.8 			"/>
			<path class="st20" d="M122.8,119.3c-0.2,0.9-1.7,1-3.4,0.3c-1.6-0.7-2.8-2-2.6-2.9c0.2-0.9,1.7-1,3.4-0.3
				C121.8,117.1,123,118.4,122.8,119.3z"/>
			<ellipse class="st20" cx="118.9" cy="124.1" rx="3.2" ry="2.3"/>
			<path class="st20" d="M121.5,127.2c0,1.3-1.4,2.3-3.2,2.3c-1.7,0-3.2-1-3.2-2.3s1.4-2.3,3.2-2.3C120.1,125,121.5,126,121.5,127.2
				z"/>
			<g>
				<path class="st3" d="M108.6,294.4c0-0.4-0.2-1.8-0.4-3.1c-0.1-0.3-0.1-0.6-0.2-0.9c-0.7-2.5-2-5.7-5-7.8c-0.3-0.3-0.7-0.5-1-0.7
					c-0.9-0.5-1.9-1-3-1.2c-1-0.3-2-0.5-3-0.8c-0.4-0.1-0.8-0.2-1.1-0.3c-1-0.3-1.9-0.5-2.8-0.8c-0.4-0.1-0.7-0.3-1.1-0.4
					c-0.9-0.4-1.8-0.8-2.5-1.4c-0.3-0.3-0.6-0.5-0.9-0.9c-1-1.1-1.6-2.7-1.9-4.9H62.4l2.3,23h43.9V294.4z"/>
			</g>
			<g>
				<path class="st22" d="M108.2,291.3H64.4l-0.1-0.9h43.6C108,290.7,108.1,291,108.2,291.3z"/>
			</g>
			<g>
				<path class="st3" d="M17,271.4l-3.1,23h43.8c0.1-0.4,0.3-1.8,0.3-3.1c0-0.3,0-0.6,0-0.9c-0.1-2.5-0.7-5.7-3.1-7.8
					c-0.3-0.3-0.6-0.5-0.9-0.7c-0.8-0.5-1.6-1-2.7-1.2c-1-0.3-1.9-0.5-2.8-0.8c-0.4-0.1-0.7-0.2-1.1-0.3c-0.9-0.3-1.8-0.5-2.6-0.8
					c-0.4-0.1-0.7-0.3-1-0.4c-0.9-0.4-1.6-0.8-2.1-1.4c-0.3-0.3-0.5-0.5-0.7-0.9c-0.7-1.1-1-2.7-0.7-4.9H17V271.4z"/>
			</g>
			<g>
				<path class="st22" d="M58,291.3H14.3l0.1-0.9H58C58,290.7,58,291,58,291.3z"/>
			</g>
			<g>
				<path class="st20" d="M16.2,277.6c0,0,13,2.2,13.7-2.7c0.3-1.8,2.1-3,3.7-3.6H17L16.2,277.6z"/>
			</g>
			<g>
				<path class="st20" d="M63.3,280c0,0,5.7-0.3,8.5-0.5s4.3-1.2,4.3-4.8c0-2.4,2.8-3.2,4.5-3.5H62.4L63.3,280z"/>
			</g>
			<g>
				<polygon class="st6" points="101.2,271.3 62.5,271.4 49.7,142.7 81.1,142.7 90.3,199.6 90.4,200.7 95.6,232.6 95.7,233.6 				
					"/>
			</g>
			<g>
				<g>
					<polygon class="st3" points="76.4,271.4 77.3,271.4 64.8,142.7 63.7,142.7 					"/>
				</g>
			</g>
			<g>
				<polygon class="st6" points="73.2,142.7 65.6,198.5 65.5,199.5 61,232.7 60.8,233.7 55.7,271.4 17.1,271.4 34.6,142.7 				"/>
			</g>
			<g>
				<g>
					<polygon class="st3" points="25.4,271.4 24.5,271.3 43.8,142.7 45,142.7 					"/>
				</g>
			</g>
			<g>
				<g>
					<polygon class="st3" points="70.1,141.3 41.9,159.7 42.1,158.3 69.5,140.4 					"/>
				</g>
			</g>
			<g>
				<polygon class="st3" points="81.6,142.7 34.6,142.7 33.6,150.1 				"/>
			</g>
			<g>
				<polygon class="st6" points="83.5,142.7 32.2,142.7 39.1,68.5 42.5,61.9 42.9,61.1 45.9,55.5 58.7,57.6 75.6,95.8 75.8,96.4 
					78.3,101.9 				"/>
			</g>
			<g>
				<polygon class="st3" points="44.9,87.9 33.6,142.7 45,142.7 				"/>
			</g>
			<g>
				<polygon class="st3" points="59.6,242.5 73.2,142.7 81.6,142.7 				"/>
			</g>
			<g>
				<path class="st6" d="M39.1,68.5l-18.5,50c-1.2,3.2-1,6.7,0.5,9.8l8,14l21.4-53L39.1,68.5z"/>
			</g>
			<path class="st6" d="M19.9,156.6h18.8v-33.1c0-5.2-4.2-9.4-9.4-9.4l0,0c-5.2,0-9.4,4.2-9.4,9.4C19.9,123.5,19.9,156.6,19.9,156.6
				z"/>
			<g>
				<polygon class="st6" points="58.7,57.6 69.1,70.7 78.3,101.9 				"/>
			</g>
			<g>
				<polygon class="st23" points="52.6,56.8 78.3,101.9 68.5,74.1 58.7,57.6 				"/>
			</g>
			<g>
				<polygon class="st3" points="57.8,57.4 57,61.2 60.8,63 71.9,90.6 78.3,101.9 70,78.5 61.5,62.8 61.6,62.5 58.7,57.6 				"/>
			</g>
			<g>
				<polygon class="st23" points="45.9,53.9 57.8,57.4 56.5,63.7 43.8,58.1 				"/>
			</g>
			<g>
				<polygon class="st23" points="58.7,57.6 62.2,63.4 62.8,62.7 				"/>
			</g>
			<g>
				<polygon class="st3" points="76,96.3 75.8,96.4 75.4,96.8 42.5,61.9 42.9,61.1 75.6,95.8 				"/>
			</g>
			<g>
				
					<rect x="54.9" y="73.3" transform="matrix(0.9138 -0.4062 0.4062 0.9138 -24.9353 30.0819)" class="st3" width="6.9" height="1"/>
			</g>
			<g>
				
					<rect x="37.9" y="114.1" transform="matrix(0.5187 -0.8549 0.8549 0.5187 -82.0377 89.4396)" class="st3" width="1" height="6.9"/>
			</g>
			<g>
				
					<rect x="37.9" y="112.5" transform="matrix(0.9116 -0.4112 0.4112 0.9116 -44.2727 26.0539)" class="st3" width="1" height="6.9"/>
			</g>
			<g>
				<rect x="74.4" y="109.4" class="st3" width="2.7" height="1"/>
			</g>
			<g>
				<rect x="74.4" y="125.3" class="st3" width="2.7" height="1"/>
			</g>
			<g>
				<g>
					<path class="st3" d="M44.4,178.4c0-2.9-2.4-5.2-5.2-5.2H25c-2.9,0-5.2,2.4-5.2,5.2v9h24.5v-9H44.4z M21.6,178.4
						c0-1.9,1.5-3.4,3.4-3.4h14.1c1.9,0,3.4,1.5,3.4,3.4v7.2h-21L21.6,178.4L21.6,178.4z"/>
				</g>
				<rect x="0.8" y="182" class="st30" width="61" height="47"/>
				<rect x="0.8" y="182" class="st3" width="6.1" height="47"/>
				<rect x="6.9" y="207" class="st3" width="54.9" height="1.1"/>
				<rect x="34.2" y="203.1" class="st26" width="5.1" height="8.8"/>
			</g>
			<rect x="21.8" y="156.7" class="st23" width="16.8" height="5.1"/>
			<path class="st20" d="M28.6,177.8h10.8V166c0-2.4-1.9-4.3-4.3-4.3H21.9v9.3C21.9,174.8,24.9,177.8,28.6,177.8z"/>
		</g>
	</g>
	<g>
		<g>
			<g>
				<path class="st1" d="M266.8,160.2c0,0,1.9,16.6-0.2,16.1s-3.9-15.3-3.9-15.3L266.8,160.2z"/>
			</g>
			<g>
				<path class="st1" d="M256.9,159.5c0,0,4.3,16.1,2.1,15.9c-2.1-0.3-6-14.6-6-14.6L256.9,159.5z"/>
			</g>
			<g>
				<path class="st1" d="M253.1,161.2c-1.6-3.7,0.4-7.8,3.9-9.5c3.6-1.7,7.8-0.1,9.5,3.6c1.6,3.7,0.1,8.2-3.5,9.9
					C259.5,167,254.8,165,253.1,161.2z"/>
			</g>
			<g>
				<path class="st1" d="M262.9,161.3c0,0,2,17-0.3,16.7s-4.2-15.4-4.2-15.4L262.9,161.3z"/>
			</g>
			<g>
				<path class="st1" d="M264.9,153.2c0,0,1.6,1.8,3.4,5.3s2.9,9,2.1,9.9c-0.8,0.8-8-10.6-8-10.6L264.9,153.2z"/>
			</g>
			<g>
				<g>
					<path class="st3" d="M258.2,158.7c0.1,0.2,0.3,1.8,1.8,3.3c1.4,1.4,4.2,0.7,5.1,0.4l2.2,3.1l0.6-0.5l-2.6-3.6l-0.3,0.1
						c-0.1,0-3.2,1.2-4.6-0.2s-1.6-2.9-1.6-2.9L258.2,158.7L258.2,158.7z"/>
				</g>
			</g>
			<g>
				<g>
					<path class="st3" d="M258.2,165.6c0.1,0,1.3,0.2,3,0.2c0.9,0,2.9-0.5,3-0.5l-0.2-0.8c0,0-1.9,0.5-2.8,0.5
						c-1.5,0-2.8-0.2-2.9-0.2L258.2,165.6z"/>
				</g>
			</g>
		</g>
		<g>
			<path class="st4" d="M259.4,125.5l-7.9,2.1v12.5l-0.2-0.7l-0.8-4.1L242,92.9l-0.2-0.9l-0.2-0.7c0.2,0.2,0.3,0.3,0.5,0.5
				s0.4,0.4,0.5,0.5l0,0c0.1,0.1,0.1,0.1,0.1,0.1c6.5,6.9,14.3,20.2,16.5,32.5C259.3,125.2,259.4,125.4,259.4,125.5z"/>
			<path class="st1" d="M258.8,155.6c0,0-14.4-16.2-10.5-24.5c1.5-3.3,5.5-5.5,10.2-5.9h0.1l5.6,27.3L258.8,155.6z"/>
			<polygon class="st29" points="257.6,155 251.5,146 251.5,140.2 252.7,146 			"/>
			<polygon class="st29" points="265.2,215.4 254.5,237.6 241.9,263.5 237.1,273.6 235.5,263.5 231.6,237.6 221.1,169.1 
				226.4,162.9 245.9,140.3 			"/>
			<path class="st29" d="M237.1,273.6l-22.5-0.2l0,0l0,0c-0.2-0.4-2.3-3.8-5-9.8c-2.8-6.1-6.7-14.9-9.5-26
				c-0.8-3.3-1.6-6.8-2.2-10.5c-0.4-2.2-0.7-4.4-1-6.7c-0.1-0.3-0.1-0.6-0.1-0.9c-2.7-21.8-1.6-49.1,8.6-80h0.2l18.6-0.7l0.1,0.7
				l2.2,23.5l5.4,56.5l0.1,0.9l0.7,6.7l1,10.5l2.5,26L237.1,273.6z"/>
			<path class="st31" d="M267.1,219.4v0.9c0,4.2-0.2,6.7-0.2,6.7h-69.2c-0.4-2.2-0.7-4.4-1-6.7c-0.1-0.3-0.1-0.6-0.1-0.9
				c-2.7-21.8-1.6-49.1,8.6-80l0,0H224h27.8C265.4,169.4,267.1,204.3,267.1,219.4z"/>
			<path class="st4" d="M251.9,139.5h-46.6l-0.7-46.1l1-1.1l0.7-0.7l5.9-6.2l6.5-7h9.6l8.1,7.8l5.3,5.1l0.5,0.5l0.4,0.4
				c0.1,0.1,0.1,0.1,0.1,0.2l0,0c0.1,0.1,0.1,0.1,0.1,0.2c1.2,2.3,8.5,24.4,8.5,24.4L251.9,139.5z"/>
			<path class="st1" d="M236.4,86.2c-2.5,1.3-5.8,2.3-10.1,2.6c-6.3,0.4-10.9-1.4-14.1-3.5l6.5-7h9.6L236.4,86.2z"/>
			<g>
				
					<rect x="251" y="110.1" transform="matrix(1 -3.293266e-03 3.293266e-03 1 -0.4096 0.8287)" class="st32" width="0.9" height="29.4"/>
			</g>
			<g>
				<g>
					<g>
						<path class="st3" d="M241.4,294.4h-34.5c0,0-0.3-1.1-0.5-2.7c0-0.2,0-0.3,0-0.4c0-0.2,0-0.3,0-0.4c-0.1-2,0.3-4.6,2-6.6
							c0.1-0.2,0.3-0.3,0.4-0.5c0.1-0.1,0.2-0.2,0.3-0.3c0.1-0.1,0.1-0.1,0.1-0.1c0.2-0.2,0.5-0.4,0.7-0.6c3.8-2.9,5.8-4.1,4.8-9.5
							l4.4,0.1l18.1,0.2l3.6,17.3l0.1,0.4l0.1,0.4L241.4,294.4z"/>
					</g>
					<g>
						<path class="st33" d="M206.4,290.9c0,0.3,0,0.6,0.1,0.8h34.4l-0.2-0.8H206.4z"/>
					</g>
					<g>
						<g>
							<path class="st33" d="M236.4,291.2l-0.7,0.4c0.2,0.2-6.6-7.3-12.2-7.3h-15.3c0.2-0.3,0.5-0.6,0.8-0.8h14.2
								C229.4,283.4,236.4,291.1,236.4,291.2z"/>
						</g>
					</g>
				</g>
			</g>
			<g>
				<circle class="st5" cx="212.2" cy="40.4" r="10"/>
				<g>
					<ellipse class="st5" cx="225.7" cy="52.6" rx="14.8" ry="14.1"/>
					<rect x="218.1" y="61.9" class="st1" width="10.8" height="17.6"/>
					<polygon class="st34" points="228.9,72.4 219.6,71.3 228.9,76.9 					"/>
					<path class="st1" d="M218.7,72.6V54.4c0-6.2,4.9-11.3,11-11.3l0,0c6.1,0,11,5.1,11,11.3v11C240.6,78.8,218.7,72.6,218.7,72.6z"
						/>
					<path class="st14" d="M240.6,58.4v5.7c-0.2,0.1-0.4,0.1-0.7,0.1c-1.4,0-2.6-1.3-2.6-3c0-1.6,1.2-3,2.6-3
						C240.2,58.3,240.4,58.3,240.6,58.4z"/>
					<path class="st1" d="M221.5,60.4c0,2.3-1.9,4.2-4.2,4.2c-2.3,0-4.2-1.9-4.2-4.2s1.9-4.2,4.2-4.2
						C219.6,56.2,221.5,58.1,221.5,60.4z"/>
					<path class="st14" d="M230.1,61.3c0,1.7-1.4,3.1-3.1,3.1s-3.1-1.4-3.1-3.1c0-1.7,1.4-3.1,3.1-3.1S230.1,59.6,230.1,61.3z"/>
					<g>
						<circle class="st34" cx="229.1" cy="58.6" r="1"/>
						<circle class="st34" cx="237.7" cy="58.6" r="1"/>
						<g>
							<path class="st34" d="M234.6,63.2c-0.1,0-0.1,0-0.2,0l-2.2-0.4l0.1-0.8l2.2,0.4l0.1-0.1l-0.5-4.3l0.8-0.1l0.5,4.3
								c0.1,0.3-0.1,0.6-0.3,0.8C235,63.1,234.8,63.2,234.6,63.2z"/>
						</g>
					</g>
					<g>
						<path class="st3" d="M234.4,67.6c-1.3,0-2.8-0.3-4.2-1.2l0.6-0.9c2.7,1.8,6,0.7,6.1,0.7l0.3,1
							C237.1,67.3,235.9,67.6,234.4,67.6z"/>
					</g>
				</g>
				<path class="st5" d="M229.6,40.4h-11.7v1c0,6.7,5.5,12.3,12.3,12.3h11.1v-1.5C241.3,45.6,236.1,40.4,229.6,40.4z"/>
				<polygon class="st5" points="220.8,63.1 216.4,47.4 220.8,47.4 				"/>
			</g>
			<polygon class="st34" points="237.1,273.6 232.6,227 238.7,227 			"/>
			<polygon class="st34" points="198.3,227 256.8,232.8 259.6,227 			"/>
			<g>
				<path class="st34" d="M267.1,219.4v0.9h-70.3c-0.1-0.3-0.1-0.6-0.1-0.9H267.1z"/>
			</g>
			<path class="st4" d="M215.4,139.5l-18.5-12.2c-0.5-9.5-0.5-19.3,7.7-33.9L215.4,139.5z"/>
			<g>
				
					<rect x="208.9" y="102.4" transform="matrix(0.9735 -0.2288 0.2288 0.9735 -20.6835 50.9154)" class="st32" width="0.7" height="24.5"/>
			</g>
			<g>
				<polygon class="st32" points="207.9,107.8 207.3,107.5 207.9,103.6 208.5,103.9 				"/>
			</g>
			
				<rect x="214.7" y="105" transform="matrix(1 -3.724224e-03 3.724224e-03 1 -0.4638 0.8535)" class="st34" width="28.5" height="39.9"/>
			<g>
				<path class="st1" d="M227.2,129.4c0,0-17.3,13-25.2,8.5c-3.1-1.8-5-5.9-5-10.6v-0.1l27.7-3.4L227.2,129.4z"/>
			</g>
			<g>
				
					<rect x="232.5" y="183.6" transform="matrix(0.978 -0.2087 0.2087 0.978 -35.8599 52.9393)" class="st34" width="0.9" height="25.6"/>
			</g>
			<g>
				
					<rect x="231.4" y="173.7" transform="matrix(0.9704 -0.2415 0.2415 0.9704 -36.6587 61.3206)" class="st34" width="0.9" height="13"/>
			</g>
			<path class="st29" d="M223.1,273.4c0,0,6.5-0.8,8.2,4.3c1.4,4.3,7.7,5.3,7.7,5.3l-2.2-12.4L223.1,273.4z"/>
			<g>
				<path class="st32" d="M228,90.1c-0.2,0.8-0.5,1.9-1.3,2.9c-1.2,1.5-3.1,2.4-5.6,2.6c-0.6,0.1-1.1,0.1-1.7,0.1
					c-5.4,0-11.3-2.2-13.8-3.3l0.7-0.7c2.9,1.2,9.5,3.6,14.8,3.1c2.2-0.2,3.9-1,5-2.2c1.3-1.6,1.2-3.6,1.2-3.6l0.6-0.1l0,0h0.3
					C228.1,88.7,228.2,89.3,228,90.1z"/>
			</g>
			<g>
				<path class="st32" d="M242.9,92.5C242.9,92.5,242.8,92.5,242.9,92.5c-0.3,0.2-0.5,0.3-0.8,0.5c-1.5,0.8-3.5,1.5-5.5,1.5
					c-0.8,0-1.6-0.1-2.4-0.4c-3.6-1.1-5.3-2.9-6.1-4.1l0,0c-0.5-0.7-0.6-1.2-0.6-1.3l0.4-0.1h0.1l0.4-0.1l0,0c0.1,0.1,1,3.2,6.1,4.8
					c2.7,0.8,5.5-0.2,7.5-1.3c0.1-0.1,0.3-0.2,0.4-0.2l0,0l0.4,0.4C242.9,92.3,242.9,92.3,242.9,92.5L242.9,92.5
					C242.8,92.4,242.8,92.5,242.9,92.5z"/>
			</g>
			<g>
				<g>
					<path class="st1" d="M229.9,125.2c0,0,8.4,2.8,7.2,4.1c-1.3,1.3-8.2-0.9-8.2-0.9L229.9,125.2z"/>
				</g>
				<g>
					<path class="st1" d="M226.1,131.7c0,0,7.7-0.2,6.6,1.3c-1,1.5-7.2,2-7.2,2L226.1,131.7z"/>
				</g>
				<g>
					<path class="st1" d="M225.3,135.5c-3.7-0.2-6.1-3.1-6-6.3c0.1-3.3,3.1-5.7,6.7-5.6c3.7,0.2,6.6,3,6.5,6.2
						C232.4,133,228.9,135.7,225.3,135.5z"/>
				</g>
				<g>
					<path class="st1" d="M229.7,128.5c0,0,6.8,0.9,5.6,2.5c-1.2,1.6-6.4,1.2-6.4,1.2L229.7,128.5z"/>
				</g>
				<g>
					<path class="st1" d="M223.5,124c0,0,2-0.5,5.6-0.5s7.1,1.1,7.4,2s-10.4,2-10.4,2L223.5,124z"/>
				</g>
			</g>
		</g>
	</g>
	<path class="st0" d="M644.8,37.1c-0.1-0.2-2.9-3.5-2.8-8.6c0.1-4.8,3.1-6.9,3.1-6.9s-0.5-8,5.8-9.7s16.8,1.3,24.4,9.2
		c7.6,7.9-0.9,21-3.8,22.1C668.7,44.4,644.8,37.1,644.8,37.1z"/>
	<circle class="st35" cx="645.7" cy="39.8" r="4.1"/>
	<circle class="st35" cx="673.1" cy="39.8" r="4.1"/>
	<g>
		<path class="st36" d="M633.2,68.2c-4.1,2.5-7,6.8-11,12.9c-4.1,6.2-21.9,36.2-22.6,38.4c-0.7,2.2-2.7,6.8,0.1,11.6
			c3.8,3.8,11.9,5.3,21.3-5c5.1-5.6,11.3-15.3,15.8-22.9c5-8.4,6.6-18.5,4.1-28C639.4,69.9,637.1,65.9,633.2,68.2z"/>
	</g>
	<path class="st37" d="M704.1,279.3c-3.9,0-37.7,0-37.7,0l-0.7-99h-2.3l-2.8,99c0,0-13.3-0.5-32.7-0.5c-0.5-32.7-0.6-80.7-0.5-109.7
		c0-6.4,0.1-10.1,0.1-10.1s36.4-1.9,74.3,1.1c0.2,0.9,0.4,4.1,0.5,9.1C703.1,197.4,701.6,245.2,704.1,279.3z"/>
	<path class="st36" d="M702.2,169h-74.8c0-6.4,0.1-10.1,0.1-10.1s36.4-1.9,74.3,1.1C701.9,160.8,702,164,702.2,169z"/>
	<path class="st36" d="M653.5,180.5h26C679.5,180.5,667.4,170.6,653.5,180.5z"/>
	<path class="st36" d="M695.1,70.4c-3.3-0.3-5.5,3.8-5.2,9.7c0.4,5.9,4.4,33.5,6.3,39.1c1.8,5.6,5.2,16.4,12.8,17.2
		c7.6,0.9,10.7-0.5,11.3-7.2c0.6-6.8-6.5-27.9-8.9-35.7C709,85.6,703.8,75.6,695.1,70.4z"/>
	<g>
		<path class="st38" d="M703.1,163.3h-76.6c0,0,3.7-83.1,3.6-87.1c-0.1-4.1,0.9-6.4,3-7.9c2.2-1.5,15.6-6.3,15.6-6.3l7.2-3.1
			l14.4-3.1l6.7,5.3c0,0,15.2,7.4,18.1,9.3c2.9,1.9,3.2,4.2,3.1,9.5C698.1,85.2,703.1,163.3,703.1,163.3z"/>
		<path class="st36" d="M664.2,163.3h-1.3c-0.1-2.5,0-5,0-7.5c0-10.9-0.1-21.8,0.1-32.7c0-0.8,1.2-0.8,1.3,0c0,3.1,0.1,6.2,0.1,9.2
			v16.3C664.3,153.5,664.3,158.4,664.2,163.3z"/>
		<path class="st39" d="M653.9,60.4l-5.1,2.1c0,0-4.5,29.9-4.5,30.7c4,1.8,5.7,2.8,5.7,2.8l-3.8,4.9l17.4,27.2l16.7-27.8l-5.7-5.5
			l6.4-1.7l-4.3-31.6l-4.5-3.3L653.9,60.4z"/>
		<path class="st26" d="M669.6,102c-1.5,7.7-3.5,16.3-6,25.9c-2.8-9.1-4.9-17.1-6.4-24.1c-4.5-21.1-4-33.2-3.8-38l0,0
			c0.2-3.8,0.4-5.6,0.4-5.6s11.5-3.6,18.8-1.7c0.3,0.6,0.7,2.2,0.8,4.5c0,0.1,0,0.1,0,0.1C674,72.7,673,85.2,669.6,102z"/>
		<path class="st40" d="M673.4,63.2c-2.8,4.8-8.2,9-8.2,9l-3.4-6.4l-5.6,6.5c0,0-2-3.8-2.8-6.3v-0.2c0.2-3.8,0.4-5.6,0.4-5.6
			s11.5-3.6,18.8-1.7c0.3,0.6,0.7,2.2,0.8,4.5C673.4,63.1,673.4,63.1,673.4,63.2z"/>
		<path class="st41" d="M669.6,102c-1.5,7.7-3.5,16.3-6,25.9c-2.8-9.1-4.9-17.1-6.4-24.1l2.8-44.4l3.4-0.1L669.6,102z"/>
		<path class="st41" d="M662.3,59.5c-3.6-1.1-5.2,3.7-5,8.1l8.2-0.2C665.6,67.5,665.9,60.6,662.3,59.5z"/>
		<path class="st26" d="M654.3,63.2l2.1,6.6l5.4-7.4l3.7,7.5l5.4-5.6c2.2-2.2,2.4-5.7,0.5-8.2c-0.4-0.5-0.7-0.8-1.1-1
			c-2.1-1-11.9,1-13.5,1.5c-0.7,0.2-1.3,0.6-1.8,1.1C653.5,59,653.3,61.3,654.3,63.2z"/>
		<path class="st0" d="M673.2,137.4c0,1.1-0.9,1.9-1.9,1.9s-1.9-0.9-1.9-1.9c0-1.1,0.9-1.9,1.9-1.9S673.2,136.3,673.2,137.4z"/>
		<path class="st0" d="M673,149.1c0,1.1-0.9,1.9-1.9,1.9c-1.1,0-1.9-0.9-1.9-1.9s0.9-1.9,1.9-1.9C672.2,147.2,673,148.1,673,149.1z"
			/>
	</g>
	<g>
		<g>
			<path class="st37" d="M678,102.6c0,0-3.7,5.3-3.1,10c0.3,3.9,10.6,13.6,18.5,18.9c7.8,5.3,14.8,10.3,21.9,6.3
				c7.1-4,4.9-13,2.7-15.5c-2.2-2.6-29.1-25-31-26.6C685,94.1,680.1,100.4,678,102.6z"/>
			<path class="st38" d="M687.9,99.8c-0.1,0.4-0.2,1-0.5,1.8c-0.9,2.7-2.8,7.2-5.5,9.9c-1.4,1.4-2.9,2.2-4.6,2.3
				c-2.9,0.1-1.8-3.9-0.3-7.2c0.7-1.6,1.5-3,2-3.8c1.2-1.9,2.5-3.6,3.9-4.7c1-0.9,2-1.5,2.8-1.7C687,96.2,688.4,97,687.9,99.8z"/>
			<path class="st35" d="M687.4,101.5c-0.9,2.7-2.8,7.2-5.5,9.9l-4.9-4.8l-5.7-5.6c0.1-4.1,7.3-5.9,7.3-5.9s1.6,1.1,4.3,3.1
				C684.2,99,685.7,100.2,687.4,101.5z"/>
		</g>
		<g>
			<path class="st42" d="M668.2,99.3c0,0,2.2,2.3,3.9,2.7c1.7,0.4,2.6-0.6,3.8-0.1s2.1,0.9,4.1-0.2c1.9-1.1,2.3-2.8,1.7-5.7
				s-1.7-9.1-4.9-7.9c-6.7-1.5-9.4-1.4-11.2,1C663.8,91.5,669.1,92.3,668.2,99.3z"/>
			<path class="st35" d="M670.5,84.4c0,0-0.3-2.6-2.5-1.7c-2.2,1-5.7,11-5.2,12c0.5,1.1,1.1,0.8,1.9,0.4c0.8-0.4,3-4.9,3-4.9
				s-1.4,2.8,0.1,3.7c1,0.7,2.1-0.4,2.1-0.4s0,1.5,1.2,1.7s2.1-1.1,2.1-1.1s-0.4,1.3,0.7,1.7c1.1,0.5,2-0.2,2.5-0.7
				c0.4-0.5,2.7-4.4,2.6-5.6c-0.1-1.2-1.1-2.1-2-1.5c-0.6-1.9-2.4-2.2-3.2-1.8C673.6,84.8,672.4,83.9,670.5,84.4z"/>
			<path class="st35" d="M666.5,96c0,0-1,0.3-1.2,1.5c-0.3,1.2,1.1,2.2,2.3,3s3.9,2.3,4.5,2.3c0.7,0,1.5,0.1,1.5-1
				c-0.1-1-1.6-2.5-2.7-3.3C669.9,97.7,667.4,95.6,666.5,96z"/>
			<path class="st43" d="M669.1,86.2c-0.7,1-1.3,2.1-1.8,3.2c-0.5,1-1,2.2-1.1,3.3c0,0.3,0.4,0.4,0.5,0.2c0.3-0.5,0.4-1.1,0.6-1.6
				c0.2-0.6,0.4-1.1,0.7-1.7c0.5-1.1,1-2.1,1.6-3.1C669.7,86.2,669.3,85.9,669.1,86.2z"/>
			<path class="st43" d="M671.8,88.3c-0.5,0.9-1.1,1.8-1.6,2.7c-0.5,0.9-1.1,1.8-1.4,2.7c-0.2,0.4,0.5,0.8,0.8,0.5
				c0.6-0.8,1.1-1.8,1.5-2.6c0.5-0.9,1-1.9,1.4-2.8C672.8,88.2,672.1,87.8,671.8,88.3z"/>
			<path class="st43" d="M675.2,89.6c-1,1.7-2.1,3.3-2.8,5.1c-0.2,0.3,0.4,0.5,0.6,0.3c1.1-1.6,1.8-3.4,2.7-5.1
				C675.7,89.5,675.3,89.3,675.2,89.6z"/>
		</g>
	</g>
	<g>
		<path class="st37" d="M628,99.3c0,0-1.8-0.7-3.3,0.5c-1.3,1-22.7,17.3-24.9,21s-2.8,7.1,0.5,11.2c3.3,4.1,8.9,4.5,12,3.9
			c3.2-0.6,18.1-13.1,20.2-16.8c2-3.7,1.6-8.1,1.2-11.7C633.2,103.7,629.2,99.7,628,99.3z"/>
		<path class="st38" d="M629.9,119.8c-1.2,0.7-3.1,0.4-4.3-2.9c-0.4-1-0.7-2.1-0.9-3.6c-0.6-4.2-0.6-6.8-0.4-8.5
			c0.1-1,0.2-1.7,0.3-2.1c0.2-1.3,1-2.9,2.6-3c0.7-0.1,1.4,0,2.1,0.7c1.2,1.3,2.2,3.9,3,8c0.2,0.8,0.3,1.5,0.3,2.2
			C633,115.9,631.2,119.1,629.9,119.8z"/>
		<path class="st35" d="M635.7,108.1l-3,2.6l-7.1,6.2c-0.4-1-0.7-2.1-0.9-3.6c-0.6-4.2-0.6-6.8-0.4-8.5c2.6-2.1,4.1-3.6,5-4.4
			c0.6-0.6,0.9-0.9,0.9-0.9L635.7,108.1z"/>
		<g>
			<path class="st43" d="M628.6,101.6c0,0,3.5-8.7,4.9-9.7c1.9-1.4,4.9-1,4.9-1l0.2,7L628.6,101.6z"/>
		</g>
		<g>
			<g>
				<path class="st40" d="M660.4,107.9H641c-1.1,0-2.1-0.9-2.1-2l-2.4-30.3c-0.1-1.3,0.9-2.3,2.1-2.3H658c1.1,0,2.1,0.9,2.1,2
					l2.4,30.3C662.6,106.8,661.7,107.9,660.4,107.9z"/>
				<path class="st26" d="M659.6,106.8h-18.1c-1.1,0-1.9-0.8-2-1.9l-2.3-28.3c-0.1-1.2,0.8-2.2,2-2.2h18.1c1.1,0,1.9,0.8,2,1.9
					l2.3,28.3C661.6,105.8,660.7,106.8,659.6,106.8z"/>
			</g>
			<path class="st37" d="M651.2,87.5c0,1.4-1.1,2.4-2.4,2.4s-2.4-1.1-2.4-2.4c0-1.4,1.1-2.4,2.4-2.4S651.2,86.1,651.2,87.5z"/>
		</g>
		<g>
			<path class="st35" d="M628.6,101.6c0,0-0.5,1.7,0.1,3.2s2.4,3.8,5,3.9c2.7,0.1,6.9-3.3,6.9-3.3s4.9-0.4,5.5-0.7
				c0.7-0.3,1.6-1.3,0.3-2.9c1.2-1,0.8-3.1-0.1-3.4c1.3-0.3,1.3-2,0.2-2.6c1.5-1.4,1.1-2.6-0.9-3s-7.7-0.9-9.4-0.4
				C634.6,93,630.7,97.9,628.6,101.6z"/>
			<path class="st43" d="M646.4,95.1c-0.7-0.3-1.6-0.2-2.4-0.3c-0.8-0.1-1.6-0.1-2.3-0.1c-1.6,0-3.2,0.1-4.7,0.2
				c-0.3,0.1-0.3,0.5,0,0.5c1.6,0,3.1,0.1,4.7,0.3c0.8,0.1,1.5,0.2,2.3,0.2c0.4,0.1,0.8,0.1,1.2,0.2s0.8,0.2,1.2,0.1
				C646.9,96.1,647,95.3,646.4,95.1z"/>
			<path class="st43" d="M646.5,98.1c-0.7-0.2-1.5-0.1-2.2-0.1c-0.8,0-1.5-0.1-2.3-0.1c-1.5-0.1-3-0.1-4.5-0.1c-0.4,0-0.4,0.6,0,0.6
				c1.5,0.1,3,0.2,4.5,0.3c0.8,0.1,1.5,0.1,2.3,0.1c0.7,0.1,1.5,0.2,2.2,0.1C646.9,98.9,646.9,98.2,646.5,98.1z"/>
			<path class="st43" d="M646.4,101.6c-0.3-0.1-0.7-0.1-1-0.1c-0.4,0-0.7-0.1-1.1-0.1c-0.7,0-1.4-0.1-2.1-0.1
				c-1.4,0-2.8,0.1-4.2,0.1c-0.4,0-0.4,0.6,0,0.6c1.4,0.1,2.8,0.2,4.2,0.2c0.7,0,1.4,0,2.1,0c0.3,0,0.7,0,1,0c0.4,0,0.7,0.1,1.1-0.1
				C646.7,102.1,646.7,101.7,646.4,101.6z"/>
			<path class="st43" d="M641.6,104.8c-0.7-0.2-1.3-0.1-2-0.1c-0.4,0-0.4,0.6,0,0.6c0.7,0.1,1.3,0.2,2,0.1
				C641.8,105.3,641.8,104.9,641.6,104.8z"/>
		</g>
	</g>
	<line class="st39" x1="627.4" y1="143.6" x2="637.7" y2="135.7"/>
	<line class="st39" x1="701.7" y1="144.7" x2="691.5" y2="136.7"/>
	<line class="st44" x1="695.2" y1="186.8" x2="696.8" y2="279.5"/>
	<polyline class="st44" points="662.9,168.7 662,175.2 665.7,179.6 	"/>
	<line class="st44" x1="635.6" y1="180.7" x2="634.7" y2="278.7"/>
	<path class="st35" d="M670.7,38.4l-0.1-2.4c0-1.1-0.5-2.1-1.4-2.8l0,0c-0.9-0.7-1.4-1.8-1.4-2.8c0-2.2-1.8-3.9-3.9-3.9h-13.6
		c-2.2,0-3.9,1.8-3.9,3.9c0,5.4,0,14.6,0.1,16.3c0.2,2.5,0.3,4.3,1.8,5.9c0.1,0.1,0.1,0.2,0.2,0.2c1.2,1.2,3.3,3.1,5.1,3.1v4.7
		c0.1,0.2,0.1,0.4,0.1,0.6c1.8,1.6,4,2.1,6.7,2.3s9.5-1.5,12-6.2v-20L670.7,38.4z"/>
	<g>
		<path class="st0" d="M660.1,37c0,0.5-0.4,1-1,1s-1-0.4-1-1c0-0.5,0.4-1,1-1S660.1,36.5,660.1,37z"/>
	</g>
	<g>
		<path class="st0" d="M651.8,37c0,0.5-0.4,1-1,1c-0.5,0-1-0.4-1-1c0-0.5,0.4-1,1-1C651.4,36.1,651.8,36.5,651.8,37z"/>
	</g>
	<circle class="st14" cx="664.8" cy="43.3" r="2.8"/>
	<path class="st14" d="M646.4,40.1c0,2.2,0,4.1,0.1,5.3c0.3,0.1,0.6,0.2,0.8,0.2c1.6,0,2.8-1.3,2.8-2.8c0-1.6-1.3-2.8-2.8-2.8
		C646.9,40,646.7,40,646.4,40.1z"/>
	<path class="st0" d="M672.5,34.6l-27.6-0.1v0.2l0,0c0,0-0.1,3.6-0.1,4.6c0.1,1.1,0.4,2.2,1.7,2.8c1.3,0.5,4.5,0.4,5.2,0.2
		c1.2-0.5,1.4-1.4,1.5-2.1c0.1-0.6,0.2-3.4,0.2-4.5h1.6c-0.1,1-0.1,2.9-0.1,3.7c0.1,1.1,0.4,2.3,2,2.9c1.6,0.5,5.4,0.3,6.3,0
		c1.4-0.5,1.9-1.4,2-2.1c0.1-0.4,0.2-2.2,0.2-3.6l6,0.1L672.5,34.6z M652.7,37.4c-0.1,1-0.1,3.5-1.3,3.8c-1,0.3-2.9,0.2-4.1,0
		c-1.1-0.2-1.6-0.6-1.9-1.7c-0.2-0.9-0.1-3.1-0.1-4h7.4C652.7,36.2,652.7,36.7,652.7,37.4z M664.6,37.5c-0.1,1-0.1,3.5-1.6,3.8
		c-1.2,0.3-3.8,0.4-5.2,0.2c-1.3-0.2-1.8-0.8-2.1-1.8c-0.2-0.9-0.2-3.1-0.1-4h9.1C664.7,36.2,664.7,36.7,664.6,37.5z"/>
	<g>
		<g>
			<path class="st0" d="M652.9,45c-0.4,0-0.8-0.2-1.1-0.5c-0.4-0.4-0.6-0.9-0.5-1.4v-1.8h1.5l0.1,2.2h0.1l0.2,0.1h3.5V45h-3.5
				C653,45,653,45,652.9,45z"/>
		</g>
	</g>
	<path class="st26" d="M650.9,47.3h10.5c0,0-1.7,2.7-5.3,2.9C652.4,50.5,650.9,47.3,650.9,47.3z"/>
	<polygon class="st3" points="653.6,55.9 663,55.9 653.5,58.8 	"/>
	<g>
		<g>
			<line class="st45" x1="629.3" y1="25" x2="615.1" y2="21.1"/>
		</g>
		<line class="st45" x1="631.9" y1="19.1" x2="625.1" y2="8.4"/>
		<line class="st45" x1="627.9" y1="32.5" x2="619.3" y2="35.3"/>
	</g>
	<g>
		<g>
			<line class="st45" x1="451.6" y1="42.3" x2="465.7" y2="38.4"/>
		</g>
		<line class="st45" x1="448.9" y1="36.4" x2="455.8" y2="25.7"/>
		<line class="st45" x1="452.9" y1="49.7" x2="461.6" y2="52.6"/>
	</g>
	<ellipse class="st26" cx="436.6" cy="61.6" rx="3.1" ry="1.7"/>
</g>
<g id="圖層_3" class="st46">
	<g class="st47">
		<path class="st3" d="M106.6-269.2l10.7-21.2c5.3-9.3,16.8-12.3,25.6-6.7l0,0c8.8,5.6,11.7,17.7,6.3,27l-10.7,21.2
			c-5.3,9.3-16.8,12.3-25.6,6.7l0,0C104.1-247.9,101.3-259.9,106.6-269.2z"/>
		<path class="st30" d="M142.8-256.4l-48.6,12.9c0,0,6.8,74.5-8.9,85v43.4c0,0,55.6,4.4,60.3-48.1
			C150.4-215.7,142.8-256.4,142.8-256.4z"/>
		<path class="st48" d="M145.5-160.9c-10.2-8-26.4-5.5-37.6,6.2c-10.8,11.4-13.4,27.7-6.6,38.5C117.7-118.9,141.5-128.6,145.5-160.9
			z"/>
		<g>
			<g>
				<g>
					<polygon class="st30" points="75.6,-54.6 50.9,179.3 -24.6,179.3 0.2,-54.6 					"/>
				</g>
			</g>
			<path class="st3" d="M53.4,155.5l1.5-13.8H32.5c-8.8,0-16.8,5.4-20.5,13.8l0,0H53.4z"/>
			<path class="st3" d="M-22.1,155.5l-2.5,23.7H66c0-11.9-12.6-23.7-12.6-23.7H-22.1z"/>
		</g>
		<g>
			<g>
				<polygon class="st5" points="56.3,128 55.2,138.3 -20.3,138.3 -19.2,128 				"/>
				<polygon class="st5" points="59.1,101 58.1,111.3 -17.4,111.3 -16.3,101 				"/>
			</g>
		</g>
		<path class="st48" d="M69,8.4L60.4,90c-18.6-3-28.3-21.7-26.1-42.4C36.4,26.9,49.8,11.3,69,8.4z"/>
		<g>
			<g>
				<g>
					<polygon class="st30" points="3.3,-54.6 -41,179.3 -116.5,179.3 -72.1,-54.6 					"/>
				</g>
			</g>
			<path class="st3" d="M-36.5,155.5l2.7-13.8h-23.6c-8.8,0-16.8,5.4-20.5,13.8l0,0H-36.5z"/>
			<polygon class="st3" points="20,-20.2 -5,-20.2 -4.3,-10.9 			"/>
			<path class="st3" d="M-112,155.5l-4.5,23.7h86.2c0-20.1-6.3-23.7-6.3-23.7H-112z"/>
		</g>
		<g>
			<g>
				<polygon class="st5" points="-31.3,128 -33.2,138.3 -108.7,138.3 -106.7,128 				"/>
				<polygon class="st5" points="-26.1,101 -28.1,111.3 -103.6,111.3 -101.6,101 				"/>
			</g>
		</g>
		<path class="st48" d="M-8.9,10.1L-24.1,90c-18.3-3-32.5-14.8-30-40.8C-52.1,28.2-32,10.1-8.9,10.1z"/>
		<path class="st30" d="M-79.3-35.3h164L85-65.7l0.2-10.1l0.7-50.4l0.2-10.1l0.7-49.1C87.5-229.3,51.7-265,6.9-265H5.2
			c-31,0-58.1,17-72.1,42c-6.3,11.2-9.9,24-10.1,37.5l-0.2,12.9l-0.5,36.2l-0.2,10.1l-0.8,50.4l-0.2,10.1L-79.3-35.3z"/>
		<polygon class="st3" points="-50.3,-115.1 -78.2,-115.1 -77.3,-174.1 		"/>
		<polygon class="st5" points="85,-65.7 -79,-65.7 -78.8,-75.7 85.1,-75.7 		"/>
		<polygon class="st5" points="86.6,-174.8 -77.3,-174.8 -77.2,-184.8 86.8,-184.8 		"/>
		<g>
			<path class="st5" d="M6-337.1h-7.6c0-19.8,11.1-35.9,24.7-35.9v8C13.8-365,6-352.2,6-337.1z"/>
		</g>
		<rect x="11.9" y="-320.8" class="st3" width="48.9" height="8.6"/>
		<path class="st3" d="M39-263.9h-49.3c-12,0-21.8-9.8-21.8-21.8v-26.8h92.9v26.8C60.8-273.6,51.1-263.9,39-263.9z"/>
		<ellipse class="st20" cx="45.2" cy="-304.5" rx="8.8" ry="9.3"/>
		<rect x="3.1" y="-254" class="st48" width="18" height="218.7"/>
		<polygon class="st3" points="21.1,-35.3 25.6,-254 21.1,-254 		"/>
		<path class="st3" d="M21.1-236.7c0,0,10.3-4.6,15-9.8s4.9-14.6,4.9-14.6l-19.8,7.7L21.1-236.7L21.1-236.7L21.1-236.7z"/>
		<path class="st3" d="M3.1-239c0,0-12.6-4.6-18.2-9.9c-5.7-5.3-5.9-14.7-5.9-14.7l24.2,7.8L3.1-239L3.1-239z"/>
		<ellipse class="st48" cx="9.5" cy="-262.4" rx="31.5" ry="18.4"/>
		<g>
			<path class="st20" d="M-4.4-311.6v8.9c0,14.7,11.3,26.6,25.2,26.6l0,0c11.9,0,21.8-8.6,24.5-20.2c0.5-2,0.7-4.2,0.7-6.3v-9
				c-0.1-14.6-11.3-26.5-25.2-26.5l0,0C6.9-338.2-4.4-326.3-4.4-311.6z"/>
			<rect x="-11.3" y="-320.8" class="st3" width="62.5" height="4.7"/>
			<path class="st20" d="M11.7-255.5L11.7-255.5c-8,0-14.5-6.8-14.5-15.3V-315h29v44.2C26.2-262.3,19.7-255.5,11.7-255.5z"/>
		</g>
		<ellipse class="st20" cx="-7.1" cy="-304.1" rx="9.3" ry="9.5"/>
		<path class="st3" d="M25.7-329.8L25.7-329.8c-5.4,0-9.7-4.6-9.7-10.2v-3.8c0-5.7,4.4-10.2,9.7-10.2l0,0c5.4,0,9.7,4.6,9.7,10.2
			v3.8C35.4-334.4,31.1-329.8,25.7-329.8z"/>
		<path class="st5" d="M25.2-365h-13c-15.2,0-27.5,12.3-27.5,27.5v13.2h68v-13.2C52.7-352.7,40.4-365,25.2-365z"/>
		<rect x="0.9" y="-324.3" class="st5" width="64.7" height="3.5"/>
		<path class="st5" d="M-32.1-312.4h24.8c5,0,9.1-4.3,9.1-9.5v-2.4h-22.6C-27.1-324.3-32.1-319-32.1-312.4L-32.1-312.4z"/>
		<path class="st3" d="M83.6-69.9h-28v-19.6c0-10.8,8.4-19.6,18.7-19.6h9.3c10.3,0,18.6,8.8,18.6,19.6l0,0
			C102.2-78.7,93.9-69.9,83.6-69.9z"/>
		<g>
			<g>
				<path class="st30" d="M-77.4-172.3c2.9,10.5,6.8,21.8,11.8,33.2c0.8,1.8,1.6,3.5,2.4,5.2c6.7,14.1,14.7,26.7,23.7,37.7
					c5,6,10.3,11.5,15.9,16.5c0.7,0.6,1.4,1.3,2.2,1.9C-9.9-68,2.8-60.3,16.5-54.9c2.7,1,5.4,2,8.1,2.9c4.3,1.4,8.8,2.6,13.4,3.6
					c2.7,0.6,5.5,1.1,8.3,1.6c5,0.8,10.2,1.3,15.4,1.6l3.3-64.3c-3.3-0.2-6.5-0.5-9.7-1c-2.8-0.4-5.6-1-8.3-1.7
					c-4.6-1.2-9-2.8-13.2-4.8c-2.7-1.3-5.4-2.7-7.9-4.3C11.3-130.5-0.4-145-9.5-164.9c-13.6-29.8-15.7-60.3-15.7-60.6l-30.5,2.1
					l-11.3,0.7c-6.3,11.2-9.9,24-10.1,37.5L-77.4-172.3z"/>
			</g>
		</g>
		<path class="st5" d="M24.7-51.9c-2.8-0.9-5.5-1.9-8.1-2.9l9.4-66.5c2.5,1.6,5.2,3,7.9,4.3L24.7-51.9z"/>
		<path class="st5" d="M46.4-46.7c-2.8-0.4-5.6-1-8.3-1.6l9.1-63.9c2.7,0.7,5.4,1.3,8.3,1.7L46.4-46.7z"/>
		<path class="st48" d="M-23.5-79.6c-5.6-5-10.9-10.5-15.9-16.5c-9-11-17-23.5-23.7-37.7c13.2-7.6,30.2-4.8,40.5,7.7
			C-11.4-112.5-12-92.4-23.5-79.6z"/>
		<polygon class="st3" points="73.6,-35.3 -79.8,-14.3 -75.8,-35.3 		"/>
		<rect x="-15.3" y="-329.8" class="st3" width="35.3" height="5.5"/>
		<path class="st3" d="M34.5-350.7L34.5-350.7c-11,0-19.9,8.9-19.9,19.9v6.5h39.7v-6.5C54.4-341.8,45.5-350.7,34.5-350.7z"/>
		<path class="st5" d="M144.4-245.7L95-232.2c0.1,2.4,0.3,5,0.4,7.8l49.9-13.6C145-240.9,144.7-243.4,144.4-245.7z"/>
		<path class="st5" d="M146.6-220.5c-0.2-2.7-0.3-5.3-0.5-7.8l-50.5,13.7c0,2.6,0.1,5.2,0,7.9L146.6-220.5z"/>
		<path class="st24" d="M113.9-173.9l2.5-2.7c-0.1,0.1-0.2,0.2-0.3,0.4c-0.1,0.1-0.2,0.1-0.3,0.2L113.9-173.9z"/>
		<g>
			<g>
				<path class="st14" d="M37.9-301.5c0,3.9,2.7,7.1,6,7.1c0.2,0,0.4,0,0.6-0.1c0.4-1.9,0.7-3.8,0.7-5.8v-8.2
					c-0.4-0.1-0.9-0.2-1.3-0.2C40.6-308.7,37.9-305.4,37.9-301.5z"/>
			</g>
			<g>
				<ellipse class="st14" cx="12.1" cy="-301.3" rx="7.2" ry="7.6"/>
			</g>
			<g>
				<g>
					<path class="st3" d="M19.3-307.9c0,1.3-1,2.4-2.3,2.4s-2.3-1.1-2.3-2.4s1-2.4,2.3-2.4S19.3-309.3,19.3-307.9z"/>
				</g>
				<g>
					<ellipse class="st3" cx="36.9" cy="-307.9" rx="2.3" ry="2.4"/>
				</g>
				<g>
					<g>
						<path class="st3" d="M29.7-299.3c0.4,0,1-0.2,1.3-0.6c0.5-0.5,0.7-1.1,0.6-1.8v-2.3h-1.8l-0.1,2.8h-0.1l-0.3,0.1H25v1.9h4.3
							C29.5-299.4,29.6-299.3,29.7-299.3z"/>
					</g>
				</g>
			</g>
			<path class="st26" d="M31.5-294.1H20.4c0,0-7,14,5.7,13L31.5-294.1z"/>
		</g>
	</g>
	<g class="st47">
		<g>
			<g>
				<g>
					<path class="st23" d="M-194.7-156.8c-8.8,20.9,30,36.4,60.2,45c0.6,0.2,1.2,0.3,1.8,0.5l0,0c17,4.8,30.9,7.3,30.9,7.3l4.4-18.9
						c0,0-5.3-5-13.4-11.7c-0.6-0.5-1.3-1.1-2-1.6C-136.9-155.6-182.1-186.7-194.7-156.8z"/>
				</g>
				<polygon class="st15" points="-171.4,-171.1 -166.2,-122.8 -161.2,-166.2 				"/>
				<rect x="-303.8" y="-45" class="st7" width="149.1" height="96.1"/>
				<path class="st15" d="M-226.3,4.4l22,22.1l-4.8,24.7h29.4c0,0,10.3-24.8,10.3-25.3c0-0.4-59.8-67.7-59.8-67.7L-226.3,4.4z"/>
				<g>
					<polygon class="st2" points="-164.5,51.2 -107.7,-1 -199.9,-118.7 -260.3,-71.6 					"/>
				</g>
				<g>
					<g>
						<path class="st3" d="M-216.2,161.4l69.2,18.9c0,0,0.8-2.2,1.4-5.7c0.1-0.6,0.1-1.2,0.2-1.8c0.5-4.8,0.1-11.2-3.4-17
							c-0.3-0.5-0.6-0.9-0.9-1.3l0,0c-0.2-0.3-0.5-0.6-0.7-1c-0.2-0.2-0.3-0.4-0.5-0.6c-6.7-7.8-10.4-11.8-8.5-21.2
							c0.1-0.8,0.3-1.6,0.6-2.5l7-25.8L-197,91.1L-216.2,161.4z"/>
					</g>
				</g>
				<path class="st1" d="M-159.8,133.4c0,0-20.1-9.3-30.4-1.9c-10.3,7.3-19.6,6.3-19.6,6.3l8.1-29.6l44.4,15.1L-159.8,133.4z"/>
				<g>
					<g>
						<path class="st2" d="M-128-14.7c0,0-42.9,4.7-49.2,27.6l-28.6,104.9l59,18l44.2-99C-96.3,13.9-105.1-8.4-128-14.7z"/>
					</g>
				</g>
				<g>
					<g>
						<path class="st2" d="M-145.4,172.8c-0.1,0.6-0.1,1.2-0.2,1.8l-69.1-18.8l0.5-1.7L-145.4,172.8z"/>
					</g>
				</g>
				<g>
					<g>
						<g>
							<path class="st2" d="M-204.5,157l1.3,1.2c0.1-0.1,12.6-13.7,23.7-10.7l30.7,8.4c-0.5-0.8-1-1.6-1.6-2.3l-28.6-7.8
								C-191.2,142.4-204,156.4-204.5,157z"/>
						</g>
					</g>
				</g>
				<g>
					<g>
						<g>
							<path class="st3" d="M-285.7,180.3h71.8c0,0,0.3-2.3,0-5.7c-0.1-0.5-0.1-1.1-0.2-1.8c-0.7-4.7-2.5-10.7-7.5-15.2
								c-0.8-0.7-1.7-1.4-2.6-2.1c-9-6.1-13.6-8.8-13.3-20.2l0.8-26.1h-46.8L-285.7,180.3z"/>
						</g>
					</g>
					<path class="st1" d="M-237.5,137.7c0,0-24.7-4.4-31.6,8.2c-4.7,8.6-15.8,10-15.8,10l0.8-33.5l47.2-2.5L-237.5,137.7z"/>
					<g>
						<g>
							<path class="st2" d="M-214.1,172.8c0.1,0.6,0.2,1.2,0.2,1.8h-71.6l0.1-1.8H-214.1z"/>
						</g>
					</g>
					<g>
						<g>
							<g>
								<path class="st2" d="M-276.5,173.4l1.5,0.8c-0.3,0.4,11.1-15.6,22.7-15.6h31.8c-0.6-0.6-1.2-1.2-1.9-1.8H-252
									C-264.8,156.9-276.5,173.3-276.5,173.4z"/>
							</g>
						</g>
					</g>
				</g>
				<g>
					<g>
						<path class="st2" d="M-277.6-15.3h9.1c23.9,0,42.1,19.3,42.7,43.2l-4.5,107.5l-61.1,0.6l-9.1-108.1
							C-301,4-301.4-15.3-277.6-15.3z"/>
					</g>
				</g>
				<g>
					<polygon class="st2" points="-225.8,26.8 -300.5,24.2 -302.3,-68.1 -225.8,-68.1 					"/>
				</g>
				<g>
					<g>
						<polygon class="st3" points="-226.3,-27 -224.4,-27 -224.4,-46.3 -207.8,-52.6 -207.8,-68.6 -209.7,-68.6 -209.7,-53.9 
							-226.3,-47.6 						"/>
					</g>
				</g>
				<g>
					<path class="st23" d="M-288.6-245.4c0,0-17.7,6.2-35.5,24.5c-22.3,23.1-31.1,41.9-31.1,41.9l40.4,20.7l23.5-26L-288.6-245.4z"
						/>
				</g>
				<g>
					<polygon class="st11" points="-302.3,-68.1 -160.3,-68.1 -178.6,-238.3 -219,-269.2 -245.7,-269.2 -288.6,-245.4 					"/>
				</g>
				<polygon class="st3" points="-227.2,-258.6 -199.6,-94.7 -217,-71.6 -233,-95.5 				"/>
				<polygon class="st3" points="-227.2,-260.4 -219.4,-249.6 -226,-240.1 -235.8,-251.4 				"/>
				<polygon class="st23" points="-210.5,-263.9 -206.1,-226.4 -205.8,-223.8 -200.9,-182.4 -200.4,-178.4 -187.4,-68.1 
					-139.3,-41.2 -160.3,-68.1 -163.5,-98.2 -163.8,-100.6 -178.6,-238.3 -201.2,-256.4 -207.1,-261.1 				"/>
				<g>
					<g>
						<polygon class="st7" points="-190.5,-235.6 -206.1,-226.4 -205.8,-223.8 -198.2,-228.3 -196.1,-229.5 -187.2,-234.8 
							-201.2,-256.4 -207.1,-261.1 						"/>
					</g>
					<g>
						<polygon class="st7" points="-200.9,-182.4 -200.4,-178.4 -183.1,-210.1 -196.1,-229.5 -197.2,-231.1 -199.2,-229.8 
							-198.2,-228.3 -185.8,-209.9 						"/>
					</g>
				</g>
				<g>
					
						<rect x="-252.6" y="-150.1" transform="matrix(0.4679 -0.8838 0.8838 0.4679 -17.2006 -292.6872)" class="st13" width="1.8" height="36.1"/>
				</g>
				<g>
					
						<rect x="-261.7" y="-144.1" transform="matrix(0.4679 -0.8838 0.8838 0.4679 -27.3388 -297.5836)" class="st13" width="1.8" height="36.1"/>
				</g>
				<polygon class="st23" points="-312.7,51.1 -256.5,51.1 -254.2,-163.8 -254.1,-168.6 -253.6,-223.8 -253.5,-226.5 -253.1,-265.1 
					-256.7,-263.1 -260.3,-261.1 -288.6,-245.4 -300.4,-100.6 -300.6,-98.2 				"/>
				<polygon class="st15" points="-293.8,-182.1 -280.9,-191.2 -297.2,-139.7 				"/>
				<g>
					<g>
						<polygon class="st7" points="-273.3,-235.4 -266.9,-231.6 -264.8,-230.4 -253.6,-223.8 -253.5,-226.5 -270.2,-236.3 
							-256.7,-263.1 -260.3,-261.1 						"/>
					</g>
					<g>
						<polygon class="st7" points="-280.3,-211.6 -254.2,-163.8 -254.1,-168.6 -277.5,-211.5 -264.8,-230.4 -264.2,-231.3 
							-266.2,-232.6 -266.9,-231.6 						"/>
					</g>
				</g>
				<g>
					<path class="st1" d="M-219-269.2h-26.7c0,0,8,10.6,15.6,10.6S-219-269.2-219-269.2z"/>
				</g>
				<g>
					<g>
						<circle class="st6" cx="-228.9" cy="-321.6" r="20.1"/>
					</g>
					<g>
						
							<ellipse transform="matrix(0.6566 -0.7542 0.7542 0.6566 178.5235 -288.074)" class="st6" cx="-227.1" cy="-340.1" rx="16.2" ry="7.1"/>
					</g>
					<g>
						<path class="st6" d="M-213.8-348c-7.9,4.2-12.8,10.4-10.9,13.9c1.9,3.5,9.7,2.9,17.6-1.3c7.9-4.2,12.8-10.4,10.9-13.9
							C-198-352.8-205.9-352.2-213.8-348z"/>
					</g>
					<g>
						
							<ellipse transform="matrix(0.997 -7.747352e-02 7.747352e-02 0.997 24.8484 -16.6993)" class="st6" cx="-202.8" cy="-328.6" rx="16.2" ry="7.1"/>
					</g>
					<g>
						<g>
							<rect x="-246.5" y="-300.2" class="st1" width="27.5" height="39.1"/>
						</g>
						<g>
							<polygon class="st3" points="-218.7,-276.2 -239.4,-278.8 -218.7,-266.2 							"/>
						</g>
						<g>
							<path class="st1" d="M-212.3-273.4l-33-5.7v-35.2c0-12.9,10.9-23.3,24.4-23.3l0,0c13.5,0,24.4,10.4,24.4,23.3v27.7
								C-196.5-276.9-203.3-271.6-212.3-273.4z"/>
						</g>
						<g>
							<path class="st6" d="M-233.8-307h-13.7v-18.9c0-3.4,2.8-6.2,6.2-6.2h7.5V-307z"/>
						</g>
						<g>
							<path class="st14" d="M-196.5-308v12.7c-0.5,0.1-1,0.2-1.4,0.2c-3.2,0-5.8-2.9-5.8-6.6c0-3.6,2.6-6.6,5.8-6.6
								C-197.4-308.2-196.9-308.1-196.5-308z"/>
						</g>
						<g>
							<ellipse class="st1" cx="-247.6" cy="-302.5" rx="11.1" ry="11.1"/>
						</g>
						<path class="st15" d="M-251.5-308.7l9.1,12C-242.4-296.7-258.4-292.5-251.5-308.7z"/>
						<g>
							<path class="st14" d="M-219.9-301.4c0,3.8-3.1,7-7,7c-3.8,0-7-3.1-7-7c0-3.8,3.1-7,7-7S-219.9-305.3-219.9-301.4z"/>
						</g>
						<g>
							<g>
								<circle class="st3" cx="-222.1" cy="-307.6" r="2.2"/>
							</g>
							<g>
								<circle class="st3" cx="-202.8" cy="-307.6" r="2.2"/>
							</g>
							<g>
								<g>
									<path class="st3" d="M-209.8-297.3c0.4,0,0.9-0.2,1.3-0.6c0.5-0.4,0.7-1,0.6-1.7v-2.2h-1.8l-0.1,2.6h-0.1l-0.1,0.2h-4.1
										v1.8h4.1C-210-297.3-209.9-297.3-209.8-297.3z"/>
								</g>
							</g>
						</g>
						<g>
							<path class="st3" d="M-213.2-286.8c-3.9,0-8.5-1-12.8-4.7l1.2-1.4c8.5,7.3,19.1,2.8,19.2,2.8l0.8,1.7
								C-205.1-288.3-208.6-286.8-213.2-286.8z"/>
						</g>
					</g>
					<g>
						<path class="st6" d="M-238.6-319.7h6.7c2.7,0,4.8-2.2,4.8-4.8v-13h-11.5V-319.7z"/>
					</g>
				</g>
				<g>
					<polygon class="st3" points="-204.3,-44.5 -233.4,-44.9 -226.1,-23.6 					"/>
				</g>
				<g>
					<g>
						<path class="st1" d="M-84.6-120.8c0,0,29.4,19.4,25.7,22.1c-3.7,2.7-30-14.6-30-14.6L-84.6-120.8z"/>
					</g>
					<g>
						<path class="st1" d="M-99.1-105.7c0,0,31.8,14.9,28.5,18.1c-3.3,3.1-31.7-10-31.7-10L-99.1-105.7z"/>
					</g>
					<g>
						<path class="st1" d="M-101.3-97.4c-8.3-2.4-12.1-11.1-10-19.2c2.1-8.1,10.5-12.8,18.7-10.4c8.3,2.4,13.3,10.9,11.2,19.1
							C-83.5-99.8-93.1-95-101.3-97.4z"/>
					</g>
					<g>
						<path class="st1" d="M-88.1-113c0,0,30.1,19.8,26.5,23.1s-30.5-14.2-30.5-14.2L-88.1-113z"/>
					</g>
					<g>
						<path class="st1" d="M-98.4-127.4c0,0,5-0.2,13.2,1.8c8.1,2,18.6,7.6,18.7,10s-28-1.6-28-1.6L-98.4-127.4z"/>
					</g>
					<g>
						<g>
							<path class="st3" d="M-98.5-109c0.4,0.2,3.3,2,7.8,1.6c4.2-0.3,6.8-5.8,7.6-7.7l8.1,0.6l0.1-1.6l-9.3-0.6l-0.2,0.6
								c0,0.1-2.5,6.9-6.4,7.2c-4.2,0.3-6.8-1.4-6.9-1.4L-98.5-109L-98.5-109z"/>
						</g>
					</g>
					<g>
						<g>
							<path class="st3" d="M-87.5-99.6c0.1-0.1,2.1-1.9,4.3-4.5c1.2-1.5,3.1-5.2,3.2-5.4l-1.5-0.7c0,0-1.9,3.7-3,5.1
								c-2.1,2.5-4.1,4.3-4.1,4.4L-87.5-99.6z"/>
						</g>
					</g>
				</g>
				<g>
					
						<rect x="-344.3" y="-82.6" transform="matrix(0.2217 -0.9751 0.9751 0.2217 -207.322 -329.881)" class="st3" width="67.9" height="95.1"/>
				</g>
				<g>
					<g>
						<path class="st1" d="M-305.3-76.5c0,0-8.7,25.1-13.1,21.4c-4.4-3.7,2.6-24.3,2.6-24.3L-305.3-76.5z"/>
					</g>
					<g>
						<path class="st1" d="M-326.7-87.5c0,0,1,22.9-3.8,19.8c-4.9-3-7-21.2-7-21.2L-326.7-87.5z"/>
					</g>
					<g>
						<path class="st23" d="M-341.4-108.3c0.3,0.7,0.6,1.3,0.8,2c4.5,10.7,8.3,18,8.3,18l27.2-7c0,0,0.2-5.8,0-14.5
							c0-0.8,0-1.6-0.1-2.4c-1-29.9-6.9-87.8-39-77.7C-368.4-182.5-352.9-135.7-341.4-108.3z"/>
					</g>
					<g>
						<path class="st1" d="M-339.2-89.8c0.4-10.9,9.9-18.3,20.5-18.2c10.6,0,18.9,8.9,18.5,19.7c-0.4,10.9-9.3,19.6-19.9,19.6
							C-330.7-68.7-339.6-78.9-339.2-89.8z"/>
					</g>
					<g>
						<path class="st1" d="M-316.1-76.9c0,0-2.8,20.2-7.9,16.8c-5.2-3.4-4.2-19-4.2-19L-316.1-76.9z"/>
					</g>
					<g>
						<path class="st1" d="M-301.5-95.5c0,0,1.8,6.1,1.9,16.7s-3.2,21-6.1,21.9c-2.9,0.9-7-30.7-7-30.7L-301.5-95.5z"/>
					</g>
				</g>
				<g>
					<polygon class="st11" points="-245.7,-274.2 -228,-258.9 -235.6,-247.5 -253.4,-265.2 					"/>
				</g>
				<g>
					<polygon class="st11" points="-218.9,-272.4 -226.6,-259.4 -218.6,-248.3 -210.5,-263.9 					"/>
				</g>
				<g>
					<polygon class="st13" points="-218,-246.5 -209.7,-263.2 -210.9,-264.3 -218.3,-250 -225.9,-260.6 -227.1,-259.2 					"/>
				</g>
				<g>
					<polygon class="st13" points="-235.4,-246.1 -227.7,-259 -229.2,-259.9 -235.7,-249 -253.1,-265.6 -254.2,-264.5 					"/>
				</g>
				<g>
					
						<rect x="-316.4" y="-187.7" transform="matrix(0.8629 -0.5054 0.5054 0.8629 47.2377 -183.996)" class="st7" width="1.8" height="17.3"/>
				</g>
				<g>
					
						<rect x="-320.9" y="-180.2" transform="matrix(0.6071 -0.7946 0.7946 0.6071 10.9112 -321.8055)" class="st7" width="1.8" height="16.6"/>
				</g>
				<g>
					<path class="st3" d="M-153.9,133.7l39.8-108.1c2-5.4,1-11.6-2.6-16.1l-46.2-57.9l-1.4,1.1l46.2,57.9c3.2,4,4.1,9.6,2.3,14.4
						l-39.8,108.1L-153.9,133.7z"/>
				</g>
				<g>
					<rect x="-244.6" y="-41.2" class="st3" width="1.8" height="176.8"/>
				</g>
			</g>
			<g>
				<g>
					<path class="st2" d="M-190.4-183.4v-29c0-4.3-3.5-7.8-7.8-7.8c-4.3,0-7.8,3.5-7.8,7.8v29c0,4.3,3.5,7.8,7.8,7.8
						S-190.4-179.1-190.4-183.4z M-193.2-212.3v29c0,2.7-2.2,4.9-4.9,4.9c-2.7,0-4.9-2.2-4.9-4.9v-29c0-2.7,2.2-4.9,4.9-4.9
						C-195.4-217.3-193.2-215.1-193.2-212.3z"/>
				</g>
				<circle class="st3" cx="-196" cy="-177" r="2.6"/>
				<circle class="st3" cx="-200.3" cy="-177" r="2.6"/>
			</g>
			<g>
				<rect x="-264.5" y="-210.5" class="st26" width="18.7" height="15.3"/>
				<rect x="-256" y="-214.2" class="st3" width="1.8" height="3.7"/>
			</g>
			<g>
				<polygon class="st7" points="-300.6,-98.2 -276.8,-98.2 -276.8,-100.6 -300.4,-100.6 				"/>
			</g>
			<g>
				<polygon class="st7" points="-170.8,-100.6 -170.8,-98.2 -163.5,-98.2 -163.8,-100.6 				"/>
			</g>
			<g>
				<path class="st2" d="M-218.9-276.2v3.2c3.6,2,10.9,6.7,14.8,13.9c5.5,9.8,4.6,39.4,4.6,39.7l2.8,0.1c0-1.2,0.8-30.7-5-41.2
					C-206.5-269.4-215.8-274.6-218.9-276.2z"/>
			</g>
			<g>
				<path class="st2" d="M-268.7-181.2l2.8-0.1c0-0.5-1.5-55.1,3.7-72c3.1-10.3,11-17.5,16.6-21.5v-3.5
					c-5.9,3.9-15.6,11.9-19.3,24.1C-270.3-236.8-268.8-183.5-268.7-181.2z"/>
			</g>
			<path class="st3" d="M-273-181.3c0,2.8,2.2,5,5,5s5-2.2,5-5s-2.2-5-5-5S-273-184-273-181.3z"/>
		</g>
		<polygon class="st15" points="-254,-179 -248.5,58.3 -296.4,74.8 -298.4,51.1 -256.5,51.1 		"/>
	</g>
</g>
<g id="圖層_2_1_" class="st46">
	<g class="st47">
		<g>
			<g>
				<g>
					<path class="st6" d="M-100.7-626.6c0,0,3.7,32.5-0.4,31.5s-7.6-30-7.6-30L-100.7-626.6z"/>
				</g>
				<g>
					<path class="st6" d="M-120.1-628c0,0,8.4,31.5,4.2,31.1c-4.2-0.5-11.8-28.5-11.8-28.5L-120.1-628z"/>
				</g>
				<g>
					<path class="st6" d="M-127.4-624.5c-3.2-7.3,0.7-15.2,7.7-18.6c7-3.4,15.3-0.2,18.6,7.1c3.2,7.3,0.2,16-6.9,19.4
						C-115-613.3-124.1-617.2-127.4-624.5z"/>
				</g>
				<g>
					<path class="st6" d="M-108.4-624.5c0,0,3.9,33.2-0.6,32.6c-4.5-0.6-8.2-30.2-8.2-30.2L-108.4-624.5z"/>
				</g>
				<g>
					<path class="st6" d="M-104.3-640.4c0,0,3.1,3.5,6.6,10.4s5.7,17.7,4.1,19.3s-15.6-20.8-15.6-20.8L-104.3-640.4z"/>
				</g>
				<g>
					<g>
						<path class="st3" d="M-117.4-629.5c0.1,0.4,0.6,3.5,3.5,6.5c2.8,2.8,8.2,1.4,10,0.8l4.4,6.1l1.2-0.9l-5.1-7l-0.5,0.2
							c-0.1,0-6.3,2.4-8.9-0.3c-2.7-2.8-3.1-5.7-3.1-5.7L-117.4-629.5L-117.4-629.5z"/>
					</g>
				</g>
				<g>
					<g>
						<path class="st3" d="M-117.5-616c0.1,0,2.6,0.4,5.8,0.3c1.8,0,5.6-0.9,5.8-1l-0.3-1.5c0,0-3.8,0.9-5.4,0.9
							c-3,0-5.5-0.3-5.6-0.3L-117.5-616z"/>
					</g>
				</g>
			</g>
			<path class="st6" d="M-137.1-783.5c0,0,20.4,15,21.8,43.7l10.2,98.1l-25.4,3.7L-137.1-783.5z"/>
		</g>
		<g>
			<path class="st6" d="M-316.6-725.1c0.8-2.1,39.1-91.9,69.3-71.9c27.9,18.4-37,97.1-37,97.1L-316.6-725.1z"/>
		</g>
		<g>
			<path class="st6" d="M-275-634.1l5.4-78.6c-0.1-17.3-6.9-31.6-25-28.7l0,0c-17,2.8-27.8,17.7-26.2,33.8l24.7,77.9L-275-634.1z"/>
		</g>
		<g>
			<polygon class="st3" points="-308.9,-762.5 -267.1,-802.2 -254.4,-747.8 -271.2,-722.8 			"/>
		</g>
		<g>
			<path class="st4" d="M-262.1-410.3h62.8v-69.8h-41v25.6c0,11.2-4.1,13.9-12.2,19.9c-0.2,0.2-0.4,0.3-0.6,0.4
				c-0.7,0.5-1.3,1.1-1.9,1.7c-4.3,4.4-6.1,10.2-6.8,14.8c-0.1,0.6-0.2,1.2-0.2,1.7C-262.3-412.6-262.1-410.3-262.1-410.3z"/>
		</g>
		<g>
			<g>
				<g>
					<path class="st5" d="M-243.6-597.7h4.9c21.7,0,39.4,17.6,39.4,39.4v85.9H-283v-86C-283-580.1-265.3-597.7-243.6-597.7z"/>
				</g>
			</g>
		</g>
		<g>
			<rect x="-240.3" y="-472.4" class="st6" width="41" height="18"/>
		</g>
		<g>
			<path class="st7" d="M-262-415.9h62.6v-1.7h-62.4C-261.9-417-261.9-416.4-262-415.9z"/>
		</g>
		<g>
			<g>
				<rect x="-283" y="-488.6" class="st8" width="83.6" height="1.9"/>
			</g>
		</g>
		<g>
			<g>
				<g>
					<path class="st5" d="M-199.3-559.8l-83.7-0.1c0,0,4.1-101.8,16.6-149h67L-199.3-559.8L-199.3-559.8L-199.3-559.8z"/>
				</g>
			</g>
		</g>
		<g>
			<g>
				<polygon class="st8" points="-202.5,-487.8 -204,-487.8 -203.1,-627.2 -201.5,-627.2 				"/>
			</g>
		</g>
		<g>
			<path class="st4" d="M-142-480l8.6,62.4l0.2,1.7l0.8,5.6h62.8c0,0-0.1-2.3-0.9-5.6c-0.1-0.5-0.3-1.1-0.5-1.7
				c-1.6-5.3-4.8-12.4-11.6-17c-8.9-5.9-13.4-8.7-14.9-19.9l-3.5-25.6h-41V-480z"/>
		</g>
		<g>
			<g>
				<g>
					<path class="st5" d="M-147.8-597.7h-8c-20.9,0-35.3,18.5-32.1,41.3l11.5,83.8h83.6l-11.5-83.8
						C-107.4-579.2-126.9-597.7-147.8-597.7z"/>
				</g>
			</g>
		</g>
		<g>
			<polygon class="st6" points="-97.5,-454.4 -138.5,-454.4 -141.1,-472.6 -100,-472.6 			"/>
		</g>
		<g>
			<polygon class="st3" points="-100,-472.6 -141.1,-472.6 -139.9,-464.4 			"/>
		</g>
		<g>
			<path class="st7" d="M-133.5-417.6l0.2,1.7h62.7c-0.1-0.5-0.3-1.1-0.5-1.7H-133.5z"/>
		</g>
		<g>
			<g>
				<rect x="-178.5" y="-488.7" class="st8" width="83.6" height="1.9"/>
			</g>
		</g>
		<g>
			<g>
				<g>
					<path class="st5" d="M-188.4-559.8l83.6-0.1c0,0-9.4-101.8-37-148.8h-67L-188.4-559.8z"/>
				</g>
			</g>
		</g>
		<g>
			<g>
				<polygon class="st8" points="-174.1,-487.7 -196.4,-627 -194.8,-627.3 -172.6,-488 				"/>
			</g>
		</g>
		<g>
			<polygon class="st3" points="-278.7,-624.3 -114.4,-624.3 -133.2,-789.7 -146.3,-802.1 -157.2,-812.4 -187.2,-840.9 
				-212.7,-840.9 -240.5,-821.1 -251.3,-813.4 -267.1,-802.2 			"/>
		</g>
		<g>
			<polygon class="st3" points="-272.2,-723.9 -260.4,-739.6 -274.1,-694.5 			"/>
		</g>
		<g>
			<g>
				<g>
					<rect x="-244.4" y="-439.9" class="st7" width="17.2" height="1.7"/>
				</g>
			</g>
			<g>
				<g>
					<rect x="-241.2" y="-443.9" class="st7" width="17.2" height="1.7"/>
				</g>
			</g>
			<g>
				<g>
					<rect x="-237.9" y="-448" class="st7" width="17.2" height="1.7"/>
				</g>
			</g>
		</g>
		<g>
			<g>
				<g>
					<rect x="-109.6" y="-440.2" class="st7" width="17.2" height="1.7"/>
				</g>
			</g>
			<g>
				<g>
					<rect x="-112.8" y="-444.3" class="st7" width="17.2" height="1.7"/>
				</g>
			</g>
			<g>
				<g>
					<rect x="-116" y="-448.4" class="st7" width="17.2" height="1.7"/>
				</g>
			</g>
		</g>
		<g>
			<g>
				<path class="st7" d="M-208.2-417.3l-1.4,0.8c-0.1-0.2-7.4-15.9-17.6-15.9H-255c0.6-0.6,1.2-1.2,1.9-1.7h25.9
					C-216-434.1-208.5-418-208.2-417.3z"/>
			</g>
		</g>
		<g>
			<g>
				<path class="st7" d="M-125.6-417l1.4,0.8c-0.2,0.4,7.2-15.3,17.3-15.3H-79c-0.6-0.6-1.2-1.2-1.9-1.7h-25.9
					C-117.9-433.3-125.5-417.1-125.6-417z"/>
			</g>
		</g>
		<g>
			<g>
				<path class="st8" d="M-130.1-534.4c-11.8,0-22.2-12-24.2-27.9c-2.1-17.2,6.4-32.7,19-34.5c0.8-0.1,1.7-0.2,2.5-0.2
					c11.8,0,22.2,12,24.2,27.9c1,8.3-0.4,16.4-3.9,22.9c-3.6,6.6-9,10.7-15.1,11.6C-128.4-534.4-129.3-534.4-130.1-534.4z
					 M-132.8-595.4c-0.8,0-1.6,0.1-2.3,0.2c-11.8,1.7-19.7,16.4-17.7,32.7c1.8,15.1,11.6,26.5,22.7,26.5c0.8,0,1.6-0.1,2.3-0.2
					c5.7-0.8,10.7-4.7,14-10.8c3.4-6.2,4.7-14,3.7-21.9C-111.9-584-121.7-595.4-132.8-595.4z"/>
			</g>
		</g>
		<g>
			<g>
				<path class="st8" d="M-255.8-534.4L-255.8-534.4c-0.8,0-1.7-0.1-2.5-0.2c-6.1-0.9-11.5-5-15.1-11.6c-3.6-6.5-5-14.6-3.9-22.9
					c2-15.9,12.4-27.9,24.2-27.9c0.8,0,1.7,0.1,2.5,0.2c12.6,1.9,21.1,17.4,19,34.5C-233.5-546.4-243.9-534.4-255.8-534.4z
					 M-253.1-595.4c-11.1,0-20.8,11.4-22.7,26.5c-1,7.9,0.3,15.7,3.7,21.9c3.4,6.1,8.3,10,14,10.8c0.8,0.1,1.5,0.2,2.3,0.2
					c11.1,0,20.8-11.4,22.7-26.5c2-16.3-5.9-30.9-17.7-32.7C-251.6-595.3-252.3-595.4-253.1-595.4z"/>
			</g>
		</g>
		<g>
			<polygon class="st3" points="-240.3,-472.5 -199.3,-466.4 -199.3,-472.5 			"/>
		</g>
		<g>
			<path class="st6" d="M-212.8-840.9h25.6c0,0-2.7,8.9-9.4,8.9C-203.2-831.9-212.8-840.9-212.8-840.9z"/>
		</g>
		<g>
			<g>
				<g>
					<g>
						<polygon class="st5" points="-167.9,-771.2 -154.7,-771.5 -146.3,-802.1 -157.2,-812.4 						"/>
					</g>
				</g>
			</g>
		</g>
		<g>
			<g>
				<g>
					<g>
						<polygon class="st5" points="-251.3,-813.4 -220.7,-772.4 -208.9,-778.2 -240.5,-821.1 						"/>
					</g>
				</g>
			</g>
		</g>
		<g>
			<g>
				<g>
					<path class="st5" d="M-278.7-624.3h164.3l-5.8-51.1l-0.2-1.8l-2.1-18.6l-11.7-6.6l-13.8-63.1l-0.4-1.8l-2-9.1
						c-0.6-2.9-3.2-5-6.2-5h-65.3c-3.9,0-7.3,2.7-8.1,6.5l-1.6,7.5l-0.4,1.8l-13.3,61.3l-29.1,13.6l-0.9,13.4l-0.1,1.8L-278.7-624.3
						z"/>
				</g>
			</g>
		</g>
		<g>
			<g>
				<path class="st8" d="M-161.4-773.1c0,1,0.8,1.8,1.8,1.8s1.8-0.8,1.8-1.8s-0.8-1.8-1.8-1.8S-161.4-774.1-161.4-773.1z"/>
			</g>
		</g>
		<g>
			<g>
				<path class="st8" d="M-218.4-773.1c0,1,0.8,1.8,1.8,1.8s1.8-0.8,1.8-1.8s-0.8-1.8-1.8-1.8C-217.6-774.9-218.4-774.1-218.4-773.1
					z"/>
			</g>
		</g>
		<g>
			<polygon class="st8" points="-275.3,-675.4 -120.2,-675.4 -120.4,-677.2 -275.2,-677.2 			"/>
		</g>
		<g>
			<polygon class="st3" points="-194.3,-624.3 -203.1,-624.3 -220.5,-633.2 -175.3,-633.2 			"/>
		</g>
		<g>
			<polygon class="st8" points="-232,-765.5 -148,-765.5 -148.3,-767.3 -231.6,-767.3 			"/>
		</g>
		<g>
			<path class="st8" d="M-194.2-689.3h13.9c16,0,29.1-13.1,29.1-29.1V-755h-72.1v36.6C-223.3-702.4-210.2-689.3-194.2-689.3z
				 M-153-753.3v34.8c0,15.1-12.3,27.3-27.3,27.3h-13.9c-15.1,0-27.3-12.3-27.3-27.3v-34.8H-153z"/>
		</g>
		<g>
			<rect x="-195.2" y="-676.3" class="st8" width="1.8" height="43.1"/>
		</g>
		<g>
			<path class="st8" d="M-193.9-640.1h-0.5v-1.8h0.5c6.4,0,11.7-5.2,11.7-11.7v-22.7h1.8v22.7C-180.5-646.2-186.5-640.1-193.9-640.1
				z"/>
		</g>
		<g>
			<g>
				<ellipse class="st3" cx="-200" cy="-907.2" rx="55.8" ry="53.2"/>
			</g>
			<g>
				<rect x="-212.4" y="-877.8" class="st6" width="25.1" height="37.4"/>
			</g>
			<g>
				<polygon class="st3" points="-187.3,-854.6 -198.3,-856 -187.3,-844.9 				"/>
			</g>
			<g>
				<path class="st6" d="M-179.7-852.2l-31.5-5.5v-33.6c0-12.3,10.4-22.2,23.3-22.2l0,0c12.9,0,23.3,10,23.3,22.2v26.5
					C-164.6-855.6-171.1-850.5-179.7-852.2z"/>
			</g>
			<g>
				<g>
					<path class="st3" d="M-176.3-876.4c-0.1,0-0.2,0-0.3,0h-3.8v-1.7l4.3-0.1v-0.1l0.1-0.2v-4.4h1.7v4.4c0.1,0.5-0.1,1.1-0.6,1.5
						C-175.4-876.6-175.8-876.4-176.3-876.4z"/>
				</g>
			</g>
			<g>
				<circle class="st9" cx="-193.6" cy="-879" r="6.7"/>
			</g>
			<g>
				<rect x="-213.4" y="-921.8" class="st3" width="13.1" height="37.5"/>
			</g>
			<g>
				<path class="st9" d="M-164.6-885.3v12.2c-0.4,0.1-0.9,0.2-1.4,0.2c-3.1,0-5.6-2.8-5.6-6.3s2.5-6.3,5.6-6.3
					C-165.5-885.5-165-885.4-164.6-885.3z"/>
			</g>
			<g>
				
					<ellipse transform="matrix(0.7071 -0.7071 0.7071 0.7071 560.6632 -410.6799)" class="st6" cx="-215.4" cy="-882.1" rx="10.6" ry="10.6"/>
			</g>
			<g>
				<g>
					<circle class="st3" cx="-189" cy="-884.9" r="2.1"/>
				</g>
				<g>
					<circle class="st3" cx="-170.6" cy="-884.9" r="2.1"/>
				</g>
			</g>
			<g>
				<path class="st3" d="M-181.5-862.7c-3.9,0-8.5-1-12.8-4.7l1.2-1.4c8.5,7.3,19.1,2.8,19.2,2.8l0.8,1.7
					C-173.4-864.1-176.9-862.7-181.5-862.7z"/>
			</g>
		</g>
		<g>
			<g>
				<path class="st6" d="M-274.3-607.8c0,0-10.2,22.5-14,18.7c-3.8-3.8,4.4-22.3,4.4-22.3L-274.3-607.8z"/>
			</g>
			<g>
				<path class="st6" d="M-293.2-619.8c0,0-1,21.2-5.2,18s-4.7-20.3-4.7-20.3L-293.2-619.8z"/>
			</g>
			<g>
				<path class="st6" d="M-304.6-622.9c1.3-10,10.7-16.1,20.5-15.1c9.8,0.9,16.7,9.8,15.5,19.8c-1.3,10-10.3,17.4-20.1,16.5
					C-298.5-602.7-305.9-612.9-304.6-622.9z"/>
			</g>
			<g>
				<path class="st6" d="M-284.3-609c0,0-4.3,18.5-8.7,14.9c-4.5-3.6-2.3-18-2.3-18L-284.3-609z"/>
			</g>
			<g>
				<path class="st6" d="M-269.2-625c0,0,1.1,5.8,0.3,15.6s-4.8,19.2-7.5,19.8s-3.9-29-3.9-29L-269.2-625z"/>
			</g>
		</g>
		<polygon class="st6" points="-274.2,-699.6 -273.9,-632.2 -287.2,-634.1 		"/>
		<polygon class="st3" points="-136.8,-792.9 -117.7,-776.8 -102.6,-732 -129.8,-713.9 		"/>
	</g>
</g>
</svg>
