<?xml version="1.0" encoding="utf-8"?>
<!-- Generator: Adobe Illustrator 25.4.1, SVG Export Plug-In . SVG Version: 6.00 Build 0)  -->
<svg version="1.1" id="圖層_1" xmlns="http://www.w3.org/2000/svg" xmlns:xlink="http://www.w3.org/1999/xlink" x="0px" y="0px"
	 viewBox="0 0 72 72" style="enable-background:new 0 0 72 72;" xml:space="preserve">
<g>
	<path d="M39.3,29.6c3.3,3.3,5.6,7.4,6.7,11.9c0.1,0.5,0.6,0.9,1.1,0.9c0.1,0,0.2,0,0.3,0c0.6-0.1,1-0.8,0.8-1.4
		c-1.2-4.9-3.7-9.4-7.3-13c-3.2-3.2-7.2-5.6-11.6-6.9c-0.6-0.2-1.2,0.2-1.4,0.8c-0.2,0.6,0.2,1.2,0.8,1.4
		C32.7,24.5,36.3,26.7,39.3,29.6z"/>
	<path d="M26,27.5c-0.2,0.6,0.2,1.2,0.8,1.4c3.1,0.9,6.1,2.6,8.4,4.9c2.6,2.6,4.4,6,5.2,9.6c0.1,0.5,0.6,0.9,1.1,0.9
		c0.1,0,0.2,0,0.2,0c0.6-0.1,1-0.7,0.9-1.3c-0.9-4.1-2.9-7.8-5.8-10.7c-2.6-2.6-5.8-4.5-9.4-5.5C26.8,26.5,26.1,26.9,26,27.5z"/>
	<path d="M26.6,35c1.6,0.5,3.1,1.4,4.3,2.6c1.3,1.3,2.3,3,2.7,4.8c0.1,0.5,0.6,0.9,1.1,0.9c0.1,0,0.2,0,0.3,0c0.6-0.1,1-0.8,0.8-1.4
		c-0.5-2.2-1.7-4.3-3.3-5.9c-1.5-1.5-3.3-2.5-5.3-3.1c-0.6-0.2-1.2,0.2-1.4,0.8C25.6,34.1,26,34.8,26.6,35z"/>
	<path d="M70,15.9c0-6.3-5.1-11.4-11.4-11.4c-3,0-5.6,1.2-7.7,3C47.2,5.6,43,4.6,38.8,4.6C30.6,4.5,23,8.3,18,14.7v-2.5
		c0-0.6-0.5-1.1-1.1-1.1s-1.1,0.5-1.1,1.1V18c0,0.4,0.2,0.7,0.5,0.9c0.2,0.1,0.4,0.2,0.7,0.2c0.1,0,0.2,0,0.4-0.1l5.8-1.9
		c0.6-0.2,0.9-0.8,0.7-1.4c-0.2-0.6-0.8-0.9-1.4-0.7L20,15.8c4.6-5.6,11.4-8.9,18.8-8.9c3.6,0,7.2,0.9,10.5,2.4
		c-1.3,1.9-2.2,4.2-2.2,6.6c0,6.3,5.1,11.4,11.4,11.4c1.4,0,2.8-0.3,4.1-0.8c0.3,1.5,0.5,3,0.5,4.6c0,10.8-7.2,20.4-17.6,23.3
		c-1.2-0.8-2.5-1.7-3.7-2.4l-1-0.6c-2.8-1.8-3.4-1.3-5.9,1.4L34.7,53c-1.4,1.6-2.7,1.8-4.5,1c-2-0.9-3.8-1.8-5.3-2.9
		c-3.7-2.8-6.6-6.7-8.6-11.6c-1-2.5-1-2.5,1.1-4.4l0.4-0.4c0.3-0.3,0.7-0.6,1-0.8c1.5-1,1.7-2.5,0.8-4l-6.5-10.4
		c-0.2-0.3-0.6-0.5-1-0.5h-0.4c-0.3,0-0.6,0.1-0.9,0.4l-2,2.3c-0.4,0.4-0.7,0.8-1.1,1.2c0,0,0,0.1-0.1,0.1c-1.7,1.9-3.3,3.8-4.9,5.7
		c-0.7,0.9-1,2.4-0.7,3.4c0.3,0.8,0.6,1.7,0.8,2.5c1,2.9,1.9,5.8,3.5,8.4c5.2,8.9,12.3,16.1,21.3,21.4c0.5,0.3,1,0.5,1.5,0.8
		l0.5,0.3c2.8,1.4,5.3,2.1,7.6,2.1c3.1,0,5.8-1.3,8.3-3.8c0.9-1,2-1.8,3.1-2.7c0.5-0.4,1-0.8,1.5-1.2c0.2-0.2,0.4-0.5,0.4-0.9v-0.4
		c0-0.4-0.2-0.7-0.5-0.9c-0.8-0.5-1.6-1.1-2.3-1.6c10.4-3.8,17.5-13.7,17.5-25c0-1.9-0.2-3.8-0.6-5.6C67.9,23.4,70,19.9,70,15.9z
		 M11.8,21.6l5.9,9.4c0.3,0.5,0.3,0.6-0.2,1c-0.4,0.3-0.8,0.6-1.1,0.9l-6.2-9.3c0.1-0.2,0.3-0.4,0.5-0.5L11.8,21.6z M30.8,63.4
		l-0.6-0.3c-0.4-0.2-0.9-0.4-1.3-0.7c-8.7-5.1-15.6-12-20.5-20.6c-1.4-2.4-2.4-5.3-3.3-8c-0.3-0.8-0.6-1.7-0.9-2.5
		c-0.1-0.2,0-1,0.3-1.2c1.3-1.6,2.7-3.1,4-4.7l6.1,9.1c-1.9,1.8-1.8,2.7-0.5,5.8c2.2,5.3,5.3,9.5,9.4,12.6c1.7,1.3,3.6,2.2,5.7,3.2
		c2.2,1,4.2,0.8,6-0.6l9.6,6c-0.2,0.2-0.5,0.4-0.7,0.7C40.5,65.8,36.4,66.2,30.8,63.4z M47.4,59.3c-0.3,0.2-0.5,0.4-0.8,0.6L37,53.8
		c0.6-0.7,1.1-1.2,1.3-1.3c0.2,0,0.8,0.4,1.3,0.7l1.1,0.7c2,1.2,3.9,2.5,5.8,3.8c0.5,0.4,1,0.7,1.6,1.1C47.8,59,47.6,59.1,47.4,59.3
		z M58.6,25c-5,0-9.1-4.1-9.1-9.1s4.1-9.1,9.1-9.1s9.1,4.1,9.1,9.1S63.6,25,58.6,25z"/>
	<path d="M62.8,15.5h-3.7V9.8c0-0.6-0.5-1.1-1.1-1.1s-1.1,0.5-1.1,1.1v6.8c0,0.6,0.5,1.1,1.1,1.1h4.9c0.6,0,1.1-0.5,1.1-1.1
		S63.5,15.5,62.8,15.5z"/>
</g>
</svg>
