<?xml version="1.0" encoding="utf-8"?>
<!-- Generator: Adobe Illustrator 25.3.1, SVG Export Plug-In . SVG Version: 6.00 Build 0)  -->
<svg version="1.1" id="圖層_1" xmlns="http://www.w3.org/2000/svg" xmlns:xlink="http://www.w3.org/1999/xlink" x="0px" y="0px"
	 viewBox="0 0 72 72" style="enable-background:new 0 0 72 72;" xml:space="preserve">
<style type="text/css">
	.st0{fill:#5C5C5C;}
</style>
<g>
	<rect x="15.6" y="63.2" class="st0" width="18.1" height="2.3"/>
	<rect x="45.1" y="63.2" class="st0" width="9.1" height="2.3"/>
	<rect x="20.1" y="54.1" class="st0" width="2.3" height="2.3"/>
	<path class="st0" d="M67.5,35.3c-0.2-0.3-0.6-0.5-0.9-0.5h-1.4l-5-14.9c4.3-0.8,6.9-4.6,7-4.8c0.3-0.5,0.2-1.2-0.3-1.6L65,12.4
		l-1.9-1.3c-0.5-0.3-1.2-0.2-1.6,0.3c-0.4,0.5-1.6,1.9-2.8,1.9c-0.5,0-2.7-1.1-3.8-1.6c-3.6-1.7-8.9-4.3-15.4-5l0-1.4
		C39.4,3.5,37.8,2,35.9,2c-1.8,0.1-3.3,1.5-3.4,3.4l0,1.4c-6.5,0.7-11.8,3.3-15.4,5c-1.1,0.6-3.3,1.6-3.8,1.6
		c-1.2,0-2.5-1.4-2.8-1.9c-0.4-0.5-1-0.6-1.6-0.3l-3.8,2.5c-0.5,0.3-0.7,1-0.3,1.6c0.1,0.2,2.7,4,7,4.8l-5,14.9H5.4
		c-0.6,0-1.1,0.5-1.1,1.1c0,0.1,0,0.2,0.1,0.4l2.3,6.8c0.2,0.5,0.6,0.8,1.1,0.8H19c0.5,0,0.9-0.3,1.1-0.8l2.3-6.8
		c0.2-0.6-0.1-1.2-0.7-1.4c-0.1,0-0.2-0.1-0.4-0.1h-1.4l-5-14.9c1.5-0.3,3.2-1.1,5.2-2.1l0,0c3.3-1.6,7.4-3.5,12.2-4.2l-0.8,30.3
		h-3.4c-2.5,0-4.5,2-4.5,4.5v1.1h-5.7c-3.1,0-5.7,2.5-5.7,5.7c0,1.3,0.4,2.5,1.2,3.5c-3.1,0.6-5.1,3.5-4.5,6.6
		c0.5,2.7,2.8,4.6,5.6,4.6h47.6v-2.3h-2.3v-6.8h2.3v-2.3h-5.7v-6.8h2.3v-2.3H48.5v-1.1c0-2.5-2-4.5-4.5-4.5h-3.4l-0.8-30.3
		c4.9,0.7,8.9,2.6,12.2,4.2l0,0c2.1,1,3.7,1.8,5.2,2.1l-5,14.9h-1.4c-0.6,0-1.1,0.5-1.1,1.1c0,0.1,0,0.2,0.1,0.4l2.3,6.8
		c0.2,0.5,0.6,0.8,1.1,0.8h11.3c0.5,0,0.9-0.3,1.1-0.8l2.3-6.8C67.8,36,67.7,35.6,67.5,35.3z M62.7,13.6l1.9,1.3
		c-0.9,1-2.6,2.5-4.8,2.9v-2.3C61,15.1,62,14.2,62.7,13.6z M34.7,8.8h2.6l0.8,30.6h-4.2L34.7,8.8z M36,4.3c0.7,0,1.2,0.5,1.2,1.2
		l0,1.1h-2.5l0-1.1C34.8,4.8,35.3,4.3,36,4.3z M7.4,14.8l1.9-1.3c0.6,0.7,1.6,1.5,2.9,1.9v2.3C10,17.4,8.3,15.8,7.4,14.8z
		 M18.2,41.7H8.5L7,37.1h12.7L18.2,41.7z M9.2,34.9l4.1-12.3l4.1,12.3H9.2z M19.1,15.8L19.1,15.8c-1.9,0.9-3.4,1.6-4.6,1.9v-2.4
		c0.9-0.3,2.1-0.8,3.6-1.6c3.4-1.6,8.4-4,14.3-4.7l-0.1,2.3C27,12,22.4,14.2,19.1,15.8L19.1,15.8z M14.5,67.7
		c-1.9,0-3.4-1.5-3.4-3.4s1.5-3.4,3.4-3.4H36v3.4c0,0.6,0.5,1.1,1.1,1.1h4.5c0.6,0,1.1-0.5,1.1-1.1v-3.4h14.7v6.8H14.5z M40.5,56.4
		v6.8h-2.3v-6.8H40.5z M54.1,58.7H42.8v-2.3h9.1v-2.3H24.7v2.3H36v2.3H17.9c-1.9,0-3.4-1.5-3.4-3.4s1.5-3.4,3.4-3.4h36.3V58.7z
		 M46.2,48.5v1.1H25.8v-1.1c0-1.2,1-2.3,2.3-2.3h15.9C45.2,46.2,46.2,47.2,46.2,48.5z M33.8,43.9l0.1-2.3h4.3l0.1,2.3H33.8z
		 M52.9,15.8c-3.3-1.6-7.9-3.8-13.3-4.5L39.6,9c6,0.7,11,3.1,14.3,4.7c1.6,0.8,2.8,1.3,3.6,1.6v2.4C56.3,17.4,54.8,16.7,52.9,15.8
		L52.9,15.8z M58.7,22.6l4.1,12.3h-8.2L58.7,22.6z M63.5,41.7h-9.7l-1.5-4.5H65L63.5,41.7z"/>
</g>
</svg>
