<?xml version="1.0" encoding="utf-8"?>
<!-- Generator: Adobe Illustrator 25.3.1, SVG Export Plug-In . SVG Version: 6.00 Build 0)  -->
<svg version="1.1" id="圖層_1" xmlns="http://www.w3.org/2000/svg" xmlns:xlink="http://www.w3.org/1999/xlink" x="0px" y="0px"
	 viewBox="0 0 72 72" style="enable-background:new 0 0 72 72;" xml:space="preserve">
<style type="text/css">
	.st0{fill:#5C5C5C;}
</style>
<g>
	<path class="st0" d="M29.6,38H7.6c-0.4,0-0.7,0.3-0.7,0.7s0.3,0.7,0.7,0.7h21.9c0.4,0,0.7-0.3,0.7-0.7S30,38,29.6,38z"/>
	<path class="st0" d="M69.4,19.1l-3.9-4c-0.7-0.7-2-0.7-2.7,0L60.9,17l6.6,6.6l1.9-1.9C70.2,21.1,70.2,19.8,69.4,19.1z"/>
	<path class="st0" d="M29.6,34.3H7.6c-0.4,0-0.7,0.3-0.7,0.7s0.3,0.7,0.7,0.7h21.9c0.4,0,0.7-0.3,0.7-0.7S30,34.3,29.6,34.3z"/>
	<path class="st0" d="M30.3,45.9c0-0.4-0.3-0.7-0.7-0.7H7.6c-0.4,0-0.7,0.3-0.7,0.7s0.3,0.7,0.7,0.7h21.9
		C30,46.6,30.3,46.3,30.3,45.9z"/>
	<rect x="17.2" y="54.7" class="st0" width="7.4" height="2.2"/>
	<path class="st0" d="M29.6,30.8H7.6c-0.4,0-0.7,0.3-0.7,0.7s0.3,0.7,0.7,0.7h21.9c0.4,0,0.7-0.3,0.7-0.7S30,30.8,29.6,30.8z"/>
	<path class="st0" d="M29.6,41.6H7.6c-0.4,0-0.7,0.3-0.7,0.7s0.3,0.7,0.7,0.7h21.9c0.4,0,0.7-0.3,0.7-0.7S30,41.6,29.6,41.6z"/>
	<path class="st0" d="M29.6,24c0.6,0,1.1-0.5,1.1-1.1s-0.5-1.1-1.1-1.1H7.6c-0.6,0-1.1,0.5-1.1,1.1S7.1,24,7.6,24H29.6z"/>
	<path class="st0" d="M66.4,23.4l-5.1-5.3c-0.4-0.4-1.1-0.4-1.5,0L51.8,26v-8.1c0-0.6-0.5-1.1-1.1-1.1H38.4v-6.6
		c0-0.6-0.5-1.1-1.1-1.1h-1.1V7.3c0-2.2-1.7-3.9-3.9-3.9c-2,0-3.7,1.6-3.7,3.5v2.4h-3.3l0,0c0,0-14.9,0-15.4,0
		c-0.5,0-0.7,0.3-0.7,0.3l-6.8,6.7c0,0-0.3,0.3-0.3,0.7c0,0.4,0.1,42.9,0.1,42.9c0,0.6,0.5,1.1,1.1,1.1h12.3v6.6
		c0,0.6,0.5,1.1,1.1,1.1h34.1c0.6,0,1.1-0.5,1.1-1.1V39.3L63,28.1c-0.2,0.7-0.6,1.5-1.2,2.2l-7.9,7.9c-1.2,1.2-1.9,3-1.7,4.6
		l0.1,0.5c0.1,0.6,0.5,1,1.1,1h0.1c0.6-0.1,1-0.6,1-1.2l-0.1-0.5c-0.1-1,0.3-2,1.1-2.8l7.9-7.9c1.4-1.4,2.1-3.3,1.8-5.1l-0.1-0.7
		l1.2-1.2C66.8,24.5,66.8,23.8,66.4,23.4z M38.4,19h11.3v9.1l-6.3,6.3c-0.4,0.4-0.4,1.1,0,1.5l-5,4.9V19z M44.8,37.5l2.2,2.2
		L32.7,53.9c-0.1,0.1-0.2,0.1-0.2,0l-1-1l-1-1c-0.1-0.1-0.1-0.2,0-0.2L44.8,37.5z M30.7,7.2c0-0.9,0.7-1.6,1.6-1.6
		c1,0,1.7,0.7,1.7,1.7v1.9h-3.4C30.7,8.1,30.7,7.2,30.7,7.2z M8.9,12.9V16H5.8L8.9,12.9z M4.2,59V18.1H10c0.6,0,1.1-0.5,1.1-1.1
		v-5.6h17.5c0,1.1,0,2.4,0,4.2c0,2.1,1.4,3.7,3.4,3.7c1.8,0,3-1.3,3-3.5v-3.6h-2.2v3.6c0,1.3-0.6,1.3-0.8,1.3
		c-0.8,0-1.2-0.7-1.2-1.5c0,0,0-2.1,0-4.2h5.6v31.6l-7.2,7.2c-0.9,0.9-0.9,2.3,0,3.2l0.2,0.2l-1.2,1.2c-0.4,0.4-0.4,1.1,0,1.5
		c0.2,0.2,0.5,0.3,0.7,0.3c0.2,0,0.6-0.1,0.7-0.3l1.2-1.2l0.2,0.2c0.4,0.4,1,0.7,1.7,0.7c0.6,0,1.2-0.2,1.7-0.7l1.9-1.9V59H4.2z
		 M49.7,66.6H17.6v-5.4h19.7c0.6,0,1.1-0.5,1.1-1.1v-8.7l10.2-10.2c0.2,0.2,0.4,0.2,0.7,0.2c0.2,0,0.2,0,0.4-0.1
		C49.7,41.3,49.7,66.6,49.7,66.6z M49.2,38.8l-3.6-3.6l14.9-14.9L64,24L49.2,38.8z"/>
</g>
</svg>
