<?xml version="1.0" encoding="utf-8"?>
<!-- Generator: Adobe Illustrator 26.0.1, SVG Export Plug-In . SVG Version: 6.00 Build 0)  -->
<svg version="1.1" id="圖層_1" xmlns="http://www.w3.org/2000/svg" xmlns:xlink="http://www.w3.org/1999/xlink" x="0px" y="0px"
	 viewBox="0 0 72 72" style="enable-background:new 0 0 72 72;" xml:space="preserve">
<style type="text/css">
	.st0{fill-rule:evenodd;clip-rule:evenodd;fill:#5C5C5C;}
</style>
<g>
	<path class="st0" d="M8.7,4.2c-2.5,0-4.5,2.1-4.5,4.5v42.4c0,2.5,2.1,4.5,4.5,4.5h54.5c2.5,0,4.5-2.1,4.5-4.5V8.7
		c0-2.5-2.1-4.5-4.5-4.5H8.7z M8.7,7.2h7.6v6.1H7.2V8.7C7.2,7.9,7.9,7.2,8.7,7.2z M19.3,7.2h6.1v6.1h-6.1V7.2z M28.4,7.2h6.1v6.1
		h-6.1V7.2z M37.5,7.2h6.1v6.1h-6.1V7.2z M46.6,7.2h6.1v6.1h-6.1V7.2z M55.7,7.2h7.6c0.9,0,1.5,0.7,1.5,1.5v4.5h-9.1V7.2z M7.2,16.3
		h57.5v27.3H7.2V16.3z M32.2,22.4c-0.8,0-1.5,0.6-1.5,1.5c0,0,0,0,0,0V36c0,0.8,0.7,1.5,1.5,1.5c0.3,0,0.5-0.1,0.8-0.2l10.6-6.1
		c0.7-0.4,1-1.3,0.6-2.1c-0.1-0.2-0.3-0.4-0.6-0.6L33,22.6C32.7,22.4,32.5,22.4,32.2,22.4z M33.7,26.5l6,3.4l-6,3.4V26.5z M7.2,46.6
		h9.1v6.1H8.7c-0.9,0-1.5-0.6-1.5-1.5V46.6z M19.3,46.6h6.1v6.1h-6.1V46.6z M28.4,46.6h6.1v6.1h-6.1V46.6z M37.5,46.6h6.1v6.1h-6.1
		V46.6z M46.6,46.6h6.1v6.1h-6.1V46.6z M55.7,46.6h9.1v4.5c0,0.9-0.6,1.5-1.5,1.5h-7.6V46.6z M17.8,58.7c-2,0-3.6,1.3-4.3,3H5.7
		c-2,0-2,3,0,3h7.8c0.6,1.8,2.3,3,4.3,3c2.5,0,4.5-2.1,4.5-4.5C22.4,60.8,20.3,58.7,17.8,58.7z M17.8,61.7c0.9,0,1.5,0.7,1.5,1.5
		c0,0.9-0.7,1.5-1.5,1.5s-1.5-0.7-1.5-1.5S17,61.7,17.8,61.7z M26.9,61.7c-2,0-2,3,0,3h39.4c2,0,2-3,0-3H26.9z"/>
</g>
</svg>
