<?xml version="1.0" encoding="utf-8"?>
<!-- Generator: Adobe Illustrator 25.3.1, SVG Export Plug-In . SVG Version: 6.00 Build 0)  -->
<svg version="1.1" id="圖層_1" xmlns="http://www.w3.org/2000/svg" xmlns:xlink="http://www.w3.org/1999/xlink" x="0px" y="0px"
	 viewBox="0 0 72 72" style="enable-background:new 0 0 72 72;" xml:space="preserve">
<style type="text/css">
	.st0{fill:#fff;}
</style>
<g>
	<path class="st0" d="M59.6,22.5c0.2,0.6,0.8,0.9,1.3,0.9c0.2,0,0.4,0,0.5-0.1l5.2-2.1c0.7-0.3,1.1-1.1,0.8-1.9
		c-0.3-0.7-1.1-1.1-1.9-0.8l-5.2,2.1C59.6,20.9,59.3,21.7,59.6,22.5z"/>
	<path class="st0" d="M61.4,28.6c0.1,0.7,0.7,1.3,1.4,1.3c0.1,0,0.1,0,0.2,0l5.6-0.7c0.8-0.1,1.4-0.8,1.3-1.6
		c-0.1-0.8-0.8-1.4-1.6-1.3L62.7,27C61.9,27.1,61.3,27.9,61.4,28.6z"/>
	<path class="st0" d="M68.8,34.6l-5.6-0.8c-0.8-0.1-1.5,0.4-1.7,1.2c-0.1,0.8,0.4,1.5,1.2,1.7l5.6,0.8c0.1,0,0.1,0,0.2,0
		c0.7,0,1.3-0.5,1.4-1.2C70.1,35.5,69.6,34.8,68.8,34.6z"/>
	<path class="st0" d="M51.6,12.5c0.3,0.2,0.6,0.3,0.9,0.3c0.4,0,0.8-0.2,1.1-0.5l3.5-4.4c0.5-0.6,0.4-1.5-0.2-2s-1.5-0.4-2,0.2
		l-3.5,4.4C50.9,11.1,51,12,51.6,12.5z"/>
	<path class="st0" d="M56.3,17c0.3,0.4,0.7,0.6,1.2,0.6c0.3,0,0.6-0.1,0.9-0.3l4.5-3.4c0.6-0.5,0.8-1.4,0.3-2
		c-0.5-0.6-1.4-0.8-2-0.3l-4.5,3.4C55.9,15.4,55.8,16.3,56.3,17z"/>
	<path class="st0" d="M62.8,63.6H35.2l1.7-0.7c0.4-0.2,0.7-0.5,0.8-0.9s0.1-0.9-0.2-1.2l-9.1-13.5l14.9-1.6c1.5,1.7,3.1,3,4.7,3.8
		c0.2,0.1,0.4,0.2,0.7,0.2c0.5,0,1-0.3,1.3-0.8c0.4-0.7,0.1-1.6-0.6-2c-1.4-0.8-2.9-2.1-4.4-3.7l0,0c-2.5-2.9-4.8-6.8-6.5-11
		c-1.8-4.6-2.9-9.4-2.9-13.3v0c0-4.1,1.1-7.1,3-7.8c0,0,0.1,0,0.2-0.1c-0.5,1.6-0.8,3.6-0.8,5.7c0,3.6,0.7,7.7,2.1,11.8
		c0,0.1,0,0.2,0.1,0.3c0.3,0.8,0.6,1.5,0.9,2.4c0.3,0.8,0.6,1.6,1,2.4c0,0.1,0.1,0.2,0.2,0.3c0.6,1.3,1.3,2.6,2,3.9
		c0.4,0.7,1.3,0.9,2,0.5c0.7-0.4,0.9-1.3,0.5-2c-0.4-0.8-0.9-1.5-1.3-2.3c0.1,0,0.2-0.1,0.4-0.1c3.3-1.3,5.4-3.5,5.4-5.5
		c0-0.3-0.1-0.7-0.2-1v0c-0.5-1.3-1.9-2-3.9-2c-1.3,0-2.8,0.3-4.3,0.9c-0.1,0-0.2,0.1-0.4,0.2c-1-3.3-1.5-6.6-1.5-9.5
		c0-2.2,0.3-4,0.9-5.4c4,1.7,8.5,7.6,11.4,14.9c0,0,0,0.1,0.1,0.1c1.5,3.8,2.4,7.6,2.8,11.1c0,0.1,0,0.2,0,0.2c0,0.2,0,0.3,0,0.5
		c0,0.5,0,1,0,1.5c0,2.2-0.3,4.1-0.9,5.5c-1.4-0.6-2.9-1.8-4.4-3.4c-0.6-0.6-1.5-0.6-2-0.1c-0.6,0.6-0.6,1.5-0.1,2
		c1.7,1.8,3.5,3.2,5.2,4c0,0.4,0.2,0.8,0.5,1.1c0.6,0.5,1.5,0.5,2-0.1c1.7-1.9,2.6-5,2.6-8.9c0-0.6,0-1.1-0.1-1.7
		c-0.2-4-1.3-8.4-3-12.8c0,0,0,0,0,0c-3.5-8.8-9-15.4-14-16.9c-0.2-0.1-0.4-0.1-0.6-0.2c-0.1,0-0.1,0-0.2,0c-0.5-0.1-1-0.2-1.5-0.2
		c-0.8,0-1.5,0.1-2.2,0.4c-3,1.2-4.7,4.7-4.8,9.8l-3.4,2.8c-1.2-0.6-2.6-1-4.1-1c-2.3,0-4.6,0.8-6.7,2.3c-3.1,2.3-5.1,5.7-5.1,8.9
		c0,0.7,0.1,1.5,0.3,2.1l-1.3,1.1c-0.4-0.2-0.8-0.3-1.3-0.1l-5.4,2.2c-0.7,0.3-1.1,1.1-0.8,1.9l0.6,1.3l-2.7,1.1
		c-0.4,0.1-0.6,0.4-0.8,0.8c-0.1,0.3-0.2,0.8,0,1.1l3.3,8c0.2,0.6,0.8,0.9,1.3,0.9c0.2,0,0.4,0,0.6-0.1l2.7-1.1l0.6,1.3
		c0.1,0.4,0.4,0.6,0.8,0.8c0.2,0.1,0.4,0.1,0.6,0.1c0.2,0,0.4,0,0.6-0.1l5.4-2.2c0.4-0.1,0.6-0.4,0.8-0.8l10.5,14H4.9
		c-0.8,0-1.4,0.7-1.4,1.4s0.7,1.4,1.4,1.4h57.9c0.8,0,1.4-0.7,1.4-1.4C64.2,64.2,63.6,63.6,62.8,63.6z M43.8,28.7
		c1.1-0.5,2.3-0.7,3.3-0.7c0.7,0,1.1,0.1,1.2,0.2c-0.1,0.5-1.2,1.8-3.6,2.8c-0.2,0.1-0.3,0.1-0.5,0.2c-0.2-0.4-0.3-0.7-0.4-1.1
		c-0.1-0.4-0.3-0.8-0.4-1.1C43.4,28.9,43.6,28.8,43.8,28.7z M25.7,44.6L25.7,44.6l-7.6,0.8c-0.3,0-0.5,0.1-0.7,0.3l-1.7-4.3L30.5,31
		c0.7-0.5,0.8-1.4,0.3-2c-0.5-0.7-1.4-0.8-2-0.3l-14.3,10l-0.7-1.8l19-15.2c0,0.1,0,0.2,0,0.3c0,0.1,0,0.2,0,0.3
		c0,0.2,0.1,0.4,0.1,0.7c0,0.1,0,0.1,0,0.2c0,0.2,0.1,0.5,0.1,0.7c0,0.1,0,0.2,0.1,0.3c0,0.2,0.1,0.3,0.1,0.5c0,0.1,0,0.2,0.1,0.3
		c0,0.2,0.1,0.4,0.1,0.5c0,0.1,0,0.2,0.1,0.3c0.1,0.3,0.1,0.5,0.2,0.8c0,0.1,0,0.2,0.1,0.2c0,0.2,0.1,0.4,0.1,0.6
		c0,0.1,0.1,0.2,0.1,0.3c0,0.2,0.1,0.3,0.1,0.5c0,0.1,0.1,0.2,0.1,0.3c0.1,0.2,0.1,0.4,0.2,0.6c0,0.1,0.1,0.2,0.1,0.3
		c0.1,0.3,0.2,0.5,0.3,0.8c0,0.1,0.1,0.2,0.1,0.3c0.1,0.2,0.1,0.4,0.2,0.5c0,0.1,0.1,0.2,0.1,0.3c0.1,0.2,0.1,0.3,0.2,0.5
		c0,0.1,0.1,0.2,0.1,0.3c0.1,0.2,0.2,0.5,0.3,0.7c0,0,0,0.1,0.1,0.1c0,0.1,0,0.1,0.1,0.2c0.1,0.2,0.2,0.4,0.2,0.6
		c0,0.1,0.1,0.2,0.1,0.3c0.1,0.2,0.1,0.3,0.2,0.5c0,0.1,0.1,0.2,0.1,0.3c0.1,0.2,0.1,0.3,0.2,0.5c0,0.1,0.1,0.2,0.1,0.3
		c0.1,0.2,0.2,0.5,0.3,0.7c0,0.1,0.1,0.1,0.1,0.2c0.1,0.2,0.2,0.3,0.2,0.5c0,0.1,0.1,0.2,0.2,0.3c0.1,0.1,0.1,0.3,0.2,0.4
		c0.1,0.1,0.1,0.2,0.2,0.3c0.1,0.2,0.2,0.3,0.2,0.4c0,0.1,0.1,0.2,0.1,0.2c0.1,0.2,0.2,0.4,0.4,0.7c0,0.1,0.1,0.2,0.1,0.2
		c0.1,0.1,0.2,0.3,0.3,0.4c0.1,0.1,0.1,0.2,0.2,0.3c0.1,0.1,0.2,0.3,0.2,0.4c0.1,0.1,0.1,0.2,0.2,0.3c0.1,0.2,0.2,0.3,0.3,0.4
		c0,0.1,0.1,0.1,0.1,0.2c0.1,0.2,0.3,0.4,0.4,0.6c0.1,0.1,0.1,0.1,0.2,0.2c0.1,0.1,0.1,0.2,0.2,0.3L25.7,44.6z M16.4,31.2
		C16.4,31.2,16.4,31.1,16.4,31.2c0-2.3,1.5-4.9,3.9-6.6c1.9-1.4,3.7-1.8,4.9-1.8c0.5,0,1,0.1,1.4,0.2l-4.8,3.9L16.4,31.2z M7.5,48.2
		l-2.2-5.4l1.3-0.6l2.2,5.4L7.5,48.2z M12.6,49.3L8.3,38.5l2.7-1.1l4.4,10.7L12.6,49.3z M23.1,47.8L23.1,47.8l2-0.2l9,13.3l-2.7,1.1
		L21,48L23.1,47.8z"/>
	<path class="st0" d="M67.2,63.6L67.2,63.6c-0.9,0-1.5,0.7-1.5,1.4c0,0.8,0.7,1.4,1.4,1.4h0.1c0.8,0,1.4-0.7,1.4-1.4
		C68.7,64.2,68,63.6,67.2,63.6z"/>
	<path class="st0" d="M6.3,31.7c0.8,0,1.4-0.7,1.4-1.4V10h21.7c0.8,0,1.4-0.7,1.4-1.4s-0.7-1.4-1.4-1.4H6.3c-0.8,0-1.4,0.7-1.4,1.4
		v21.7C4.9,31.1,5.5,31.7,6.3,31.7z"/>
	<rect x="9.2" y="11.4" class="st0" width="2.9" height="2.9"/>
	<rect x="9.2" y="15.8" class="st0" width="2.9" height="2.9"/>
	<rect x="9.2" y="20.1" class="st0" width="2.9" height="2.9"/>
</g>
</svg>
