<?xml version="1.0" encoding="utf-8"?>
<!-- Generator: Adobe Illustrator 25.3.1, SVG Export Plug-In . SVG Version: 6.00 Build 0)  -->
<svg version="1.1" id="圖層_1" xmlns="http://www.w3.org/2000/svg" xmlns:xlink="http://www.w3.org/1999/xlink" x="0px" y="0px"
	 viewBox="0 0 72 72" style="enable-background:new 0 0 72 72;" xml:space="preserve">
<style type="text/css">
	.st0{fill:#5C5C5C;}
	.st1{display:none;}
	.st2{display:inline;}
</style>
<g id="圖層_1_1_">
	<path class="st0" d="M64.6,38.6c3,0,5.4-2.1,5.4-4.8V9.6c0-2.6-2.4-4.8-5.4-4.8H28.1c-3,0-5.4,2.1-5.4,4.8V29v0.6h-0.6H6.8
		c-2.7,0-4.8,1.9-4.8,4.3v23.3c0,2.4,2.2,4.3,4.8,4.3c0.6,0,1.1-0.5,1.1-1.1c0-0.3-0.1-0.6-0.3-0.8c-0.2-0.2-0.5-0.3-0.8-0.3
		c-1.6,0-2.6-1.1-2.6-2.1V33.8c0-1,1-2.1,2.6-2.1h15.3h0.6v0.6v1.5c0,2.6,2.4,4.8,5.4,4.8h12.7h0.6v0.6v17.9c0,1-1,2.1-2.6,2.1H16.3
		c-0.3,0-0.6,0.1-0.8,0.3l-5.8,5.8c-0.2,0.2-0.3,0.5-0.3,0.8s0.1,0.6,0.3,0.8c0.2,0.2,0.5,0.3,0.8,0.3c0.3,0,0.6-0.1,0.8-0.3
		c0,0,0.1,0,0.1-0.1l5.4-5.4l0.2-0.2H17h21.8c2.7,0,4.8-1.9,4.8-4.3V39.1v-0.6h0.6h9h0.2l0.2,0.2l6.2,6.2c0.2,0.2,0.5,0.3,0.8,0.3
		c0.3,0,0.6-0.1,0.8-0.3c0.2-0.2,0.3-0.5,0.3-0.8s-0.1-0.6-0.3-0.8c0,0,0-0.1-0.1-0.1l-6.7-6.7c-0.2-0.2-0.5-0.3-0.8-0.3H28.1
		c-2,0-3.1-1.3-3.1-2.5V9.6c0-1.2,1.2-2.5,3.1-2.5h36.6c2,0,3.1,1.3,3.1,2.5v24.2c0,1.2-1.2,2.5-3.1,2.5c-0.3,0-0.6,0.1-0.8,0.3
		c-0.2,0.2-0.3,0.5-0.3,0.8C63.5,38,64,38.6,64.6,38.6z"/>
	<g>
		<path class="st0" d="M46,24.2c0,0.3,0.1,0.6,0.3,0.8s0.5,0.3,0.8,0.3c0.6,0,1.2-0.6,1.2-1.2V22l0.2-0.1c2.2-0.6,3.8-2.7,3.8-5.1
			c0-2.9-2.3-5.3-5.2-5.3l0,0c-2.9,0-5.2,2.4-5.2,5.3c0,0.7,0.5,1.2,1.1,1.2c0.3,0,0.6-0.1,0.8-0.3c0.2-0.2,0.4-0.5,0.4-0.8v-0.1
			c0-1.6,1.2-2.9,2.8-2.9s2.8,1.3,2.8,2.9c0,1.5-1.1,2.7-2.6,2.9h-0.1h-0.1c-0.1,0-0.1,0-0.2,0l0,0c-0.3,0-0.6,0.2-0.8,0.4
			c-0.2,0.3-0.3,0.6-0.3,1L46,24.2z"/>
		<path class="st0" d="M47.2,27.1L47.2,27.1c-0.5,0-1,0.2-1.3,0.6c-0.3,0.4-0.6,0.8-0.6,1.4c0,0.5,0.2,1,0.6,1.4
			c0.7,0.7,2,0.7,2.7,0c0.3-0.4,0.6-0.8,0.6-1.4C49.1,28,48.2,27.1,47.2,27.1z"/>
	</g>
	<g>
		<path class="st0" d="M12.7,44.1c-0.6,0.6-0.8,1.2-0.8,2c0,1.6,1.3,2.9,2.9,2.9l0,0c0.7,0,1.5-0.3,2-0.8c0.6-0.6,0.8-1.2,0.8-2
			s-0.3-1.5-0.8-2c-0.6-0.6-1.2-0.8-2-0.8l0,0C13.9,43.3,13.2,43.5,12.7,44.1z"/>
		<path class="st0" d="M21.3,44.1c-0.6,0.6-0.8,1.2-0.8,2c0,1.6,1.3,2.9,2.9,2.9l0,0c0.7,0,1.5-0.3,2-0.8c0.6-0.6,0.8-1.2,0.8-2
			s-0.3-1.5-0.8-2c-0.6-0.6-1.2-0.8-2-0.8l0,0C22.5,43.3,21.8,43.5,21.3,44.1z"/>
		<path class="st0" d="M31.4,43.3L31.4,43.3c-0.8,0-1.5,0.3-2,0.8c-0.6,0.6-0.8,1.2-0.8,2s0.3,1.5,0.8,2c0.6,0.6,1.2,0.8,2,0.8l0,0
			c1.6,0,2.9-1.3,2.9-2.9c0-0.7-0.3-1.5-0.8-2S32.2,43.3,31.4,43.3z"/>
	</g>
</g>
<g id="圖層_2_1_" class="st1">
	<path class="st2" d="M159.4-48.4c-5.6,0-10.6,4-10.6,9.5v34.6h-27.3c-5.1,0-9.6,3.6-9.6,8.7v41.5c0,5,4.6,8.7,9.6,8.7
		c1.7,0,3-1.3,3-3s-1.3-3-3-3l0,0c-2.3,0-3.7-1.4-3.7-2.7V4.3c0-1.3,1.3-2.7,3.7-2.7h27.3v2.7c0,5.5,5,9.5,10.6,9.5H182v32
		c0,1.3-1.3,2.7-3.6,2.7h-40.1c-0.8,0-1.6,0.3-2.1,0.9l-10.4,10.4c-1.2,1.1-1.2,3-0.1,4.2s3,1.2,4.2,0.1L130,64l9.5-9.5h38.9
		c5.1,0,9.6-3.6,9.6-8.7v-32h16l11.1,11.1c1.1,1.2,3,1.2,4.2,0.1c1.2-1.1,1.2-3,0.1-4.2l-0.1-0.1L207.5,8.8
		c-0.6-0.6-1.3-0.9-2.1-0.9h-45.9c-2.8,0-4.6-1.8-4.6-3.5v-43.3c0-1.7,1.8-3.5,4.6-3.5h65.2c2.8,0,4.6,1.8,4.6,3.5V4.3
		c0,1.7-1.8,3.5-4.6,3.5c-1.7,0-3,1.3-3,3c0,1.6,1.3,3,3,3c5.6,0,10.6-4,10.6-9.5v-43.2c0-5.5-5-9.5-10.6-9.5H159.4z"/>
	<g class="st2">
		<path d="M193.5-36c-5.3,0-9.7,4.5-9.7,9.9c0,1.5,1.1,2.7,2.5,2.7s2.6-1.1,2.7-2.6v-0.1c0-2.6,2-4.6,4.5-4.6s4.5,2,4.5,4.6
			c0,2.5-1.8,4.5-4.2,4.6c-0.1,0-0.2,0-0.4,0c-0.7,0-1.4,0.3-1.9,0.9s-0.8,1.4-0.6,2.2v5.5c0,1.5,1.2,2.6,2.6,2.6s2.6-1.2,2.6-2.6
			v-3.7c4.1-1.2,7.1-5,7.1-9.5C203.1-31.5,198.8-36,193.5-36L193.5-36z"/>
		<path d="M193.5-8.1c-2.1,0-3.9,1.8-3.9,4l0,0c0,2.2,1.7,4,3.9,4l0,0c2.1,0,3.9-1.8,3.9-4C197.4-6.3,195.5-8.1,193.5-8.1z"/>
	</g>
	<g class="st2">
		<path d="M135.4,20.7c-3.1,0-5.6,2.5-5.6,5.6l0,0c0,3.1,2.5,5.6,5.6,5.6s5.6-2.5,5.6-5.6S138.5,20.7,135.4,20.7L135.4,20.7z"/>
		<path d="M150.9,20.7c-3.1,0-5.6,2.5-5.6,5.6s2.5,5.6,5.6,5.6s5.6-2.5,5.6-5.6l0,0C156.5,23.2,154,20.7,150.9,20.7L150.9,20.7z"/>
		<path d="M165.4,20.7c-3.1,0-5.6,2.5-5.6,5.6l0,0c0,3.1,2.5,5.6,5.6,5.6s5.6-2.5,5.6-5.6S168.5,20.7,165.4,20.7z"/>
	</g>
</g>
</svg>
